<?xml version="1.0" encoding="UTF-8"?>
<!DOCTYPE xmeml>
<xmeml version="5">
<sequence id="GENEVA_PROTOOLS_LOCK-042911 PreppedForColor (from Color)">
	<uuid>63E69FE3-FCAE-45CF-9590-6349BC905078</uuid>
	<updatebehavior>add</updatebehavior>
	<name>GENEVA_PROTOOLS_LOCK-042911 PreppedForColor (from Color)</name>
	<duration>154027</duration>
	<rate>
		<ntsc>TRUE</ntsc>
		<timebase>30</timebase>
	</rate>
	<timecode>
		<rate>
			<ntsc>TRUE</ntsc>
			<timebase>30</timebase>
		</rate>
		<string>00:59:50;00</string>
		<frame>107592</frame>
		<source>source</source>
		<displayformat>DF</displayformat>
	</timecode>
	<in>-1</in>
	<out>154780</out>
	<media>
		<video>
			<format>
				<samplecharacteristics>
					<width>720</width>
					<height>480</height>
					<anamorphic>FALSE</anamorphic>
					<pixelaspectratio>NTSC-601</pixelaspectratio>
					<fielddominance>lower</fielddominance>
					<rate>
						<ntsc>TRUE</ntsc>
						<timebase>30</timebase>
					</rate>
					<colordepth>24</colordepth>
					<codec>
						<name>Apple ProRes 422 (HQ)</name>
						<appspecificdata>
							<appname>Final Cut Pro</appname>
							<appmanufacturer>Apple Inc.</appmanufacturer>
							<appversion>7.0</appversion>
							<data>
								<qtcodec>
									<codecname>Apple ProRes 422 (HQ)</codecname>
									<codectypename>Apple ProRes 422 (HQ)</codectypename>
									<codectypecode>apch</codectypecode>
									<codecvendorcode>appl</codecvendorcode>
									<spatialquality>1024</spatialquality>
									<temporalquality>0</temporalquality>
									<keyframerate>0</keyframerate>
									<datarate>0</datarate>
								</qtcodec>
							</data>
						</appspecificdata>
					</codec>
				</samplecharacteristics>
				<appspecificdata>
					<appname>Final Cut Pro</appname>
					<appmanufacturer>Apple Inc.</appmanufacturer>
					<appversion>7.0</appversion>
					<data>
						<fcpimageprocessing>
							<useyuv>TRUE</useyuv>
							<usesuperwhite>FALSE</usesuperwhite>
							<rendermode>YUV8BPP</rendermode>
						</fcpimageprocessing>
					</data>
				</appspecificdata>
			</format>
			<track>
				<enabled>TRUE</enabled>
				<locked>FALSE</locked>
			</track>
			<track>
				<enabled>TRUE</enabled>
				<locked>FALSE</locked>
			</track>
			<track>
				<enabled>TRUE</enabled>
				<locked>FALSE</locked>
			</track>
			<track>
				<enabled>TRUE</enabled>
				<locked>FALSE</locked>
			</track>
			<track>
				<enabled>TRUE</enabled>
				<locked>FALSE</locked>
			</track>
			<track>
				<enabled>TRUE</enabled>
				<locked>FALSE</locked>
			</track>
		</video>
		<audio>
			<format>
				<samplecharacteristics>
					<depth>16</depth>
					<samplerate>48000</samplerate>
				</samplecharacteristics>
			</format>
			<outputs>
				<group>
					<index>1</index>
					<numchannels>2</numchannels>
					<downmix>0</downmix>
					<channel>
						<index>1</index>
					</channel>
					<channel>
						<index>2</index>
					</channel>
				</group>
			</outputs>
			<in>-1</in>
			<out>154780</out>
			<track>
				<clipitem id="Slug">
					<name>Slug</name>
					<duration>7201</duration>
					<rate>
						<ntsc>TRUE</ntsc>
						<timebase>30</timebase>
					</rate>
					<in>1800</in>
					<out>2040</out>
					<start>0</start>
					<end>240</end>
					<logginginfo>
						<scene/>
						<shottake/>
						<lognote/>
						<good>FALSE</good>
					</logginginfo>
					<labels>
						<label2/>
					</labels>
					<comments>
						<mastercomment1/>
						<mastercomment2/>
						<mastercomment3/>
						<mastercomment4/>
					</comments>
					<file id="Slug1">
						<name>Slug</name>
						<mediaSource>Slug</mediaSource>
						<rate>
							<timebase>30</timebase>
							<ntsc>TRUE</ntsc>
						</rate>
						<duration>3600</duration>
						<media>
							<video>
								<duration>3600</duration>
								<samplecharacteristics>
									<width>720</width>
									<height>480</height>
								</samplecharacteristics>
							</video>
							<audio>
								<samplecharacteristics>
									<samplerate>48000</samplerate>
									<depth>32</depth>
								</samplecharacteristics>
								<channelcount>2</channelcount>
							</audio>
						</media>
					</file>
					<filter>
						<effect>
							<name>Audio Levels</name>
							<effectid>audiolevels</effectid>
							<effectcategory>audiolevels</effectcategory>
							<effecttype>audiolevels</effecttype>
							<mediatype>audio</mediatype>
							<parameter>
								<name>Level</name>
								<parameterid>level</parameterid>
								<valuemin>0</valuemin>
								<valuemax>3.98109</valuemax>
								<value>1</value>
							</parameter>
						</effect>
					</filter>
					<filter>
						<effect>
							<name>Audio Pan</name>
							<effectid>audiopan</effectid>
							<effectcategory>audiopan</effectcategory>
							<effecttype>audiopan</effecttype>
							<mediatype>audio</mediatype>
							<parameter>
								<name>Pan</name>
								<parameterid>pan</parameterid>
								<valuemin>-1</valuemin>
								<valuemax>1</valuemax>
								<value>1</value>
							</parameter>
						</effect>
					</filter>
					<sourcetrack>
						<mediatype>audio</mediatype>
						<trackindex>2</trackindex>
					</sourcetrack>
					<itemhistory>
						<uuid>7AF35B8B-D4BD-441E-BD57-687C3B96A9A4</uuid>
						<uuid>4470F866-49D6-4DA5-AE19-8833A03D1968</uuid>
					</itemhistory>
					<mixedratesoffset>1</mixedratesoffset>
				</clipitem>
				<clipitem id="Bars and Tone (NTSC)">
					<name>Bars and Tone (NTSC)</name>
					<duration>7201</duration>
					<rate>
						<ntsc>FALSE</ntsc>
						<timebase>30</timebase>
					</rate>
					<in>1800</in>
					<out>1801</out>
					<start>240</start>
					<end>241</end>
					<logginginfo>
						<scene/>
						<shottake/>
						<lognote/>
						<good>FALSE</good>
					</logginginfo>
					<labels>
						<label2/>
					</labels>
					<comments>
						<mastercomment1/>
						<mastercomment2/>
						<mastercomment3/>
						<mastercomment4/>
					</comments>
					<file id="Bars and Tone (NTSC)1">
						<name>Bars and Tone (NTSC)</name>
						<mediaSource>BarsAndTone</mediaSource>
						<rate>
							<timebase>30</timebase>
						</rate>
						<duration>3600</duration>
						<media>
							<video>
								<duration>3600</duration>
								<samplecharacteristics>
									<width>720</width>
									<height>480</height>
								</samplecharacteristics>
							</video>
							<audio>
								<samplecharacteristics>
									<samplerate>48000</samplerate>
									<depth>32</depth>
								</samplecharacteristics>
								<channelcount>2</channelcount>
							</audio>
						</media>
					</file>
					<filter>
						<effect>
							<name>Audio Levels</name>
							<effectid>audiolevels</effectid>
							<effectcategory>audiolevels</effectcategory>
							<effecttype>audiolevels</effecttype>
							<mediatype>audio</mediatype>
							<parameter>
								<name>Level</name>
								<parameterid>level</parameterid>
								<valuemin>0</valuemin>
								<valuemax>3.98109</valuemax>
								<value>0.2513</value>
							</parameter>
						</effect>
					</filter>
					<filter>
						<effect>
							<name>Audio Pan</name>
							<effectid>audiopan</effectid>
							<effectcategory>audiopan</effectcategory>
							<effecttype>audiopan</effecttype>
							<mediatype>audio</mediatype>
							<parameter>
								<name>Pan</name>
								<parameterid>pan</parameterid>
								<valuemin>-1</valuemin>
								<valuemax>1</valuemax>
								<value>1</value>
							</parameter>
						</effect>
					</filter>
					<sourcetrack>
						<mediatype>audio</mediatype>
						<trackindex>2</trackindex>
					</sourcetrack>
					<itemhistory>
						<uuid>A52BAF94-20B5-4BEF-B7C5-AD63F0D81CCA</uuid>
						<uuid>605B9E44-365A-47F9-8A13-68BD5AD4851C</uuid>
					</itemhistory>
					<mixedratesoffset>1</mixedratesoffset>
				</clipitem>
				<clipitem id="01-Opening-J.wav">
					<name>01-Opening-J.wav</name>
					<duration>5333</duration>
					<rate>
						<ntsc>TRUE</ntsc>
						<timebase>30</timebase>
					</rate>
					<in>1</in>
					<out>5333</out>
					<start>241</start>
					<end>5573</end>
					<logginginfo>
						<scene/>
						<shottake/>
						<lognote/>
						<good>FALSE</good>
					</logginginfo>
					<labels>
						<label2/>
					</labels>
					<comments>
						<mastercomment1/>
						<mastercomment2/>
						<mastercomment3/>
						<mastercomment4/>
					</comments>
					<file id="01-Opening-J">
						<name>01-Opening-J.wav</name>
						<pathurl>file://localhost/REMEMBERING_GENEVA_STEEL_COLOR/01_MEDIA/AUDIO/01-Opening-J.wav</pathurl>
						<rate>
							<timebase>30</timebase>
							<ntsc>TRUE</ntsc>
						</rate>
						<duration>5333</duration>
						<media>
							<audio>
								<samplecharacteristics>
									<samplerate>44100</samplerate>
									<depth>24</depth>
								</samplecharacteristics>
								<channelcount>2</channelcount>
							</audio>
						</media>
					</file>
					<filter>
						<effect>
							<name>Audio Levels</name>
							<effectid>audiolevels</effectid>
							<effectcategory>audiolevels</effectcategory>
							<effecttype>audiolevels</effecttype>
							<mediatype>audio</mediatype>
							<parameter>
								<name>Level</name>
								<parameterid>level</parameterid>
								<valuemin>0</valuemin>
								<valuemax>3.98109</valuemax>
								<keyframe>
									<when>2282.89</when>
									<value>1</value>
								</keyframe>
								<keyframe>
									<when>2376.83</when>
									<value>0.354813</value>
								</keyframe>
								<interpolation>
									<name>FCPCurve</name>
								</interpolation>
								<value>1</value>
							</parameter>
						</effect>
					</filter>
					<filter>
						<effect>
							<name>Audio Pan</name>
							<effectid>audiopan</effectid>
							<effectcategory>audiopan</effectcategory>
							<effecttype>audiopan</effecttype>
							<mediatype>audio</mediatype>
							<parameter>
								<name>Pan</name>
								<parameterid>pan</parameterid>
								<valuemin>-1</valuemin>
								<valuemax>1</valuemax>
								<value>1</value>
							</parameter>
						</effect>
					</filter>
					<sourcetrack>
						<mediatype>audio</mediatype>
						<trackindex>2</trackindex>
					</sourcetrack>
					<itemhistory>
						<uuid>CB45CDDF-0F98-4D65-AA52-8CA73154EF31</uuid>
					</itemhistory>
					<mixedratesoffset>1</mixedratesoffset>
				</clipitem>
				<clipitem id="KT_227_6_Open_Decisions_Wilkerson_441438_A.wav">
					<name>KT_227_6_Open_Decisions_Wilkerson_441438_A.wav</name>
					<duration>3483</duration>
					<rate>
						<ntsc>TRUE</ntsc>
						<timebase>30</timebase>
					</rate>
					<in>0</in>
					<out>1346</out>
					<start>9460</start>
					<end>-1</end>
					<logginginfo>
						<scene/>
						<shottake/>
						<lognote/>
						<good>FALSE</good>
					</logginginfo>
					<labels>
						<label2/>
					</labels>
					<comments>
						<mastercomment1/>
						<mastercomment2/>
						<mastercomment3/>
						<mastercomment4/>
					</comments>
					<file id="KT_227_6_Open_Decisions_Wilkerson_441438_A">
						<name>KT_227_6_Open_Decisions_Wilkerson_441438_A.wav</name>
						<pathurl>file://localhost/REMEMBERING_GENEVA_STEEL_COLOR/01_MEDIA/AUDIO/KT_227_6_Open_Decisions_Wilkerson_441438_A.wav</pathurl>
						<rate>
							<timebase>30</timebase>
							<ntsc>TRUE</ntsc>
						</rate>
						<duration>3483</duration>
						<media>
							<audio>
								<samplecharacteristics>
									<samplerate>48000</samplerate>
									<depth>16</depth>
								</samplecharacteristics>
								<channelcount>2</channelcount>
							</audio>
						</media>
					</file>
					<filter>
						<effect>
							<name>Audio Levels</name>
							<effectid>audiolevels</effectid>
							<effectcategory>audiolevels</effectcategory>
							<effecttype>audiolevels</effecttype>
							<mediatype>audio</mediatype>
							<parameter>
								<name>Level</name>
								<parameterid>level</parameterid>
								<valuemin>0</valuemin>
								<valuemax>3.98109</valuemax>
								<keyframe>
									<when>429.116</when>
									<value>1</value>
								</keyframe>
								<keyframe>
									<when>558.946</when>
									<value>0.794328</value>
								</keyframe>
								<interpolation>
									<name>FCPCurve</name>
								</interpolation>
								<value>1</value>
							</parameter>
						</effect>
					</filter>
					<filter>
						<effect>
							<name>Audio Pan</name>
							<effectid>audiopan</effectid>
							<effectcategory>audiopan</effectcategory>
							<effecttype>audiopan</effecttype>
							<mediatype>audio</mediatype>
							<parameter>
								<name>Pan</name>
								<parameterid>pan</parameterid>
								<valuemin>-1</valuemin>
								<valuemax>1</valuemax>
								<value>1</value>
							</parameter>
						</effect>
					</filter>
					<sourcetrack>
						<mediatype>audio</mediatype>
						<trackindex>2</trackindex>
					</sourcetrack>
					<itemhistory>
						<uuid>47E16B25-6937-4A96-BF6F-8330762C3B1D</uuid>
					</itemhistory>
					<mixedratesoffset>1</mixedratesoffset>
				</clipitem>
				<transitionitem>
					<rate>
						<ntsc>TRUE</ntsc>
						<timebase>30</timebase>
					</rate>
					<start>10709</start>
					<end>10806</end>
					<alignment>end-black</alignment>
					<effect>
						<name>Cross Fade (+3dB)</name>
						<effectid>KGAudioTransCrossFade3dB</effectid>
						<effecttype>transition</effecttype>
						<mediatype>audio</mediatype>
					</effect>
				</transitionitem>
				<transitionitem>
					<rate>
						<ntsc>TRUE</ntsc>
						<timebase>30</timebase>
					</rate>
					<start>24930</start>
					<end>25011</end>
					<alignment>start-black</alignment>
					<effect>
						<name>Cross Fade (+3dB)</name>
						<effectid>KGAudioTransCrossFade3dB</effectid>
						<effecttype>transition</effecttype>
						<mediatype>audio</mediatype>
					</effect>
				</transitionitem>
				<clipitem id="omn17202.wav">
					<name>omn17202.wav</name>
					<duration>3889</duration>
					<rate>
						<ntsc>TRUE</ntsc>
						<timebase>30</timebase>
					</rate>
					<in>3125</in>
					<out>3889</out>
					<start>-1</start>
					<end>25694</end>
					<subframeoffset>0</subframeoffset>
					<logginginfo>
						<scene/>
						<shottake/>
						<lognote/>
						<good>FALSE</good>
					</logginginfo>
					<labels>
						<label2/>
					</labels>
					<comments>
						<mastercomment1/>
						<mastercomment2/>
						<mastercomment3/>
						<mastercomment4/>
					</comments>
					<file id="omn17202 ">
						<name>omn17202.wav</name>
						<pathurl>file://localhost/REMEMBERING_GENEVA_STEEL_COLOR/01_MEDIA/AUDIO/omn17202.wav</pathurl>
						<rate>
							<timebase>30</timebase>
							<ntsc>TRUE</ntsc>
						</rate>
						<duration>3889</duration>
						<timecode>
							<rate>
								<timebase>30</timebase>
								<ntsc>TRUE</ntsc>
							</rate>
							<string>00:00:00:00</string>
							<frame>0</frame>
							<displayformat>NDF</displayformat>
							<source>source</source>
						</timecode>
						<media>
							<audio>
								<samplecharacteristics>
									<samplerate>48000</samplerate>
									<depth>16</depth>
								</samplecharacteristics>
								<channelcount>2</channelcount>
							</audio>
						</media>
					</file>
					<filter>
						<effect>
							<name>Audio Levels</name>
							<effectid>audiolevels</effectid>
							<effectcategory>audiolevels</effectcategory>
							<effecttype>audiolevels</effecttype>
							<mediatype>audio</mediatype>
							<parameter>
								<name>Level</name>
								<parameterid>level</parameterid>
								<valuemin>0</valuemin>
								<valuemax>3.98109</valuemax>
								<value>0.0223872</value>
							</parameter>
						</effect>
					</filter>
					<filter>
						<effect>
							<name>Audio Pan</name>
							<effectid>audiopan</effectid>
							<effectcategory>audiopan</effectcategory>
							<effecttype>audiopan</effecttype>
							<mediatype>audio</mediatype>
							<parameter>
								<name>Pan</name>
								<parameterid>pan</parameterid>
								<valuemin>-1</valuemin>
								<valuemax>1</valuemax>
								<value>1</value>
							</parameter>
						</effect>
					</filter>
					<sourcetrack>
						<mediatype>audio</mediatype>
						<trackindex>2</trackindex>
					</sourcetrack>
					<itemhistory>
						<uuid>87539DD0-2E0B-4BDC-B580-C53EDE7B931B</uuid>
					</itemhistory>
					<mixedratesoffset>1</mixedratesoffset>
				</clipitem>
				<transitionitem>
					<rate>
						<ntsc>TRUE</ntsc>
						<timebase>30</timebase>
					</rate>
					<start>64320</start>
					<end>64548</end>
					<alignment>start-black</alignment>
					<effect>
						<name>Cross Fade (+3dB)</name>
						<effectid>KGAudioTransCrossFade3dB</effectid>
						<effecttype>transition</effecttype>
						<mediatype>audio</mediatype>
					</effect>
				</transitionitem>
				<clipitem id="KT_227_11_Mesmerized_Housewives_Wilkerson_441456_A.wav">
					<name>KT_227_11_Mesmerized_Housewives_Wilkerson_441456_A.wav</name>
					<duration>3563</duration>
					<rate>
						<ntsc>TRUE</ntsc>
						<timebase>30</timebase>
					</rate>
					<in>698</in>
					<out>2933</out>
					<start>-1</start>
					<end>66555</end>
					<logginginfo>
						<scene/>
						<shottake/>
						<lognote/>
						<good>FALSE</good>
					</logginginfo>
					<labels>
						<label2/>
					</labels>
					<comments>
						<mastercomment1/>
						<mastercomment2/>
						<mastercomment3/>
						<mastercomment4/>
					</comments>
					<file id="KT_227_11_Mesmerized_Housewives_Wilkerson_441456_A">
						<name>KT_227_11_Mesmerized_Housewives_Wilkerson_441456_A.wav</name>
						<pathurl>file://localhost/REMEMBERING_GENEVA_STEEL_COLOR/01_MEDIA/AUDIO/KT_227_11_Mesmerized_Housewives_Wilkerson_441456_A.wav</pathurl>
						<rate>
							<timebase>30</timebase>
							<ntsc>TRUE</ntsc>
						</rate>
						<duration>3563</duration>
						<media>
							<audio>
								<samplecharacteristics>
									<samplerate>48000</samplerate>
									<depth>16</depth>
								</samplecharacteristics>
								<channelcount>2</channelcount>
							</audio>
						</media>
					</file>
					<filter>
						<effect>
							<name>Audio Levels</name>
							<effectid>audiolevels</effectid>
							<effectcategory>audiolevels</effectcategory>
							<effecttype>audiolevels</effecttype>
							<mediatype>audio</mediatype>
							<parameter>
								<name>Level</name>
								<parameterid>level</parameterid>
								<valuemin>0</valuemin>
								<valuemax>3.98109</valuemax>
								<keyframe>
									<when>1569.57</when>
									<value>0.223872</value>
								</keyframe>
								<keyframe>
									<when>1617</when>
									<value>0.0707946</value>
								</keyframe>
								<interpolation>
									<name>FCPCurve</name>
								</interpolation>
								<value>1</value>
							</parameter>
						</effect>
					</filter>
					<filter>
						<effect>
							<name>Audio Pan</name>
							<effectid>audiopan</effectid>
							<effectcategory>audiopan</effectcategory>
							<effecttype>audiopan</effecttype>
							<mediatype>audio</mediatype>
							<parameter>
								<name>Pan</name>
								<parameterid>pan</parameterid>
								<valuemin>-1</valuemin>
								<valuemax>1</valuemax>
								<value>1</value>
							</parameter>
						</effect>
					</filter>
					<sourcetrack>
						<mediatype>audio</mediatype>
						<trackindex>2</trackindex>
					</sourcetrack>
					<itemhistory>
						<uuid>7102919D-1E9F-4165-9692-0D19B3221DB1</uuid>
					</itemhistory>
					<mixedratesoffset>1</mixedratesoffset>
				</clipitem>
				<clipitem id="KT_227_11_Mesmerized_Housewives_Wilkerson_441456_A.wav1">
					<name>KT_227_11_Mesmerized_Housewives_Wilkerson_441456_A.wav</name>
					<duration>3563</duration>
					<rate>
						<ntsc>TRUE</ntsc>
						<timebase>30</timebase>
					</rate>
					<in>2933</in>
					<out>3287</out>
					<start>66555</start>
					<end>-1</end>
					<logginginfo>
						<scene/>
						<shottake/>
						<lognote/>
						<good>FALSE</good>
					</logginginfo>
					<labels>
						<label2/>
					</labels>
					<comments>
						<mastercomment1/>
						<mastercomment2/>
						<mastercomment3/>
						<mastercomment4/>
					</comments>
					<file id="KT_227_11_Mesmerized_Housewives_Wilkerson_441456_A"/>
					<filter>
						<effect>
							<name>Audio Levels</name>
							<effectid>audiolevels</effectid>
							<effectcategory>audiolevels</effectcategory>
							<effecttype>audiolevels</effecttype>
							<mediatype>audio</mediatype>
							<parameter>
								<name>Level</name>
								<parameterid>level</parameterid>
								<valuemin>0</valuemin>
								<valuemax>3.98109</valuemax>
								<keyframe>
									<when>1569.57</when>
									<value>0.223872</value>
								</keyframe>
								<keyframe>
									<when>1617</when>
									<value>0.0707946</value>
								</keyframe>
								<interpolation>
									<name>FCPCurve</name>
								</interpolation>
								<value>1</value>
							</parameter>
						</effect>
					</filter>
					<filter>
						<effect>
							<name>Audio Pan</name>
							<effectid>audiopan</effectid>
							<effectcategory>audiopan</effectcategory>
							<effecttype>audiopan</effecttype>
							<mediatype>audio</mediatype>
							<parameter>
								<name>Pan</name>
								<parameterid>pan</parameterid>
								<valuemin>-1</valuemin>
								<valuemax>1</valuemax>
								<value>1</value>
							</parameter>
						</effect>
					</filter>
					<sourcetrack>
						<mediatype>audio</mediatype>
						<trackindex>2</trackindex>
					</sourcetrack>
					<itemhistory>
						<uuid>BEA27D9F-7B4E-485C-B76E-74E084BC1776</uuid>
					</itemhistory>
					<mixedratesoffset>1</mixedratesoffset>
				</clipitem>
				<transitionitem>
					<rate>
						<ntsc>TRUE</ntsc>
						<timebase>30</timebase>
					</rate>
					<start>66736</start>
					<end>66909</end>
					<alignment>end-black</alignment>
					<effect>
						<name>Cross Fade ( 0dB)</name>
						<effectid>KGAudioTransCrossFade0dB</effectid>
						<effecttype>transition</effecttype>
						<mediatype>audio</mediatype>
					</effect>
				</transitionitem>
				<transitionitem>
					<rate>
						<ntsc>TRUE</ntsc>
						<timebase>30</timebase>
					</rate>
					<start>66994</start>
					<end>67087</end>
					<alignment>start-black</alignment>
					<effect>
						<name>Cross Fade (+3dB)</name>
						<effectid>KGAudioTransCrossFade3dB</effectid>
						<effecttype>transition</effecttype>
						<mediatype>audio</mediatype>
					</effect>
				</transitionitem>
				<clipitem id="KT_227_11_Mesmerized_Housewives_Wilkerson_441456_A.wav2">
					<name>KT_227_11_Mesmerized_Housewives_Wilkerson_441456_A.wav</name>
					<duration>3563</duration>
					<rate>
						<ntsc>TRUE</ntsc>
						<timebase>30</timebase>
					</rate>
					<in>2992</in>
					<out>3287</out>
					<start>-1</start>
					<end>-1</end>
					<logginginfo>
						<scene/>
						<shottake/>
						<lognote/>
						<good>FALSE</good>
					</logginginfo>
					<labels>
						<label2/>
					</labels>
					<comments>
						<mastercomment1/>
						<mastercomment2/>
						<mastercomment3/>
						<mastercomment4/>
					</comments>
					<file id="KT_227_11_Mesmerized_Housewives_Wilkerson_441456_A"/>
					<filter>
						<effect>
							<name>Audio Levels</name>
							<effectid>audiolevels</effectid>
							<effectcategory>audiolevels</effectcategory>
							<effecttype>audiolevels</effecttype>
							<mediatype>audio</mediatype>
							<parameter>
								<name>Level</name>
								<parameterid>level</parameterid>
								<valuemin>0</valuemin>
								<valuemax>3.98109</valuemax>
								<keyframe>
									<when>1569.57</when>
									<value>0.223872</value>
								</keyframe>
								<keyframe>
									<when>1617</when>
									<value>0.398107</value>
								</keyframe>
								<interpolation>
									<name>FCPCurve</name>
								</interpolation>
								<value>1</value>
							</parameter>
						</effect>
					</filter>
					<filter>
						<effect>
							<name>Audio Pan</name>
							<effectid>audiopan</effectid>
							<effectcategory>audiopan</effectcategory>
							<effecttype>audiopan</effecttype>
							<mediatype>audio</mediatype>
							<parameter>
								<name>Pan</name>
								<parameterid>pan</parameterid>
								<valuemin>-1</valuemin>
								<valuemax>1</valuemax>
								<value>1</value>
							</parameter>
						</effect>
					</filter>
					<sourcetrack>
						<mediatype>audio</mediatype>
						<trackindex>2</trackindex>
					</sourcetrack>
					<itemhistory>
						<uuid>F1A87752-FA27-484E-9F94-DF4E21312E35</uuid>
					</itemhistory>
					<mixedratesoffset>1</mixedratesoffset>
				</clipitem>
				<transitionitem>
					<rate>
						<ntsc>TRUE</ntsc>
						<timebase>30</timebase>
					</rate>
					<start>67116</start>
					<end>67289</end>
					<alignment>end-black</alignment>
					<effect>
						<name>Cross Fade ( 0dB)</name>
						<effectid>KGAudioTransCrossFade0dB</effectid>
						<effecttype>transition</effecttype>
						<mediatype>audio</mediatype>
					</effect>
				</transitionitem>
				<transitionitem>
					<rate>
						<ntsc>TRUE</ntsc>
						<timebase>30</timebase>
					</rate>
					<start>68495</start>
					<end>68687</end>
					<alignment>start-black</alignment>
					<effect>
						<name>Cross Fade (+3dB)</name>
						<effectid>KGAudioTransCrossFade3dB</effectid>
						<effecttype>transition</effecttype>
						<mediatype>audio</mediatype>
					</effect>
				</transitionitem>
				<clipitem id="fp02711_A.wav">
					<name>fp02711_A.wav</name>
					<duration>4950</duration>
					<rate>
						<ntsc>TRUE</ntsc>
						<timebase>30</timebase>
					</rate>
					<in>82</in>
					<out>2035</out>
					<start>-1</start>
					<end>-1</end>
					<logginginfo>
						<scene/>
						<shottake/>
						<lognote/>
						<good>FALSE</good>
					</logginginfo>
					<labels>
						<label2/>
					</labels>
					<comments>
						<mastercomment1/>
						<mastercomment2/>
						<mastercomment3/>
						<mastercomment4/>
					</comments>
					<file id="fp02711_A">
						<name>fp02711_A.wav</name>
						<pathurl>file://localhost/REMEMBERING_GENEVA_STEEL_COLOR/01_MEDIA/AUDIO/fp02711_A.wav</pathurl>
						<rate>
							<timebase>30</timebase>
							<ntsc>TRUE</ntsc>
						</rate>
						<duration>4950</duration>
						<media>
							<audio>
								<samplecharacteristics>
									<samplerate>48000</samplerate>
									<depth>16</depth>
								</samplecharacteristics>
								<channelcount>2</channelcount>
							</audio>
						</media>
					</file>
					<filter>
						<effect>
							<name>Audio Levels</name>
							<effectid>audiolevels</effectid>
							<effectcategory>audiolevels</effectcategory>
							<effecttype>audiolevels</effecttype>
							<mediatype>audio</mediatype>
							<parameter>
								<name>Level</name>
								<parameterid>level</parameterid>
								<valuemin>0</valuemin>
								<valuemax>3.98109</valuemax>
								<value>0.354813</value>
							</parameter>
						</effect>
					</filter>
					<filter>
						<effect>
							<name>Audio Pan</name>
							<effectid>audiopan</effectid>
							<effectcategory>audiopan</effectcategory>
							<effecttype>audiopan</effecttype>
							<mediatype>audio</mediatype>
							<parameter>
								<name>Pan</name>
								<parameterid>pan</parameterid>
								<valuemin>-1</valuemin>
								<valuemax>1</valuemax>
								<value>1</value>
							</parameter>
						</effect>
					</filter>
					<sourcetrack>
						<mediatype>audio</mediatype>
						<trackindex>2</trackindex>
					</sourcetrack>
					<itemhistory>
						<uuid>1C9EE797-4000-4767-A5A0-C023447A833A</uuid>
					</itemhistory>
					<mixedratesoffset>1</mixedratesoffset>
				</clipitem>
				<transitionitem>
					<rate>
						<ntsc>TRUE</ntsc>
						<timebase>30</timebase>
					</rate>
					<start>70098</start>
					<end>70448</end>
					<alignment>end-black</alignment>
					<effect>
						<name>Cross Fade ( 0dB)</name>
						<effectid>KGAudioTransCrossFade0dB</effectid>
						<effecttype>transition</effecttype>
						<mediatype>audio</mediatype>
					</effect>
				</transitionitem>
				<transitionitem>
					<rate>
						<ntsc>TRUE</ntsc>
						<timebase>30</timebase>
					</rate>
					<start>71371</start>
					<end>71716</end>
					<alignment>start-black</alignment>
					<effect>
						<name>Cross Fade (+3dB)</name>
						<effectid>KGAudioTransCrossFade3dB</effectid>
						<effecttype>transition</effecttype>
						<mediatype>audio</mediatype>
					</effect>
				</transitionitem>
				<clipitem id="fp02711_A.wav1">
					<name>fp02711_A.wav</name>
					<duration>4950</duration>
					<rate>
						<ntsc>TRUE</ntsc>
						<timebase>30</timebase>
					</rate>
					<in>1976</in>
					<out>3990</out>
					<start>-1</start>
					<end>73385</end>
					<logginginfo>
						<scene/>
						<shottake/>
						<lognote/>
						<good>FALSE</good>
					</logginginfo>
					<labels>
						<label2/>
					</labels>
					<comments>
						<mastercomment1/>
						<mastercomment2/>
						<mastercomment3/>
						<mastercomment4/>
					</comments>
					<file id="fp02711_A"/>
					<filter>
						<effect>
							<name>Audio Levels</name>
							<effectid>audiolevels</effectid>
							<effectcategory>audiolevels</effectcategory>
							<effecttype>audiolevels</effecttype>
							<mediatype>audio</mediatype>
							<parameter>
								<name>Level</name>
								<parameterid>level</parameterid>
								<valuemin>0</valuemin>
								<valuemax>3.98109</valuemax>
								<keyframe>
									<when>3059</when>
									<value>0.199526</value>
								</keyframe>
								<keyframe>
									<when>3127.02</when>
									<value>0.1</value>
								</keyframe>
								<keyframe>
									<when>3403</when>
									<value>0.1</value>
								</keyframe>
								<keyframe>
									<when>3459.71</when>
									<value>0.199526</value>
								</keyframe>
								<interpolation>
									<name>FCPCurve</name>
								</interpolation>
								<value>1</value>
							</parameter>
						</effect>
					</filter>
					<filter>
						<effect>
							<name>Audio Pan</name>
							<effectid>audiopan</effectid>
							<effectcategory>audiopan</effectcategory>
							<effecttype>audiopan</effecttype>
							<mediatype>audio</mediatype>
							<parameter>
								<name>Pan</name>
								<parameterid>pan</parameterid>
								<valuemin>-1</valuemin>
								<valuemax>1</valuemax>
								<value>1</value>
							</parameter>
						</effect>
					</filter>
					<sourcetrack>
						<mediatype>audio</mediatype>
						<trackindex>2</trackindex>
					</sourcetrack>
					<itemhistory>
						<uuid>2756A50E-51BE-4D09-AAE9-EF4ED5E30812</uuid>
					</itemhistory>
					<mixedratesoffset>1</mixedratesoffset>
				</clipitem>
				<transitionitem>
					<rate>
						<ntsc>TRUE</ntsc>
						<timebase>30</timebase>
					</rate>
					<start>74607</start>
					<end>74774</end>
					<alignment>start-black</alignment>
					<effect>
						<name>Cross Fade (+3dB)</name>
						<effectid>KGAudioTransCrossFade3dB</effectid>
						<effecttype>transition</effecttype>
						<mediatype>audio</mediatype>
					</effect>
				</transitionitem>
				<clipitem id="fp02711_A.wav2">
					<name>fp02711_A.wav</name>
					<duration>4950</duration>
					<rate>
						<ntsc>TRUE</ntsc>
						<timebase>30</timebase>
					</rate>
					<in>179</in>
					<out>2235</out>
					<start>-1</start>
					<end>-1</end>
					<logginginfo>
						<scene/>
						<shottake/>
						<lognote/>
						<good>FALSE</good>
					</logginginfo>
					<labels>
						<label2/>
					</labels>
					<comments>
						<mastercomment1/>
						<mastercomment2/>
						<mastercomment3/>
						<mastercomment4/>
					</comments>
					<file id="fp02711_A"/>
					<filter>
						<effect>
							<name>Audio Levels</name>
							<effectid>audiolevels</effectid>
							<effectcategory>audiolevels</effectcategory>
							<effecttype>audiolevels</effecttype>
							<mediatype>audio</mediatype>
							<parameter>
								<name>Level</name>
								<parameterid>level</parameterid>
								<valuemin>0</valuemin>
								<valuemax>3.98109</valuemax>
								<value>0.251189</value>
							</parameter>
						</effect>
					</filter>
					<filter>
						<effect>
							<name>Audio Pan</name>
							<effectid>audiopan</effectid>
							<effectcategory>audiopan</effectcategory>
							<effecttype>audiopan</effecttype>
							<mediatype>audio</mediatype>
							<parameter>
								<name>Pan</name>
								<parameterid>pan</parameterid>
								<valuemin>-1</valuemin>
								<valuemax>1</valuemax>
								<value>1</value>
							</parameter>
						</effect>
					</filter>
					<sourcetrack>
						<mediatype>audio</mediatype>
						<trackindex>2</trackindex>
					</sourcetrack>
					<itemhistory>
						<uuid>3C61FE50-6430-433B-AF5C-4DE27023AF25</uuid>
					</itemhistory>
					<mixedratesoffset>1</mixedratesoffset>
				</clipitem>
				<transitionitem>
					<rate>
						<ntsc>TRUE</ntsc>
						<timebase>30</timebase>
					</rate>
					<start>76282</start>
					<end>76663</end>
					<alignment>end-black</alignment>
					<effect>
						<name>Cross Fade (+3dB)</name>
						<effectid>KGAudioTransCrossFade3dB</effectid>
						<effecttype>transition</effecttype>
						<mediatype>audio</mediatype>
					</effect>
				</transitionitem>
				<transitionitem>
					<rate>
						<ntsc>TRUE</ntsc>
						<timebase>30</timebase>
					</rate>
					<start>81993</start>
					<end>82191</end>
					<alignment>start-black</alignment>
					<effect>
						<name>Cross Fade (+3dB)</name>
						<effectid>KGAudioTransCrossFade3dB</effectid>
						<effecttype>transition</effecttype>
						<mediatype>audio</mediatype>
					</effect>
				</transitionitem>
				<clipitem id="ATMOS_268_15_Peaceful_Haze_Hawkins_449570.wav">
					<name>ATMOS_268_15_Peaceful_Haze_Hawkins_449570.wav</name>
					<duration>4087</duration>
					<rate>
						<ntsc>TRUE</ntsc>
						<timebase>30</timebase>
					</rate>
					<in>596</in>
					<out>2631</out>
					<start>-1</start>
					<end>-1</end>
					<logginginfo>
						<scene/>
						<shottake/>
						<lognote/>
						<good>FALSE</good>
					</logginginfo>
					<labels>
						<label2/>
					</labels>
					<comments>
						<mastercomment1/>
						<mastercomment2/>
						<mastercomment3/>
						<mastercomment4/>
					</comments>
					<file id="ATMOS_268_15_Peaceful_Haze_Hawkins_449570 ">
						<name>ATMOS_268_15_Peaceful_Haze_Hawkins_449570.wav</name>
						<pathurl>file://localhost/REMEMBERING_GENEVA_STEEL_COLOR/01_MEDIA/AUDIO/ATMOS_268_15_Peaceful_Haze_Hawkins_449570.wav</pathurl>
						<rate>
							<timebase>30</timebase>
							<ntsc>TRUE</ntsc>
						</rate>
						<duration>4087</duration>
						<media>
							<audio>
								<samplecharacteristics>
									<samplerate>44100</samplerate>
									<depth>16</depth>
								</samplecharacteristics>
								<channelcount>2</channelcount>
							</audio>
						</media>
					</file>
					<filter>
						<effect>
							<name>Audio Levels</name>
							<effectid>audiolevels</effectid>
							<effectcategory>audiolevels</effectcategory>
							<effecttype>audiolevels</effecttype>
							<mediatype>audio</mediatype>
							<parameter>
								<name>Level</name>
								<parameterid>level</parameterid>
								<valuemin>0</valuemin>
								<valuemax>3.98109</valuemax>
								<value>0.0446684</value>
							</parameter>
						</effect>
					</filter>
					<filter>
						<effect>
							<name>Audio Pan</name>
							<effectid>audiopan</effectid>
							<effectcategory>audiopan</effectcategory>
							<effecttype>audiopan</effecttype>
							<mediatype>audio</mediatype>
							<parameter>
								<name>Pan</name>
								<parameterid>pan</parameterid>
								<valuemin>-1</valuemin>
								<valuemax>1</valuemax>
								<value>1</value>
							</parameter>
						</effect>
					</filter>
					<sourcetrack>
						<mediatype>audio</mediatype>
						<trackindex>2</trackindex>
					</sourcetrack>
					<itemhistory>
						<uuid>B37B2C19-D804-45DC-B623-135C69AE03F5</uuid>
					</itemhistory>
					<mixedratesoffset>1</mixedratesoffset>
				</clipitem>
				<transitionitem>
					<rate>
						<ntsc>TRUE</ntsc>
						<timebase>30</timebase>
					</rate>
					<start>83725</start>
					<end>84028</end>
					<alignment>end-black</alignment>
					<effect>
						<name>Cross Fade (+3dB)</name>
						<effectid>KGAudioTransCrossFade3dB</effectid>
						<effecttype>transition</effecttype>
						<mediatype>audio</mediatype>
					</effect>
				</transitionitem>
				<transitionitem>
					<rate>
						<ntsc>TRUE</ntsc>
						<timebase>30</timebase>
					</rate>
					<start>90076</start>
					<end>90204</end>
					<alignment>start-black</alignment>
					<effect>
						<name>Cross Fade ( 0dB)</name>
						<effectid>KGAudioTransCrossFade0dB</effectid>
						<effecttype>transition</effecttype>
						<mediatype>audio</mediatype>
					</effect>
				</transitionitem>
				<clipitem id="02-Lets-Eat-Best-of-Times-D-AIFF 48/16.aiff">
					<name>02-Lets-Eat-Best-of-Times-D-AIFF 48/16.aiff</name>
					<duration>10217</duration>
					<rate>
						<ntsc>TRUE</ntsc>
						<timebase>30</timebase>
					</rate>
					<in>5759</in>
					<out>5955</out>
					<start>-1</start>
					<end>-1</end>
					<subframeoffset>0</subframeoffset>
					<logginginfo>
						<scene/>
						<shottake/>
						<lognote/>
						<good>FALSE</good>
					</logginginfo>
					<labels>
						<label2/>
					</labels>
					<comments>
						<mastercomment1/>
						<mastercomment2/>
						<mastercomment3/>
						<mastercomment4/>
					</comments>
					<file id="02-Lets-Eat-Best-of-Times-D-AIFF 48/16 ">
						<name>02-Lets-Eat-Best-of-Times-D-AIFF 48/16.aiff</name>
						<pathurl>file://localhost/REMEMBERING_GENEVA_STEEL_COLOR/01_MEDIA/AUDIO/02-Lets-Eat-Best-of-Times-D-AIFF%2048:16.aiff</pathurl>
						<rate>
							<timebase>30</timebase>
							<ntsc>TRUE</ntsc>
						</rate>
						<duration>10217</duration>
						<media>
							<audio>
								<samplecharacteristics>
									<samplerate>48000</samplerate>
									<depth>16</depth>
								</samplecharacteristics>
								<channelcount>2</channelcount>
							</audio>
						</media>
					</file>
					<filter>
						<effect>
							<name>Audio Levels</name>
							<effectid>audiolevels</effectid>
							<effectcategory>audiolevels</effectcategory>
							<effecttype>audiolevels</effecttype>
							<mediatype>audio</mediatype>
							<parameter>
								<name>Level</name>
								<parameterid>level</parameterid>
								<valuemin>0</valuemin>
								<valuemax>3.98109</valuemax>
								<keyframe>
									<when>7312</when>
									<value>0.0177828</value>
								</keyframe>
								<keyframe>
									<when>7379</when>
									<value>0.177828</value>
								</keyframe>
								<keyframe>
									<when>7482.75</when>
									<value>0.0446684</value>
								</keyframe>
								<interpolation>
									<name>FCPCurve</name>
								</interpolation>
								<value>1</value>
							</parameter>
						</effect>
					</filter>
					<filter>
						<effect>
							<name>Audio Pan</name>
							<effectid>audiopan</effectid>
							<effectcategory>audiopan</effectcategory>
							<effecttype>audiopan</effecttype>
							<mediatype>audio</mediatype>
							<parameter>
								<name>Pan</name>
								<parameterid>pan</parameterid>
								<valuemin>-1</valuemin>
								<valuemax>1</valuemax>
								<value>1</value>
							</parameter>
						</effect>
					</filter>
					<sourcetrack>
						<mediatype>audio</mediatype>
						<trackindex>2</trackindex>
					</sourcetrack>
					<itemhistory>
						<uuid>CD8030EA-36FB-49BA-9F7C-D3056943C107</uuid>
					</itemhistory>
					<mixedratesoffset>1</mixedratesoffset>
				</clipitem>
				<transitionitem>
					<rate>
						<ntsc>TRUE</ntsc>
						<timebase>30</timebase>
					</rate>
					<start>90242</start>
					<end>90272</end>
					<alignment>start</alignment>
					<effect>
						<name>Cross Fade (+3dB)</name>
						<effectid>KGAudioTransCrossFade3dB</effectid>
						<effecttype>transition</effecttype>
						<mediatype>audio</mediatype>
					</effect>
				</transitionitem>
				<clipitem id="02-Lets-Eat-Best-of-Times-D-AIFF 48/16.aiff1">
					<name>02-Lets-Eat-Best-of-Times-D-AIFF 48/16.aiff</name>
					<duration>10217</duration>
					<rate>
						<ntsc>TRUE</ntsc>
						<timebase>30</timebase>
					</rate>
					<in>7040</in>
					<out>7613</out>
					<start>-1</start>
					<end>-1</end>
					<subframeoffset>0</subframeoffset>
					<logginginfo>
						<scene/>
						<shottake/>
						<lognote/>
						<good>FALSE</good>
					</logginginfo>
					<labels>
						<label2/>
					</labels>
					<comments>
						<mastercomment1/>
						<mastercomment2/>
						<mastercomment3/>
						<mastercomment4/>
					</comments>
					<file id="02-Lets-Eat-Best-of-Times-D-AIFF 48/16 "/>
					<filter>
						<effect>
							<name>Audio Levels</name>
							<effectid>audiolevels</effectid>
							<effectcategory>audiolevels</effectcategory>
							<effecttype>audiolevels</effecttype>
							<mediatype>audio</mediatype>
							<parameter>
								<name>Level</name>
								<parameterid>level</parameterid>
								<valuemin>0</valuemin>
								<valuemax>3.98109</valuemax>
								<keyframe>
									<when>7157.36</when>
									<value>0.0251189</value>
								</keyframe>
								<keyframe>
									<when>7214</when>
									<value>0.0707946</value>
								</keyframe>
								<keyframe>
									<when>7315.59</when>
									<value>0.354813</value>
								</keyframe>
								<keyframe>
									<when>7401.46</when>
									<value>0.0446684</value>
								</keyframe>
								<interpolation>
									<name>FCPCurve</name>
								</interpolation>
								<value>1</value>
							</parameter>
						</effect>
					</filter>
					<filter>
						<effect>
							<name>Audio Pan</name>
							<effectid>audiopan</effectid>
							<effectcategory>audiopan</effectcategory>
							<effecttype>audiopan</effecttype>
							<mediatype>audio</mediatype>
							<parameter>
								<name>Pan</name>
								<parameterid>pan</parameterid>
								<valuemin>-1</valuemin>
								<valuemax>1</valuemax>
								<value>1</value>
							</parameter>
						</effect>
					</filter>
					<sourcetrack>
						<mediatype>audio</mediatype>
						<trackindex>2</trackindex>
					</sourcetrack>
					<itemhistory>
						<uuid>7165F696-0341-4974-BF64-2782DC07EE46</uuid>
					</itemhistory>
					<mixedratesoffset>1</mixedratesoffset>
				</clipitem>
				<transitionitem>
					<rate>
						<ntsc>TRUE</ntsc>
						<timebase>30</timebase>
					</rate>
					<start>90699</start>
					<end>90815</end>
					<alignment>end-black</alignment>
					<effect>
						<name>Cross Fade (+3dB)</name>
						<effectid>KGAudioTransCrossFade3dB</effectid>
						<effecttype>transition</effecttype>
						<mediatype>audio</mediatype>
					</effect>
				</transitionitem>
				<clipitem id="KT_227_6_Open_Decisions_Wilkerson_441438_A.wav1">
					<name>KT_227_6_Open_Decisions_Wilkerson_441438_A.wav</name>
					<duration>3483</duration>
					<rate>
						<ntsc>TRUE</ntsc>
						<timebase>30</timebase>
					</rate>
					<in>0</in>
					<out>2245</out>
					<start>96019</start>
					<end>-1</end>
					<logginginfo>
						<scene/>
						<shottake/>
						<lognote/>
						<good>FALSE</good>
					</logginginfo>
					<labels>
						<label2/>
					</labels>
					<comments>
						<mastercomment1/>
						<mastercomment2/>
						<mastercomment3/>
						<mastercomment4/>
					</comments>
					<file id="KT_227_6_Open_Decisions_Wilkerson_441438_A"/>
					<filter>
						<effect>
							<name>Audio Levels</name>
							<effectid>audiolevels</effectid>
							<effectcategory>audiolevels</effectcategory>
							<effecttype>audiolevels</effecttype>
							<mediatype>audio</mediatype>
							<parameter>
								<name>Level</name>
								<parameterid>level</parameterid>
								<valuemin>0</valuemin>
								<valuemax>3.98109</valuemax>
								<keyframe>
									<when>1598.54</when>
									<value>0.177828</value>
								</keyframe>
								<keyframe>
									<when>1889.64</when>
									<value>0.125893</value>
								</keyframe>
								<keyframe>
									<when>2245</when>
									<value>0.251189</value>
								</keyframe>
								<keyframe>
									<when>2272.68</when>
									<value>0.0446684</value>
								</keyframe>
								<interpolation>
									<name>FCPCurve</name>
								</interpolation>
								<value>1</value>
							</parameter>
						</effect>
					</filter>
					<filter>
						<effect>
							<name>Audio Pan</name>
							<effectid>audiopan</effectid>
							<effectcategory>audiopan</effectcategory>
							<effecttype>audiopan</effecttype>
							<mediatype>audio</mediatype>
							<parameter>
								<name>Pan</name>
								<parameterid>pan</parameterid>
								<valuemin>-1</valuemin>
								<valuemax>1</valuemax>
								<value>1</value>
							</parameter>
						</effect>
					</filter>
					<sourcetrack>
						<mediatype>audio</mediatype>
						<trackindex>2</trackindex>
					</sourcetrack>
					<itemhistory>
						<uuid>FE664E76-8238-41BC-8B64-B30208F79587</uuid>
					</itemhistory>
					<mixedratesoffset>1</mixedratesoffset>
				</clipitem>
				<transitionitem>
					<rate>
						<ntsc>TRUE</ntsc>
						<timebase>30</timebase>
					</rate>
					<start>98108</start>
					<end>98264</end>
					<alignment>end-black</alignment>
					<effect>
						<name>Cross Fade (+3dB)</name>
						<effectid>KGAudioTransCrossFade3dB</effectid>
						<effecttype>transition</effecttype>
						<mediatype>audio</mediatype>
					</effect>
				</transitionitem>
				<transitionitem>
					<rate>
						<ntsc>TRUE</ntsc>
						<timebase>30</timebase>
					</rate>
					<start>100111</start>
					<end>100186</end>
					<alignment>start-black</alignment>
					<effect>
						<name>Cross Fade ( 0dB)</name>
						<effectid>KGAudioTransCrossFade0dB</effectid>
						<effecttype>transition</effecttype>
						<mediatype>audio</mediatype>
					</effect>
				</transitionitem>
				<clipitem id="KT_227_10_Whole_New_Beginnings_Wilkerson_441452_A.wav">
					<name>KT_227_10_Whole_New_Beginnings_Wilkerson_441452_A.wav</name>
					<duration>2980</duration>
					<rate>
						<ntsc>TRUE</ntsc>
						<timebase>30</timebase>
					</rate>
					<in>217</in>
					<out>2136</out>
					<start>-1</start>
					<end>102030</end>
					<logginginfo>
						<scene/>
						<shottake/>
						<lognote/>
						<good>FALSE</good>
					</logginginfo>
					<labels>
						<label2/>
					</labels>
					<comments>
						<mastercomment1/>
						<mastercomment2/>
						<mastercomment3/>
						<mastercomment4/>
					</comments>
					<file id="KT_227_10_Whole_New_Beginnings_Wilkerson_441452_A">
						<name>KT_227_10_Whole_New_Beginnings_Wilkerson_441452_A.wav</name>
						<pathurl>file://localhost/REMEMBERING_GENEVA_STEEL_COLOR/01_MEDIA/AUDIO/KT_227_10_Whole_New_Beginnings_Wilkerson_441452_A.wav</pathurl>
						<rate>
							<timebase>30</timebase>
							<ntsc>TRUE</ntsc>
						</rate>
						<duration>2980</duration>
						<media>
							<audio>
								<samplecharacteristics>
									<samplerate>48000</samplerate>
									<depth>16</depth>
								</samplecharacteristics>
								<channelcount>2</channelcount>
							</audio>
						</media>
					</file>
					<filter>
						<effect>
							<name>Audio Levels</name>
							<effectid>audiolevels</effectid>
							<effectcategory>audiolevels</effectcategory>
							<effecttype>audiolevels</effecttype>
							<mediatype>audio</mediatype>
							<parameter>
								<name>Level</name>
								<parameterid>level</parameterid>
								<valuemin>0</valuemin>
								<valuemax>3.98109</valuemax>
								<keyframe>
									<when>603</when>
									<value>0.251189</value>
								</keyframe>
								<keyframe>
									<when>885.286</when>
									<value>0.125893</value>
								</keyframe>
								<interpolation>
									<name>FCPCurve</name>
								</interpolation>
								<value>1</value>
							</parameter>
						</effect>
					</filter>
					<filter>
						<effect>
							<name>Audio Pan</name>
							<effectid>audiopan</effectid>
							<effectcategory>audiopan</effectcategory>
							<effecttype>audiopan</effecttype>
							<mediatype>audio</mediatype>
							<parameter>
								<name>Pan</name>
								<parameterid>pan</parameterid>
								<valuemin>-1</valuemin>
								<valuemax>1</valuemax>
								<value>1</value>
							</parameter>
						</effect>
					</filter>
					<sourcetrack>
						<mediatype>audio</mediatype>
						<trackindex>2</trackindex>
					</sourcetrack>
					<itemhistory>
						<uuid>2348CF8C-60AF-4C5A-992F-660DEA88910E</uuid>
					</itemhistory>
					<mixedratesoffset>1</mixedratesoffset>
				</clipitem>
				<clipitem id="KT_227_10_Whole_New_Beginnings_Wilkerson_441452_A.wav1">
					<name>KT_227_10_Whole_New_Beginnings_Wilkerson_441452_A.wav</name>
					<duration>2980</duration>
					<rate>
						<ntsc>TRUE</ntsc>
						<timebase>30</timebase>
					</rate>
					<in>2136</in>
					<out>2848</out>
					<start>102030</start>
					<end>102742</end>
					<logginginfo>
						<scene/>
						<shottake/>
						<lognote/>
						<good>FALSE</good>
					</logginginfo>
					<labels>
						<label2/>
					</labels>
					<comments>
						<mastercomment1/>
						<mastercomment2/>
						<mastercomment3/>
						<mastercomment4/>
					</comments>
					<file id="KT_227_10_Whole_New_Beginnings_Wilkerson_441452_A"/>
					<filter>
						<effect>
							<name>Audio Levels</name>
							<effectid>audiolevels</effectid>
							<effectcategory>audiolevels</effectcategory>
							<effecttype>audiolevels</effecttype>
							<mediatype>audio</mediatype>
							<parameter>
								<name>Level</name>
								<parameterid>level</parameterid>
								<valuemin>0</valuemin>
								<valuemax>3.98109</valuemax>
								<keyframe>
									<when>768.714</when>
									<value>0.251189</value>
								</keyframe>
								<keyframe>
									<when>885.286</when>
									<value>0.125893</value>
								</keyframe>
								<interpolation>
									<name>FCPCurve</name>
								</interpolation>
								<value>1</value>
							</parameter>
						</effect>
					</filter>
					<filter>
						<effect>
							<name>Audio Pan</name>
							<effectid>audiopan</effectid>
							<effectcategory>audiopan</effectcategory>
							<effecttype>audiopan</effecttype>
							<mediatype>audio</mediatype>
							<parameter>
								<name>Pan</name>
								<parameterid>pan</parameterid>
								<valuemin>-1</valuemin>
								<valuemax>1</valuemax>
								<value>1</value>
							</parameter>
						</effect>
					</filter>
					<sourcetrack>
						<mediatype>audio</mediatype>
						<trackindex>2</trackindex>
					</sourcetrack>
					<itemhistory>
						<uuid>14DAA248-3958-48DB-B5CC-E86C4E00F746</uuid>
					</itemhistory>
					<mixedratesoffset>1</mixedratesoffset>
				</clipitem>
				<transitionitem>
					<rate>
						<ntsc>TRUE</ntsc>
						<timebase>30</timebase>
					</rate>
					<start>104658</start>
					<end>104936</end>
					<alignment>start-black</alignment>
					<effect>
						<name>Cross Fade (+3dB)</name>
						<effectid>KGAudioTransCrossFade3dB</effectid>
						<effecttype>transition</effecttype>
						<mediatype>audio</mediatype>
					</effect>
				</transitionitem>
				<clipitem id="KT_227_10_Whole_New_Beginnings_Wilkerson_441452_A.wav2">
					<name>KT_227_10_Whole_New_Beginnings_Wilkerson_441452_A.wav</name>
					<duration>2980</duration>
					<rate>
						<ntsc>TRUE</ntsc>
						<timebase>30</timebase>
					</rate>
					<in>330</in>
					<out>2697</out>
					<start>-1</start>
					<end>-1</end>
					<logginginfo>
						<scene/>
						<shottake/>
						<lognote/>
						<good>FALSE</good>
					</logginginfo>
					<labels>
						<label2/>
					</labels>
					<comments>
						<mastercomment1/>
						<mastercomment2/>
						<mastercomment3/>
						<mastercomment4/>
					</comments>
					<file id="KT_227_10_Whole_New_Beginnings_Wilkerson_441452_A"/>
					<filter>
						<effect>
							<name>Audio Levels</name>
							<effectid>audiolevels</effectid>
							<effectcategory>audiolevels</effectcategory>
							<effecttype>audiolevels</effecttype>
							<mediatype>audio</mediatype>
							<parameter>
								<name>Level</name>
								<parameterid>level</parameterid>
								<valuemin>0</valuemin>
								<valuemax>3.98109</valuemax>
								<keyframe>
									<when>768.714</when>
									<value>0.177828</value>
								</keyframe>
								<keyframe>
									<when>885.286</when>
									<value>0.125893</value>
								</keyframe>
								<interpolation>
									<name>FCPCurve</name>
								</interpolation>
								<value>1</value>
							</parameter>
						</effect>
					</filter>
					<filter>
						<effect>
							<name>Audio Pan</name>
							<effectid>audiopan</effectid>
							<effectcategory>audiopan</effectcategory>
							<effecttype>audiopan</effecttype>
							<mediatype>audio</mediatype>
							<parameter>
								<name>Pan</name>
								<parameterid>pan</parameterid>
								<valuemin>-1</valuemin>
								<valuemax>1</valuemax>
								<value>1</value>
							</parameter>
						</effect>
					</filter>
					<sourcetrack>
						<mediatype>audio</mediatype>
						<trackindex>2</trackindex>
					</sourcetrack>
					<itemhistory>
						<uuid>E8D238A9-5850-4A88-850A-5DD9D825D901</uuid>
					</itemhistory>
					<mixedratesoffset>1</mixedratesoffset>
				</clipitem>
				<transitionitem>
					<rate>
						<ntsc>TRUE</ntsc>
						<timebase>30</timebase>
					</rate>
					<start>106958</start>
					<end>107025</end>
					<alignment>end-black</alignment>
					<effect>
						<name>Cross Fade (+3dB)</name>
						<effectid>KGAudioTransCrossFade3dB</effectid>
						<effecttype>transition</effecttype>
						<mediatype>audio</mediatype>
					</effect>
				</transitionitem>
				<clipitem id="KT_206_16_Bayview_Bagley_375907 ">
					<name>KT_206_16_Bayview_Bagley_375907</name>
					<duration>4735</duration>
					<rate>
						<ntsc>TRUE</ntsc>
						<timebase>30</timebase>
					</rate>
					<in>0</in>
					<out>4735</out>
					<start>111925</start>
					<end>116660</end>
					<logginginfo>
						<scene/>
						<shottake/>
						<lognote/>
						<good>FALSE</good>
					</logginginfo>
					<labels>
						<label2/>
					</labels>
					<comments>
						<mastercomment1/>
						<mastercomment2/>
						<mastercomment3/>
						<mastercomment4/>
					</comments>
					<file id="KT_206_16_Bayview_Bagley_375907 1">
						<name>KT_206_16_Bayview_Bagley_375907.wav</name>
						<pathurl>file://localhost/REMEMBERING_GENEVA_STEEL_COLOR/01_MEDIA/AUDIO/KT_206_16_Bayview_Bagley_375907.wav</pathurl>
						<rate>
							<timebase>30</timebase>
							<ntsc>TRUE</ntsc>
						</rate>
						<duration>4735</duration>
						<media>
							<audio>
								<samplecharacteristics>
									<samplerate>44100</samplerate>
									<depth>16</depth>
								</samplecharacteristics>
								<channelcount>2</channelcount>
							</audio>
						</media>
					</file>
					<filter>
						<effect>
							<name>Audio Levels</name>
							<effectid>audiolevels</effectid>
							<effectcategory>audiolevels</effectcategory>
							<effecttype>audiolevels</effecttype>
							<mediatype>audio</mediatype>
							<parameter>
								<name>Level</name>
								<parameterid>level</parameterid>
								<valuemin>0</valuemin>
								<valuemax>3.98109</valuemax>
								<value>0.0446684</value>
							</parameter>
						</effect>
					</filter>
					<filter>
						<effect>
							<name>Audio Pan</name>
							<effectid>audiopan</effectid>
							<effectcategory>audiopan</effectcategory>
							<effecttype>audiopan</effecttype>
							<mediatype>audio</mediatype>
							<parameter>
								<name>Pan</name>
								<parameterid>pan</parameterid>
								<valuemin>-1</valuemin>
								<valuemax>1</valuemax>
								<value>1</value>
							</parameter>
						</effect>
					</filter>
					<sourcetrack>
						<mediatype>audio</mediatype>
						<trackindex>2</trackindex>
					</sourcetrack>
					<itemhistory>
						<uuid>0895F510-3299-4622-9841-82E8D550BC9C</uuid>
					</itemhistory>
					<mixedratesoffset>1</mixedratesoffset>
				</clipitem>
				<clipitem id="KT_227_11_Mesmerized_Housewives_Wilkerson_441456_A.wav3">
					<name>KT_227_11_Mesmerized_Housewives_Wilkerson_441456_A.wav</name>
					<duration>3563</duration>
					<rate>
						<ntsc>TRUE</ntsc>
						<timebase>30</timebase>
					</rate>
					<in>0</in>
					<out>2609</out>
					<start>121361</start>
					<end>-1</end>
					<logginginfo>
						<scene/>
						<shottake/>
						<lognote/>
						<good>FALSE</good>
					</logginginfo>
					<labels>
						<label2/>
					</labels>
					<comments>
						<mastercomment1/>
						<mastercomment2/>
						<mastercomment3/>
						<mastercomment4/>
					</comments>
					<file id="KT_227_11_Mesmerized_Housewives_Wilkerson_441456_A"/>
					<filter>
						<effect>
							<name>Audio Levels</name>
							<effectid>audiolevels</effectid>
							<effectcategory>audiolevels</effectcategory>
							<effecttype>audiolevels</effecttype>
							<mediatype>audio</mediatype>
							<parameter>
								<name>Level</name>
								<parameterid>level</parameterid>
								<valuemin>0</valuemin>
								<valuemax>3.98109</valuemax>
								<value>0.125893</value>
							</parameter>
						</effect>
					</filter>
					<filter>
						<effect>
							<name>Audio Pan</name>
							<effectid>audiopan</effectid>
							<effectcategory>audiopan</effectcategory>
							<effecttype>audiopan</effecttype>
							<mediatype>audio</mediatype>
							<parameter>
								<name>Pan</name>
								<parameterid>pan</parameterid>
								<valuemin>-1</valuemin>
								<valuemax>1</valuemax>
								<value>1</value>
							</parameter>
						</effect>
					</filter>
					<sourcetrack>
						<mediatype>audio</mediatype>
						<trackindex>2</trackindex>
					</sourcetrack>
					<itemhistory>
						<uuid>7CF0A584-15B5-463E-89F0-49D05E46BEF3</uuid>
					</itemhistory>
					<mixedratesoffset>1</mixedratesoffset>
				</clipitem>
				<transitionitem>
					<rate>
						<ntsc>TRUE</ntsc>
						<timebase>30</timebase>
					</rate>
					<start>123781</start>
					<end>123970</end>
					<alignment>end-black</alignment>
					<effect>
						<name>Cross Fade (+3dB)</name>
						<effectid>KGAudioTransCrossFade3dB</effectid>
						<effecttype>transition</effecttype>
						<mediatype>audio</mediatype>
					</effect>
				</transitionitem>
				<clipitem id="KT_227_12_Insistent_Rhythm_Wilkerson_441460_A.wav">
					<name>KT_227_12_Insistent_Rhythm_Wilkerson_441460_A.wav</name>
					<duration>2878</duration>
					<rate>
						<ntsc>TRUE</ntsc>
						<timebase>30</timebase>
					</rate>
					<in>0</in>
					<out>2629</out>
					<start>125089</start>
					<end>127718</end>
					<logginginfo>
						<scene/>
						<shottake/>
						<lognote/>
						<good>FALSE</good>
					</logginginfo>
					<labels>
						<label2/>
					</labels>
					<comments>
						<mastercomment1/>
						<mastercomment2/>
						<mastercomment3/>
						<mastercomment4/>
					</comments>
					<file id="KT_227_12_Insistent_Rhythm_Wilkerson_441460_A">
						<name>KT_227_12_Insistent_Rhythm_Wilkerson_441460_A.wav</name>
						<pathurl>file://localhost/REMEMBERING_GENEVA_STEEL_COLOR/01_MEDIA/AUDIO/KT_227_12_Insistent_Rhythm_Wilkerson_441460_A.wav</pathurl>
						<rate>
							<timebase>30</timebase>
							<ntsc>TRUE</ntsc>
						</rate>
						<duration>2878</duration>
						<media>
							<audio>
								<samplecharacteristics>
									<samplerate>48000</samplerate>
									<depth>16</depth>
								</samplecharacteristics>
								<channelcount>2</channelcount>
							</audio>
						</media>
					</file>
					<filter>
						<effect>
							<name>Audio Levels</name>
							<effectid>audiolevels</effectid>
							<effectcategory>audiolevels</effectcategory>
							<effecttype>audiolevels</effecttype>
							<mediatype>audio</mediatype>
							<parameter>
								<name>Level</name>
								<parameterid>level</parameterid>
								<valuemin>0</valuemin>
								<valuemax>3.98109</valuemax>
								<keyframe>
									<when>271.821</when>
									<value>0.0707946</value>
								</keyframe>
								<keyframe>
									<when>505</when>
									<value>0.125893</value>
								</keyframe>
								<keyframe>
									<when>1060.79</when>
									<value>0.125893</value>
								</keyframe>
								<keyframe>
									<when>1108.61</when>
									<value>0.354813</value>
								</keyframe>
								<keyframe>
									<when>1291.66</when>
									<value>0.354813</value>
								</keyframe>
								<keyframe>
									<when>1361.36</when>
									<value>0.177828</value>
								</keyframe>
								<interpolation>
									<name>FCPCurve</name>
								</interpolation>
								<value>1</value>
							</parameter>
						</effect>
					</filter>
					<filter>
						<effect>
							<name>Audio Pan</name>
							<effectid>audiopan</effectid>
							<effectcategory>audiopan</effectcategory>
							<effecttype>audiopan</effecttype>
							<mediatype>audio</mediatype>
							<parameter>
								<name>Pan</name>
								<parameterid>pan</parameterid>
								<valuemin>-1</valuemin>
								<valuemax>1</valuemax>
								<value>1</value>
							</parameter>
						</effect>
					</filter>
					<sourcetrack>
						<mediatype>audio</mediatype>
						<trackindex>2</trackindex>
					</sourcetrack>
					<itemhistory>
						<uuid>8B197012-D865-4816-8234-0A0A26F98AC9</uuid>
					</itemhistory>
					<mixedratesoffset>1</mixedratesoffset>
				</clipitem>
				<clipitem id="KT_227_12_Insistent_Rhythm_Wilkerson_441460_A.wav1">
					<name>KT_227_12_Insistent_Rhythm_Wilkerson_441460_A.wav</name>
					<duration>2878</duration>
					<rate>
						<ntsc>TRUE</ntsc>
						<timebase>30</timebase>
					</rate>
					<in>2629</in>
					<out>2878</out>
					<start>127718</start>
					<end>127967</end>
					<logginginfo>
						<scene/>
						<shottake/>
						<lognote/>
						<good>FALSE</good>
					</logginginfo>
					<labels>
						<label2/>
					</labels>
					<comments>
						<mastercomment1/>
						<mastercomment2/>
						<mastercomment3/>
						<mastercomment4/>
					</comments>
					<file id="KT_227_12_Insistent_Rhythm_Wilkerson_441460_A"/>
					<filter>
						<effect>
							<name>Audio Levels</name>
							<effectid>audiolevels</effectid>
							<effectcategory>audiolevels</effectcategory>
							<effecttype>audiolevels</effecttype>
							<mediatype>audio</mediatype>
							<parameter>
								<name>Level</name>
								<parameterid>level</parameterid>
								<valuemin>0</valuemin>
								<valuemax>3.98109</valuemax>
								<keyframe>
									<when>271.821</when>
									<value>0.0707946</value>
								</keyframe>
								<keyframe>
									<when>505</when>
									<value>0.125893</value>
								</keyframe>
								<keyframe>
									<when>1060.79</when>
									<value>0.125893</value>
								</keyframe>
								<keyframe>
									<when>1108.61</when>
									<value>0.354813</value>
								</keyframe>
								<keyframe>
									<when>1291.66</when>
									<value>0.354813</value>
								</keyframe>
								<keyframe>
									<when>1361.36</when>
									<value>0.177828</value>
								</keyframe>
								<interpolation>
									<name>FCPCurve</name>
								</interpolation>
								<value>1</value>
							</parameter>
						</effect>
					</filter>
					<filter>
						<effect>
							<name>Audio Pan</name>
							<effectid>audiopan</effectid>
							<effectcategory>audiopan</effectcategory>
							<effecttype>audiopan</effecttype>
							<mediatype>audio</mediatype>
							<parameter>
								<name>Pan</name>
								<parameterid>pan</parameterid>
								<valuemin>-1</valuemin>
								<valuemax>1</valuemax>
								<value>1</value>
							</parameter>
						</effect>
					</filter>
					<sourcetrack>
						<mediatype>audio</mediatype>
						<trackindex>2</trackindex>
					</sourcetrack>
					<itemhistory>
						<uuid>6A2E16B9-2CAE-4C5E-AD9D-4B132368E1BE</uuid>
					</itemhistory>
					<mixedratesoffset>1</mixedratesoffset>
				</clipitem>
				<transitionitem>
					<rate>
						<ntsc>TRUE</ntsc>
						<timebase>30</timebase>
					</rate>
					<start>128991</start>
					<end>129161</end>
					<alignment>start-black</alignment>
					<effect>
						<name>Cross Fade (+3dB)</name>
						<effectid>KGAudioTransCrossFade3dB</effectid>
						<effecttype>transition</effecttype>
						<mediatype>audio</mediatype>
					</effect>
				</transitionitem>
				<clipitem id="ATMOS_244_18_Enigmatic_Dawn_Britton_Goldsmith_408553.wav">
					<name>ATMOS_244_18_Enigmatic_Dawn_Britton_Goldsmith_408553.wav</name>
					<duration>3196</duration>
					<rate>
						<ntsc>TRUE</ntsc>
						<timebase>30</timebase>
					</rate>
					<in>0</in>
					<out>3196</out>
					<start>-1</start>
					<end>132187</end>
					<subframeoffset>0</subframeoffset>
					<logginginfo>
						<scene/>
						<shottake/>
						<lognote/>
						<good>FALSE</good>
					</logginginfo>
					<labels>
						<label2/>
					</labels>
					<comments>
						<mastercomment1/>
						<mastercomment2/>
						<mastercomment3/>
						<mastercomment4/>
					</comments>
					<file id="ATMOS_244_18_Enigmatic_Dawn_Britton_Goldsmith_408553 ">
						<name>ATMOS_244_18_Enigmatic_Dawn_Britton_Goldsmith_408553.wav</name>
						<pathurl>file://localhost/REMEMBERING_GENEVA_STEEL_COLOR/01_MEDIA/AUDIO/ATMOS_244_18_Enigmatic_Dawn_Britton_Goldsmith_408553.wav</pathurl>
						<rate>
							<timebase>30</timebase>
							<ntsc>TRUE</ntsc>
						</rate>
						<duration>3196</duration>
						<media>
							<audio>
								<samplecharacteristics>
									<samplerate>44100</samplerate>
									<depth>16</depth>
								</samplecharacteristics>
								<channelcount>2</channelcount>
							</audio>
						</media>
					</file>
					<filter>
						<effect>
							<name>Audio Levels</name>
							<effectid>audiolevels</effectid>
							<effectcategory>audiolevels</effectcategory>
							<effecttype>audiolevels</effecttype>
							<mediatype>audio</mediatype>
							<parameter>
								<name>Level</name>
								<parameterid>level</parameterid>
								<valuemin>0</valuemin>
								<valuemax>3.98109</valuemax>
								<value>0.316228</value>
							</parameter>
						</effect>
					</filter>
					<filter>
						<effect>
							<name>Audio Pan</name>
							<effectid>audiopan</effectid>
							<effectcategory>audiopan</effectcategory>
							<effecttype>audiopan</effecttype>
							<mediatype>audio</mediatype>
							<parameter>
								<name>Pan</name>
								<parameterid>pan</parameterid>
								<valuemin>-1</valuemin>
								<valuemax>1</valuemax>
								<value>1</value>
							</parameter>
						</effect>
					</filter>
					<sourcetrack>
						<mediatype>audio</mediatype>
						<trackindex>2</trackindex>
					</sourcetrack>
					<itemhistory>
						<uuid>D9E20BC0-A40B-43BD-81A1-73569AA0AB28</uuid>
					</itemhistory>
					<mixedratesoffset>1</mixedratesoffset>
				</clipitem>
				<transitionitem>
					<rate>
						<ntsc>TRUE</ntsc>
						<timebase>30</timebase>
					</rate>
					<start>133019</start>
					<end>133283</end>
					<alignment>start-black</alignment>
					<effect>
						<name>Cross Fade (+3dB)</name>
						<effectid>KGAudioTransCrossFade3dB</effectid>
						<effecttype>transition</effecttype>
						<mediatype>audio</mediatype>
					</effect>
				</transitionitem>
				<clipitem id="KT_227_6_Open_Decisions_Wilkerson_441438_A.wav2">
					<name>KT_227_6_Open_Decisions_Wilkerson_441438_A.wav</name>
					<duration>3483</duration>
					<rate>
						<ntsc>TRUE</ntsc>
						<timebase>30</timebase>
					</rate>
					<in>0</in>
					<out>3483</out>
					<start>-1</start>
					<end>136502</end>
					<logginginfo>
						<scene/>
						<shottake/>
						<lognote/>
						<good>FALSE</good>
					</logginginfo>
					<labels>
						<label2/>
					</labels>
					<comments>
						<mastercomment1/>
						<mastercomment2/>
						<mastercomment3/>
						<mastercomment4/>
					</comments>
					<file id="KT_227_6_Open_Decisions_Wilkerson_441438_A"/>
					<filter>
						<effect>
							<name>Audio Levels</name>
							<effectid>audiolevels</effectid>
							<effectcategory>audiolevels</effectcategory>
							<effecttype>audiolevels</effecttype>
							<mediatype>audio</mediatype>
							<parameter>
								<name>Level</name>
								<parameterid>level</parameterid>
								<valuemin>0</valuemin>
								<valuemax>3.98109</valuemax>
								<keyframe>
									<when>1853.58</when>
									<value>0.177828</value>
								</keyframe>
								<keyframe>
									<when>1913.76</when>
									<value>0.0707946</value>
								</keyframe>
								<interpolation>
									<name>FCPCurve</name>
								</interpolation>
								<value>1</value>
							</parameter>
						</effect>
					</filter>
					<filter>
						<effect>
							<name>Audio Pan</name>
							<effectid>audiopan</effectid>
							<effectcategory>audiopan</effectcategory>
							<effecttype>audiopan</effecttype>
							<mediatype>audio</mediatype>
							<parameter>
								<name>Pan</name>
								<parameterid>pan</parameterid>
								<valuemin>-1</valuemin>
								<valuemax>1</valuemax>
								<value>1</value>
							</parameter>
						</effect>
					</filter>
					<sourcetrack>
						<mediatype>audio</mediatype>
						<trackindex>2</trackindex>
					</sourcetrack>
					<itemhistory>
						<uuid>A068409B-3FE0-4BDD-AE3E-8AAFE8A9D7B9</uuid>
					</itemhistory>
					<mixedratesoffset>1</mixedratesoffset>
				</clipitem>
				<transitionitem>
					<rate>
						<ntsc>TRUE</ntsc>
						<timebase>30</timebase>
					</rate>
					<start>137471</start>
					<end>137682</end>
					<alignment>start-black</alignment>
					<effect>
						<name>Cross Fade (+3dB)</name>
						<effectid>KGAudioTransCrossFade3dB</effectid>
						<effecttype>transition</effecttype>
						<mediatype>audio</mediatype>
					</effect>
				</transitionitem>
				<clipitem id="KT_227_10_Whole_New_Beginnings_Wilkerson_441452_A.wav3">
					<name>KT_227_10_Whole_New_Beginnings_Wilkerson_441452_A.wav</name>
					<duration>2980</duration>
					<rate>
						<ntsc>TRUE</ntsc>
						<timebase>30</timebase>
					</rate>
					<in>0</in>
					<out>1259</out>
					<start>-1</start>
					<end>-1</end>
					<logginginfo>
						<scene/>
						<shottake/>
						<lognote/>
						<good>FALSE</good>
					</logginginfo>
					<labels>
						<label2/>
					</labels>
					<comments>
						<mastercomment1/>
						<mastercomment2/>
						<mastercomment3/>
						<mastercomment4/>
					</comments>
					<file id="KT_227_10_Whole_New_Beginnings_Wilkerson_441452_A"/>
					<filter>
						<effect>
							<name>Audio Levels</name>
							<effectid>audiolevels</effectid>
							<effectcategory>audiolevels</effectcategory>
							<effecttype>audiolevels</effecttype>
							<mediatype>audio</mediatype>
							<parameter>
								<name>Level</name>
								<parameterid>level</parameterid>
								<valuemin>0</valuemin>
								<valuemax>3.98109</valuemax>
								<value>0.177828</value>
							</parameter>
						</effect>
					</filter>
					<filter>
						<effect>
							<name>Audio Pan</name>
							<effectid>audiopan</effectid>
							<effectcategory>audiopan</effectcategory>
							<effecttype>audiopan</effecttype>
							<mediatype>audio</mediatype>
							<parameter>
								<name>Pan</name>
								<parameterid>pan</parameterid>
								<valuemin>-1</valuemin>
								<valuemax>1</valuemax>
								<value>1</value>
							</parameter>
						</effect>
					</filter>
					<sourcetrack>
						<mediatype>audio</mediatype>
						<trackindex>2</trackindex>
					</sourcetrack>
					<itemhistory>
						<uuid>6C5B6A49-EF31-4AD4-BCAC-B9490A99EE67</uuid>
					</itemhistory>
					<mixedratesoffset>1</mixedratesoffset>
				</clipitem>
				<transitionitem>
					<rate>
						<ntsc>TRUE</ntsc>
						<timebase>30</timebase>
					</rate>
					<start>138520</start>
					<end>138730</end>
					<alignment>end-black</alignment>
					<effect>
						<name>Cross Fade (+3dB)</name>
						<effectid>KGAudioTransCrossFade3dB</effectid>
						<effecttype>transition</effecttype>
						<mediatype>audio</mediatype>
					</effect>
				</transitionitem>
				<clipitem id="KT_227_1_Buoys_Wilkerson_441420_A.wav">
					<name>KT_227_1_Buoys_Wilkerson_441420_A.wav</name>
					<duration>3577</duration>
					<rate>
						<ntsc>TRUE</ntsc>
						<timebase>30</timebase>
					</rate>
					<in>0</in>
					<out>744</out>
					<start>138888</start>
					<end>139632</end>
					<subframeoffset>0</subframeoffset>
					<logginginfo>
						<scene/>
						<shottake/>
						<lognote/>
						<good>FALSE</good>
					</logginginfo>
					<labels>
						<label2/>
					</labels>
					<comments>
						<mastercomment1/>
						<mastercomment2/>
						<mastercomment3/>
						<mastercomment4/>
					</comments>
					<file id="KT_227_1_Buoys_Wilkerson_441420_A">
						<name>KT_227_1_Buoys_Wilkerson_441420_A.wav</name>
						<pathurl>file://localhost/REMEMBERING_GENEVA_STEEL_COLOR/01_MEDIA/AUDIO/KT_227_1_Buoys_Wilkerson_441420_A.wav</pathurl>
						<rate>
							<timebase>30</timebase>
							<ntsc>TRUE</ntsc>
						</rate>
						<duration>3577</duration>
						<media>
							<audio>
								<samplecharacteristics>
									<samplerate>48000</samplerate>
									<depth>16</depth>
								</samplecharacteristics>
								<channelcount>2</channelcount>
							</audio>
						</media>
					</file>
					<filter>
						<effect>
							<name>Audio Levels</name>
							<effectid>audiolevels</effectid>
							<effectcategory>audiolevels</effectcategory>
							<effecttype>audiolevels</effecttype>
							<mediatype>audio</mediatype>
							<parameter>
								<name>Level</name>
								<parameterid>level</parameterid>
								<valuemin>0</valuemin>
								<valuemax>3.98109</valuemax>
								<keyframe>
									<when>219.089</when>
									<value>1</value>
								</keyframe>
								<keyframe>
									<when>319.161</when>
									<value>0.446684</value>
								</keyframe>
								<keyframe>
									<when>1566.01</when>
									<value>0.446684</value>
								</keyframe>
								<keyframe>
									<when>1740.79</when>
									<value>0.630957</value>
								</keyframe>
								<keyframe>
									<when>1945.32</when>
									<value>0.707946</value>
								</keyframe>
								<keyframe>
									<when>1999.53</when>
									<value>0.446684</value>
								</keyframe>
								<keyframe>
									<when>2132.96</when>
									<value>0.446684</value>
								</keyframe>
								<keyframe>
									<when>2200</when>
									<value>0.630957</value>
								</keyframe>
								<keyframe>
									<when>2342.79</when>
									<value>0.630957</value>
								</keyframe>
								<keyframe>
									<when>2560.29</when>
									<value>0.630957</value>
								</keyframe>
								<keyframe>
									<when>2727.3</when>
									<value>0.354813</value>
								</keyframe>
								<interpolation>
									<name>FCPCurve</name>
								</interpolation>
								<value>1</value>
							</parameter>
						</effect>
					</filter>
					<filter>
						<effect>
							<name>Audio Pan</name>
							<effectid>audiopan</effectid>
							<effectcategory>audiopan</effectcategory>
							<effecttype>audiopan</effecttype>
							<mediatype>audio</mediatype>
							<parameter>
								<name>Pan</name>
								<parameterid>pan</parameterid>
								<valuemin>-1</valuemin>
								<valuemax>1</valuemax>
								<value>1</value>
							</parameter>
						</effect>
					</filter>
					<sourcetrack>
						<mediatype>audio</mediatype>
						<trackindex>1</trackindex>
					</sourcetrack>
					<itemhistory>
						<uuid>7DEB5D19-9EC4-4A1F-89BD-86797E414694</uuid>
					</itemhistory>
					<mixedratesoffset>1</mixedratesoffset>
				</clipitem>
				<clipitem id="KT_227_1_Buoys_Wilkerson_441420_A.wav1">
					<name>KT_227_1_Buoys_Wilkerson_441420_A.wav</name>
					<duration>3577</duration>
					<rate>
						<ntsc>TRUE</ntsc>
						<timebase>30</timebase>
					</rate>
					<in>744</in>
					<out>3577</out>
					<start>139632</start>
					<end>-1</end>
					<subframeoffset>0</subframeoffset>
					<logginginfo>
						<scene/>
						<shottake/>
						<lognote/>
						<good>FALSE</good>
					</logginginfo>
					<labels>
						<label2/>
					</labels>
					<comments>
						<mastercomment1/>
						<mastercomment2/>
						<mastercomment3/>
						<mastercomment4/>
					</comments>
					<file id="KT_227_1_Buoys_Wilkerson_441420_A"/>
					<filter>
						<effect>
							<name>Audio Levels</name>
							<effectid>audiolevels</effectid>
							<effectcategory>audiolevels</effectcategory>
							<effecttype>audiolevels</effecttype>
							<mediatype>audio</mediatype>
							<parameter>
								<name>Level</name>
								<parameterid>level</parameterid>
								<valuemin>0</valuemin>
								<valuemax>3.98109</valuemax>
								<keyframe>
									<when>219.089</when>
									<value>1</value>
								</keyframe>
								<keyframe>
									<when>319.161</when>
									<value>0.446684</value>
								</keyframe>
								<keyframe>
									<when>1566.01</when>
									<value>0.446684</value>
								</keyframe>
								<keyframe>
									<when>1740.79</when>
									<value>0.630957</value>
								</keyframe>
								<keyframe>
									<when>1945.32</when>
									<value>0.707946</value>
								</keyframe>
								<keyframe>
									<when>1999.53</when>
									<value>0.446684</value>
								</keyframe>
								<keyframe>
									<when>2132.96</when>
									<value>0.446684</value>
								</keyframe>
								<keyframe>
									<when>2200</when>
									<value>0.630957</value>
								</keyframe>
								<keyframe>
									<when>2342.79</when>
									<value>0.630957</value>
								</keyframe>
								<keyframe>
									<when>2560.29</when>
									<value>0.630957</value>
								</keyframe>
								<keyframe>
									<when>2727.3</when>
									<value>0.354813</value>
								</keyframe>
								<interpolation>
									<name>FCPCurve</name>
								</interpolation>
								<value>1</value>
							</parameter>
						</effect>
					</filter>
					<filter>
						<effect>
							<name>Audio Pan</name>
							<effectid>audiopan</effectid>
							<effectcategory>audiopan</effectcategory>
							<effecttype>audiopan</effecttype>
							<mediatype>audio</mediatype>
							<parameter>
								<name>Pan</name>
								<parameterid>pan</parameterid>
								<valuemin>-1</valuemin>
								<valuemax>1</valuemax>
								<value>1</value>
							</parameter>
						</effect>
					</filter>
					<sourcetrack>
						<mediatype>audio</mediatype>
						<trackindex>1</trackindex>
					</sourcetrack>
					<itemhistory>
						<uuid>7BAD5F85-E684-40FF-A9DD-0EC614F0B947</uuid>
					</itemhistory>
					<mixedratesoffset>1</mixedratesoffset>
				</clipitem>
				<transitionitem>
					<rate>
						<ntsc>TRUE</ntsc>
						<timebase>30</timebase>
					</rate>
					<start>142141</start>
					<end>142465</end>
					<alignment>end-black</alignment>
					<effect>
						<name>Cross Fade (+3dB)</name>
						<effectid>KGAudioTransCrossFade3dB</effectid>
						<effecttype>transition</effecttype>
						<mediatype>audio</mediatype>
					</effect>
				</transitionitem>
				<clipitem id="KT_218_11_Grave_Indeed_Oldman_416868.wav">
					<name>KT_218_11_Grave_Indeed_Oldman_416868.wav</name>
					<duration>2857</duration>
					<rate>
						<ntsc>TRUE</ntsc>
						<timebase>30</timebase>
					</rate>
					<in>0</in>
					<out>2857</out>
					<start>144072</start>
					<end>-1</end>
					<subframeoffset>0</subframeoffset>
					<logginginfo>
						<scene/>
						<shottake/>
						<lognote/>
						<good>FALSE</good>
					</logginginfo>
					<labels>
						<label2/>
					</labels>
					<comments>
						<mastercomment1/>
						<mastercomment2/>
						<mastercomment3/>
						<mastercomment4/>
					</comments>
					<file id="KT_218_11_Grave_Indeed_Oldman_416868 ">
						<name>KT_218_11_Grave_Indeed_Oldman_416868.wav</name>
						<pathurl>file://localhost/REMEMBERING_GENEVA_STEEL_COLOR/01_MEDIA/AUDIO/KT_218_11_Grave_Indeed_Oldman_416868.wav</pathurl>
						<rate>
							<timebase>30</timebase>
							<ntsc>TRUE</ntsc>
						</rate>
						<duration>2857</duration>
						<media>
							<audio>
								<samplecharacteristics>
									<samplerate>44100</samplerate>
									<depth>16</depth>
								</samplecharacteristics>
								<channelcount>2</channelcount>
							</audio>
						</media>
					</file>
					<filter>
						<effect>
							<name>Audio Levels</name>
							<effectid>audiolevels</effectid>
							<effectcategory>audiolevels</effectcategory>
							<effecttype>audiolevels</effecttype>
							<mediatype>audio</mediatype>
							<parameter>
								<name>Level</name>
								<parameterid>level</parameterid>
								<valuemin>0</valuemin>
								<valuemax>3.98109</valuemax>
								<value>0.251189</value>
							</parameter>
						</effect>
					</filter>
					<filter>
						<effect>
							<name>Audio Pan</name>
							<effectid>audiopan</effectid>
							<effectcategory>audiopan</effectcategory>
							<effecttype>audiopan</effecttype>
							<mediatype>audio</mediatype>
							<parameter>
								<name>Pan</name>
								<parameterid>pan</parameterid>
								<valuemin>-1</valuemin>
								<valuemax>1</valuemax>
								<value>1</value>
							</parameter>
						</effect>
					</filter>
					<sourcetrack>
						<mediatype>audio</mediatype>
						<trackindex>2</trackindex>
					</sourcetrack>
					<itemhistory>
						<uuid>199226FC-E14E-40C1-9B15-427553CCEC2C</uuid>
					</itemhistory>
					<mixedratesoffset>1</mixedratesoffset>
				</clipitem>
				<transitionitem>
					<rate>
						<ntsc>TRUE</ntsc>
						<timebase>30</timebase>
					</rate>
					<start>146621</start>
					<end>146929</end>
					<alignment>end-black</alignment>
					<effect>
						<name>Cross Fade (+3dB)</name>
						<effectid>KGAudioTransCrossFade3dB</effectid>
						<effecttype>transition</effecttype>
						<mediatype>audio</mediatype>
					</effect>
				</transitionitem>
				<transitionitem>
					<rate>
						<ntsc>TRUE</ntsc>
						<timebase>30</timebase>
					</rate>
					<start>147702</start>
					<end>147732</end>
					<alignment>start-black</alignment>
					<effect>
						<name>Cross Fade (+3dB)</name>
						<effectid>KGAudioTransCrossFade3dB</effectid>
						<effecttype>transition</effecttype>
						<mediatype>audio</mediatype>
					</effect>
				</transitionitem>
				<clipitem id="KT_218_11_Grave_Indeed_Oldman_416868.wav1">
					<name>KT_218_11_Grave_Indeed_Oldman_416868.wav</name>
					<duration>2857</duration>
					<rate>
						<ntsc>TRUE</ntsc>
						<timebase>30</timebase>
					</rate>
					<in>0</in>
					<out>2857</out>
					<start>-1</start>
					<end>-1</end>
					<subframeoffset>0</subframeoffset>
					<logginginfo>
						<scene/>
						<shottake/>
						<lognote/>
						<good>FALSE</good>
					</logginginfo>
					<labels>
						<label2/>
					</labels>
					<comments>
						<mastercomment1/>
						<mastercomment2/>
						<mastercomment3/>
						<mastercomment4/>
					</comments>
					<file id="KT_218_11_Grave_Indeed_Oldman_416868 "/>
					<filter>
						<effect>
							<name>Audio Levels</name>
							<effectid>audiolevels</effectid>
							<effectcategory>audiolevels</effectcategory>
							<effecttype>audiolevels</effecttype>
							<mediatype>audio</mediatype>
							<parameter>
								<name>Level</name>
								<parameterid>level</parameterid>
								<valuemin>0</valuemin>
								<valuemax>3.98109</valuemax>
								<value>0.251189</value>
							</parameter>
						</effect>
					</filter>
					<filter>
						<effect>
							<name>Audio Pan</name>
							<effectid>audiopan</effectid>
							<effectcategory>audiopan</effectcategory>
							<effecttype>audiopan</effecttype>
							<mediatype>audio</mediatype>
							<parameter>
								<name>Pan</name>
								<parameterid>pan</parameterid>
								<valuemin>-1</valuemin>
								<valuemax>1</valuemax>
								<value>1</value>
							</parameter>
						</effect>
					</filter>
					<sourcetrack>
						<mediatype>audio</mediatype>
						<trackindex>2</trackindex>
					</sourcetrack>
					<itemhistory>
						<uuid>4B028D78-0A4E-4F21-A2C5-364AED467AEF</uuid>
					</itemhistory>
					<mixedratesoffset>1</mixedratesoffset>
				</clipitem>
				<transitionitem>
					<rate>
						<ntsc>TRUE</ntsc>
						<timebase>30</timebase>
					</rate>
					<start>150446</start>
					<end>150559</end>
					<alignment>end-black</alignment>
					<effect>
						<name>Cross Fade (+3dB)</name>
						<effectid>KGAudioTransCrossFade3dB</effectid>
						<effecttype>transition</effecttype>
						<mediatype>audio</mediatype>
					</effect>
				</transitionitem>
				<enabled>TRUE</enabled>
				<locked>FALSE</locked>
				<outputchannelindex>1</outputchannelindex>
			</track>
			<track>
				<clipitem id="Slug2">
					<name>Slug</name>
					<duration>7201</duration>
					<rate>
						<ntsc>TRUE</ntsc>
						<timebase>30</timebase>
					</rate>
					<in>1800</in>
					<out>2040</out>
					<start>0</start>
					<end>240</end>
					<logginginfo>
						<scene/>
						<shottake/>
						<lognote/>
						<good>FALSE</good>
					</logginginfo>
					<labels>
						<label2/>
					</labels>
					<comments>
						<mastercomment1/>
						<mastercomment2/>
						<mastercomment3/>
						<mastercomment4/>
					</comments>
					<file id="Slug1"/>
					<filter>
						<effect>
							<name>Audio Levels</name>
							<effectid>audiolevels</effectid>
							<effectcategory>audiolevels</effectcategory>
							<effecttype>audiolevels</effecttype>
							<mediatype>audio</mediatype>
							<parameter>
								<name>Level</name>
								<parameterid>level</parameterid>
								<valuemin>0</valuemin>
								<valuemax>3.98109</valuemax>
								<value>1</value>
							</parameter>
						</effect>
					</filter>
					<filter>
						<effect>
							<name>Audio Pan</name>
							<effectid>audiopan</effectid>
							<effectcategory>audiopan</effectcategory>
							<effecttype>audiopan</effecttype>
							<mediatype>audio</mediatype>
							<parameter>
								<name>Pan</name>
								<parameterid>pan</parameterid>
								<valuemin>-1</valuemin>
								<valuemax>1</valuemax>
								<value>-1</value>
							</parameter>
						</effect>
					</filter>
					<sourcetrack>
						<mediatype>audio</mediatype>
						<trackindex>1</trackindex>
					</sourcetrack>
					<itemhistory>
						<uuid>9CDBD9E6-D184-4504-AD15-9781CB806618</uuid>
						<uuid>2EAD7D69-A7EA-42CA-AA32-2B2963C24F26</uuid>
					</itemhistory>
					<mixedratesoffset>1</mixedratesoffset>
				</clipitem>
				<clipitem id="Bars and Tone (NTSC)2">
					<name>Bars and Tone (NTSC)</name>
					<duration>7201</duration>
					<rate>
						<ntsc>FALSE</ntsc>
						<timebase>30</timebase>
					</rate>
					<in>1800</in>
					<out>1801</out>
					<start>240</start>
					<end>241</end>
					<logginginfo>
						<scene/>
						<shottake/>
						<lognote/>
						<good>FALSE</good>
					</logginginfo>
					<labels>
						<label2/>
					</labels>
					<comments>
						<mastercomment1/>
						<mastercomment2/>
						<mastercomment3/>
						<mastercomment4/>
					</comments>
					<file id="Bars and Tone (NTSC)1"/>
					<filter>
						<effect>
							<name>Audio Levels</name>
							<effectid>audiolevels</effectid>
							<effectcategory>audiolevels</effectcategory>
							<effecttype>audiolevels</effecttype>
							<mediatype>audio</mediatype>
							<parameter>
								<name>Level</name>
								<parameterid>level</parameterid>
								<valuemin>0</valuemin>
								<valuemax>3.98109</valuemax>
								<value>0.2513</value>
							</parameter>
						</effect>
					</filter>
					<filter>
						<effect>
							<name>Audio Pan</name>
							<effectid>audiopan</effectid>
							<effectcategory>audiopan</effectcategory>
							<effecttype>audiopan</effecttype>
							<mediatype>audio</mediatype>
							<parameter>
								<name>Pan</name>
								<parameterid>pan</parameterid>
								<valuemin>-1</valuemin>
								<valuemax>1</valuemax>
								<value>-1</value>
							</parameter>
						</effect>
					</filter>
					<sourcetrack>
						<mediatype>audio</mediatype>
						<trackindex>1</trackindex>
					</sourcetrack>
					<itemhistory>
						<uuid>D3BB5491-D8ED-4CBC-95CA-F1A0619FCC34</uuid>
						<uuid>331CFC09-5210-429B-A33A-34379119EC19</uuid>
					</itemhistory>
					<mixedratesoffset>1</mixedratesoffset>
				</clipitem>
				<transitionitem>
					<rate>
						<ntsc>TRUE</ntsc>
						<timebase>30</timebase>
					</rate>
					<start>5409</start>
					<end>5439</end>
					<alignment>start-black</alignment>
					<effect>
						<name>Cross Fade (+3dB)</name>
						<effectid>KGAudioTransCrossFade3dB</effectid>
						<effecttype>transition</effecttype>
						<mediatype>audio</mediatype>
					</effect>
				</transitionitem>
				<clipitem id="KT_227_10_Whole_New_Beginnings_Wilkerson_441452_A.wav4">
					<name>KT_227_10_Whole_New_Beginnings_Wilkerson_441452_A.wav</name>
					<duration>2980</duration>
					<rate>
						<ntsc>TRUE</ntsc>
						<timebase>30</timebase>
					</rate>
					<in>210</in>
					<out>717</out>
					<start>-1</start>
					<end>-1</end>
					<subframeoffset>0</subframeoffset>
					<logginginfo>
						<scene/>
						<shottake/>
						<lognote/>
						<good>FALSE</good>
					</logginginfo>
					<labels>
						<label2/>
					</labels>
					<comments>
						<mastercomment1/>
						<mastercomment2/>
						<mastercomment3/>
						<mastercomment4/>
					</comments>
					<file id="KT_227_10_Whole_New_Beginnings_Wilkerson_441452_A"/>
					<filter>
						<effect>
							<name>Audio Levels</name>
							<effectid>audiolevels</effectid>
							<effectcategory>audiolevels</effectcategory>
							<effecttype>audiolevels</effecttype>
							<mediatype>audio</mediatype>
							<parameter>
								<name>Level</name>
								<parameterid>level</parameterid>
								<valuemin>0</valuemin>
								<valuemax>3.98109</valuemax>
								<value>0.0707946</value>
							</parameter>
						</effect>
					</filter>
					<filter>
						<effect>
							<name>Audio Pan</name>
							<effectid>audiopan</effectid>
							<effectcategory>audiopan</effectcategory>
							<effecttype>audiopan</effecttype>
							<mediatype>audio</mediatype>
							<parameter>
								<name>Pan</name>
								<parameterid>pan</parameterid>
								<valuemin>-1</valuemin>
								<valuemax>1</valuemax>
								<value>1</value>
							</parameter>
						</effect>
					</filter>
					<sourcetrack>
						<mediatype>audio</mediatype>
						<trackindex>2</trackindex>
					</sourcetrack>
					<itemhistory>
						<uuid>9C6BF25A-C5B5-43F1-91C1-542388D734D8</uuid>
					</itemhistory>
					<mixedratesoffset>1</mixedratesoffset>
				</clipitem>
				<transitionitem>
					<rate>
						<ntsc>TRUE</ntsc>
						<timebase>30</timebase>
					</rate>
					<start>5886</start>
					<end>5916</end>
					<alignment>end-black</alignment>
					<effect>
						<name>Cross Fade (+3dB)</name>
						<effectid>KGAudioTransCrossFade3dB</effectid>
						<effecttype>transition</effecttype>
						<mediatype>audio</mediatype>
					</effect>
				</transitionitem>
				<clipitem id="KT_227_6_Open_Decisions_Wilkerson_441438_A.wav3">
					<name>KT_227_6_Open_Decisions_Wilkerson_441438_A.wav</name>
					<duration>3483</duration>
					<rate>
						<ntsc>TRUE</ntsc>
						<timebase>30</timebase>
					</rate>
					<in>0</in>
					<out>1346</out>
					<start>7761</start>
					<end>-1</end>
					<logginginfo>
						<scene/>
						<shottake/>
						<lognote/>
						<good>FALSE</good>
					</logginginfo>
					<labels>
						<label2/>
					</labels>
					<comments>
						<mastercomment1/>
						<mastercomment2/>
						<mastercomment3/>
						<mastercomment4/>
					</comments>
					<file id="KT_227_6_Open_Decisions_Wilkerson_441438_A"/>
					<filter>
						<effect>
							<name>Audio Levels</name>
							<effectid>audiolevels</effectid>
							<effectcategory>audiolevels</effectcategory>
							<effecttype>audiolevels</effecttype>
							<mediatype>audio</mediatype>
							<parameter>
								<name>Level</name>
								<parameterid>level</parameterid>
								<valuemin>0</valuemin>
								<valuemax>3.98109</valuemax>
								<keyframe>
									<when>429.116</when>
									<value>1</value>
								</keyframe>
								<keyframe>
									<when>558.946</when>
									<value>0.794328</value>
								</keyframe>
								<interpolation>
									<name>FCPCurve</name>
								</interpolation>
								<value>1</value>
							</parameter>
						</effect>
					</filter>
					<filter>
						<effect>
							<name>Audio Pan</name>
							<effectid>audiopan</effectid>
							<effectcategory>audiopan</effectcategory>
							<effecttype>audiopan</effecttype>
							<mediatype>audio</mediatype>
							<parameter>
								<name>Pan</name>
								<parameterid>pan</parameterid>
								<valuemin>-1</valuemin>
								<valuemax>1</valuemax>
								<value>1</value>
							</parameter>
						</effect>
					</filter>
					<sourcetrack>
						<mediatype>audio</mediatype>
						<trackindex>2</trackindex>
					</sourcetrack>
					<itemhistory>
						<uuid>8A5E4572-FCBC-4A12-BC1E-20A7279BFBE7</uuid>
					</itemhistory>
					<mixedratesoffset>1</mixedratesoffset>
				</clipitem>
				<transitionitem>
					<rate>
						<ntsc>TRUE</ntsc>
						<timebase>30</timebase>
					</rate>
					<start>8546</start>
					<end>9107</end>
					<alignment>end-black</alignment>
					<effect>
						<name>Cross Fade (+3dB)</name>
						<effectid>KGAudioTransCrossFade3dB</effectid>
						<effecttype>transition</effecttype>
						<mediatype>audio</mediatype>
					</effect>
				</transitionitem>
				<clipitem id="KT_227_10_Whole_New_Beginnings_Wilkerson_441452_A.wav5">
					<name>KT_227_10_Whole_New_Beginnings_Wilkerson_441452_A.wav</name>
					<duration>2980</duration>
					<rate>
						<ntsc>TRUE</ntsc>
						<timebase>30</timebase>
					</rate>
					<in>998</in>
					<out>2829</out>
					<start>9251</start>
					<end>11082</end>
					<logginginfo>
						<scene/>
						<shottake/>
						<lognote/>
						<good>FALSE</good>
					</logginginfo>
					<labels>
						<label2/>
					</labels>
					<comments>
						<mastercomment1/>
						<mastercomment2/>
						<mastercomment3/>
						<mastercomment4/>
					</comments>
					<file id="KT_227_10_Whole_New_Beginnings_Wilkerson_441452_A"/>
					<filter>
						<effect>
							<name>Audio Levels</name>
							<effectid>audiolevels</effectid>
							<effectcategory>audiolevels</effectcategory>
							<effecttype>audiolevels</effecttype>
							<mediatype>audio</mediatype>
							<parameter>
								<name>Level</name>
								<parameterid>level</parameterid>
								<valuemin>0</valuemin>
								<valuemax>3.98109</valuemax>
								<keyframe>
									<when>277.625</when>
									<value>0.794328</value>
								</keyframe>
								<keyframe>
									<when>960.304</when>
									<value>0.220539</value>
								</keyframe>
								<interpolation>
									<name>FCPCurve</name>
								</interpolation>
								<value>1</value>
							</parameter>
						</effect>
					</filter>
					<filter>
						<effect>
							<name>Audio Pan</name>
							<effectid>audiopan</effectid>
							<effectcategory>audiopan</effectcategory>
							<effecttype>audiopan</effecttype>
							<mediatype>audio</mediatype>
							<parameter>
								<name>Pan</name>
								<parameterid>pan</parameterid>
								<valuemin>-1</valuemin>
								<valuemax>1</valuemax>
								<value>1</value>
							</parameter>
						</effect>
					</filter>
					<sourcetrack>
						<mediatype>audio</mediatype>
						<trackindex>2</trackindex>
					</sourcetrack>
					<itemhistory>
						<uuid>ED3B1603-FE19-4D66-9838-71E32DE8EDDE</uuid>
					</itemhistory>
					<mixedratesoffset>1</mixedratesoffset>
				</clipitem>
				<clipitem id="02-Lets-Eat-Best-of-Times-D.wav">
					<name>02-Lets-Eat-Best-of-Times-D.wav</name>
					<duration>10206</duration>
					<rate>
						<ntsc>TRUE</ntsc>
						<timebase>30</timebase>
					</rate>
					<in>0</in>
					<out>10206</out>
					<start>11121</start>
					<end>21327</end>
					<logginginfo>
						<scene/>
						<shottake/>
						<lognote/>
						<good>FALSE</good>
					</logginginfo>
					<labels>
						<label2/>
					</labels>
					<comments>
						<mastercomment1/>
						<mastercomment2/>
						<mastercomment3/>
						<mastercomment4/>
					</comments>
					<file id="02-Lets-Eat-Best-of-Times-D">
						<name>02-Lets-Eat-Best-of-Times-D.wav</name>
						<pathurl>file://localhost/REMEMBERING_GENEVA_STEEL_COLOR/01_MEDIA/AUDIO/02-Lets-Eat-Best-of-Times-D.wav</pathurl>
						<rate>
							<timebase>30</timebase>
							<ntsc>TRUE</ntsc>
						</rate>
						<duration>10206</duration>
						<media>
							<audio>
								<samplecharacteristics>
									<samplerate>44100</samplerate>
									<depth>24</depth>
								</samplecharacteristics>
								<channelcount>2</channelcount>
							</audio>
						</media>
					</file>
					<filter>
						<effect>
							<name>Audio Levels</name>
							<effectid>audiolevels</effectid>
							<effectcategory>audiolevels</effectcategory>
							<effecttype>audiolevels</effecttype>
							<mediatype>audio</mediatype>
							<parameter>
								<name>Level</name>
								<parameterid>level</parameterid>
								<valuemin>0</valuemin>
								<valuemax>3.98109</valuemax>
								<value>0.177828</value>
							</parameter>
						</effect>
					</filter>
					<filter>
						<effect>
							<name>Audio Pan</name>
							<effectid>audiopan</effectid>
							<effectcategory>audiopan</effectcategory>
							<effecttype>audiopan</effecttype>
							<mediatype>audio</mediatype>
							<parameter>
								<name>Pan</name>
								<parameterid>pan</parameterid>
								<valuemin>-1</valuemin>
								<valuemax>1</valuemax>
								<value>1</value>
							</parameter>
						</effect>
					</filter>
					<sourcetrack>
						<mediatype>audio</mediatype>
						<trackindex>2</trackindex>
					</sourcetrack>
					<itemhistory>
						<uuid>B15549ED-D147-4C56-B502-AF2BB3914279</uuid>
					</itemhistory>
					<mixedratesoffset>1</mixedratesoffset>
				</clipitem>
				<clipitem id="KOK_2319_1_Counterparts_Dubois_453247.wav">
					<name>KOK_2319_1_Counterparts_Dubois_453247.wav</name>
					<duration>4533</duration>
					<rate>
						<ntsc>TRUE</ntsc>
						<timebase>30</timebase>
					</rate>
					<in>0</in>
					<out>2914</out>
					<start>25595</start>
					<end>-1</end>
					<logginginfo>
						<scene/>
						<shottake/>
						<lognote/>
						<good>FALSE</good>
					</logginginfo>
					<labels>
						<label2/>
					</labels>
					<comments>
						<mastercomment1/>
						<mastercomment2/>
						<mastercomment3/>
						<mastercomment4/>
					</comments>
					<file id="KOK_2319_1_Counterparts_Dubois_453247 ">
						<name>KOK_2319_1_Counterparts_Dubois_453247.wav</name>
						<pathurl>file://localhost/REMEMBERING_GENEVA_STEEL_COLOR/01_MEDIA/AUDIO/KOK_2319_1_Counterparts_Dubois_453247.wav</pathurl>
						<rate>
							<timebase>30</timebase>
							<ntsc>TRUE</ntsc>
						</rate>
						<duration>4533</duration>
						<media>
							<audio>
								<samplecharacteristics>
									<samplerate>44100</samplerate>
									<depth>16</depth>
								</samplecharacteristics>
								<channelcount>2</channelcount>
							</audio>
						</media>
					</file>
					<marker>
						<name>Marker 1</name>
						<comment/>
						<color>
							<alpha>0</alpha>
							<red>255</red>
							<green>0</green>
							<blue>0</blue>
						</color>
						<in>2429</in>
						<out>-1</out>
					</marker>
					<filter>
						<effect>
							<name>Audio Levels</name>
							<effectid>audiolevels</effectid>
							<effectcategory>audiolevels</effectcategory>
							<effecttype>audiolevels</effecttype>
							<mediatype>audio</mediatype>
							<parameter>
								<name>Level</name>
								<parameterid>level</parameterid>
								<valuemin>0</valuemin>
								<valuemax>3.98109</valuemax>
								<value>0.0446684</value>
							</parameter>
						</effect>
					</filter>
					<filter>
						<effect>
							<name>Audio Pan</name>
							<effectid>audiopan</effectid>
							<effectcategory>audiopan</effectcategory>
							<effecttype>audiopan</effecttype>
							<mediatype>audio</mediatype>
							<parameter>
								<name>Pan</name>
								<parameterid>pan</parameterid>
								<valuemin>-1</valuemin>
								<valuemax>1</valuemax>
								<value>1</value>
							</parameter>
						</effect>
					</filter>
					<sourcetrack>
						<mediatype>audio</mediatype>
						<trackindex>2</trackindex>
					</sourcetrack>
					<itemhistory>
						<uuid>A31EAA84-BD8C-4625-986B-AE3875D487B7</uuid>
					</itemhistory>
					<mixedratesoffset>1</mixedratesoffset>
				</clipitem>
				<transitionitem>
					<rate>
						<ntsc>TRUE</ntsc>
						<timebase>30</timebase>
					</rate>
					<start>28427</start>
					<end>28509</end>
					<alignment>end</alignment>
					<effect>
						<name>Cross Fade (+3dB)</name>
						<effectid>KGAudioTransCrossFade3dB</effectid>
						<effecttype>transition</effecttype>
						<mediatype>audio</mediatype>
					</effect>
				</transitionitem>
				<clipitem id="KOK_2319_1_Counterparts_Dubois_453247.wav1">
					<name>KOK_2319_1_Counterparts_Dubois_453247.wav</name>
					<duration>4533</duration>
					<rate>
						<ntsc>TRUE</ntsc>
						<timebase>30</timebase>
					</rate>
					<in>3914</in>
					<out>4299</out>
					<start>-1</start>
					<end>-1</end>
					<subframeoffset>0</subframeoffset>
					<logginginfo>
						<scene/>
						<shottake/>
						<lognote/>
						<good>FALSE</good>
					</logginginfo>
					<labels>
						<label2/>
					</labels>
					<comments>
						<mastercomment1/>
						<mastercomment2/>
						<mastercomment3/>
						<mastercomment4/>
					</comments>
					<file id="KOK_2319_1_Counterparts_Dubois_453247 "/>
					<filter>
						<effect>
							<name>Audio Levels</name>
							<effectid>audiolevels</effectid>
							<effectcategory>audiolevels</effectcategory>
							<effecttype>audiolevels</effecttype>
							<mediatype>audio</mediatype>
							<parameter>
								<name>Level</name>
								<parameterid>level</parameterid>
								<valuemin>0</valuemin>
								<valuemax>3.98109</valuemax>
								<value>0.1</value>
							</parameter>
						</effect>
					</filter>
					<filter>
						<effect>
							<name>Audio Pan</name>
							<effectid>audiopan</effectid>
							<effectcategory>audiopan</effectcategory>
							<effecttype>audiopan</effecttype>
							<mediatype>audio</mediatype>
							<parameter>
								<name>Pan</name>
								<parameterid>pan</parameterid>
								<valuemin>-1</valuemin>
								<valuemax>1</valuemax>
								<value>1</value>
							</parameter>
						</effect>
					</filter>
					<sourcetrack>
						<mediatype>audio</mediatype>
						<trackindex>2</trackindex>
					</sourcetrack>
					<itemhistory>
						<uuid>AA2E08B7-5C66-417A-8113-EBB73A05C138</uuid>
					</itemhistory>
					<mixedratesoffset>1</mixedratesoffset>
				</clipitem>
				<transitionitem>
					<rate>
						<ntsc>TRUE</ntsc>
						<timebase>30</timebase>
					</rate>
					<start>28744</start>
					<end>28812</end>
					<alignment>end-black</alignment>
					<effect>
						<name>Cross Fade (+3dB)</name>
						<effectid>KGAudioTransCrossFade3dB</effectid>
						<effecttype>transition</effecttype>
						<mediatype>audio</mediatype>
					</effect>
				</transitionitem>
				<clipitem id="cdm0109.wav">
					<name>cdm0109.wav</name>
					<duration>5312</duration>
					<rate>
						<ntsc>TRUE</ntsc>
						<timebase>30</timebase>
					</rate>
					<in>0</in>
					<out>1045</out>
					<start>31647</start>
					<end>-1</end>
					<subframeoffset>0</subframeoffset>
					<logginginfo>
						<scene/>
						<shottake/>
						<lognote/>
						<good>FALSE</good>
					</logginginfo>
					<labels>
						<label2/>
					</labels>
					<comments>
						<mastercomment1/>
						<mastercomment2/>
						<mastercomment3/>
						<mastercomment4/>
					</comments>
					<file id="cdm0109 ">
						<name>cdm0109.wav</name>
						<pathurl>file://localhost/REMEMBERING_GENEVA_STEEL_COLOR/01_MEDIA/AUDIO/cdm0109.wav</pathurl>
						<rate>
							<timebase>30</timebase>
							<ntsc>TRUE</ntsc>
						</rate>
						<duration>5312</duration>
						<timecode>
							<rate>
								<timebase>30</timebase>
								<ntsc>TRUE</ntsc>
							</rate>
							<string>00:00:00:00</string>
							<frame>0</frame>
							<displayformat>NDF</displayformat>
							<source>source</source>
						</timecode>
						<media>
							<audio>
								<samplecharacteristics>
									<samplerate>48000</samplerate>
									<depth>16</depth>
								</samplecharacteristics>
								<channelcount>2</channelcount>
							</audio>
						</media>
					</file>
					<filter>
						<effect>
							<name>Audio Levels</name>
							<effectid>audiolevels</effectid>
							<effectcategory>audiolevels</effectcategory>
							<effecttype>audiolevels</effecttype>
							<mediatype>audio</mediatype>
							<parameter>
								<name>Level</name>
								<parameterid>level</parameterid>
								<valuemin>0</valuemin>
								<valuemax>3.98109</valuemax>
								<value>0.177828</value>
							</parameter>
						</effect>
					</filter>
					<filter>
						<effect>
							<name>Audio Pan</name>
							<effectid>audiopan</effectid>
							<effectcategory>audiopan</effectcategory>
							<effecttype>audiopan</effecttype>
							<mediatype>audio</mediatype>
							<parameter>
								<name>Pan</name>
								<parameterid>pan</parameterid>
								<valuemin>-1</valuemin>
								<valuemax>1</valuemax>
								<value>1</value>
							</parameter>
						</effect>
					</filter>
					<sourcetrack>
						<mediatype>audio</mediatype>
						<trackindex>2</trackindex>
					</sourcetrack>
					<itemhistory>
						<uuid>3F11C84D-E94A-4517-94B8-87ECF75658C8</uuid>
					</itemhistory>
					<mixedratesoffset>1</mixedratesoffset>
				</clipitem>
				<transitionitem>
					<rate>
						<ntsc>TRUE</ntsc>
						<timebase>30</timebase>
					</rate>
					<start>32470</start>
					<end>32692</end>
					<alignment>end-black</alignment>
					<effect>
						<name>Cross Fade (+3dB)</name>
						<effectid>KGAudioTransCrossFade3dB</effectid>
						<effecttype>transition</effecttype>
						<mediatype>audio</mediatype>
					</effect>
				</transitionitem>
				<clipitem id="KOK_2319_20_Early_Departure_Ravel_Chapuis_453266.wav">
					<name>KOK_2319_20_Early_Departure_Ravel_Chapuis_453266.wav</name>
					<duration>3626</duration>
					<rate>
						<ntsc>TRUE</ntsc>
						<timebase>30</timebase>
					</rate>
					<in>0</in>
					<out>2604</out>
					<start>38239</start>
					<end>-1</end>
					<subframeoffset>0</subframeoffset>
					<logginginfo>
						<scene/>
						<shottake/>
						<lognote/>
						<good>FALSE</good>
					</logginginfo>
					<labels>
						<label2/>
					</labels>
					<comments>
						<mastercomment1/>
						<mastercomment2/>
						<mastercomment3/>
						<mastercomment4/>
					</comments>
					<file id="KOK_2319_20_Early_Departure_Ravel_Chapuis_453266 ">
						<name>KOK_2319_20_Early_Departure_Ravel_Chapuis_453266.wav</name>
						<pathurl>file://localhost/REMEMBERING_GENEVA_STEEL_COLOR/01_MEDIA/AUDIO/KOK_2319_20_Early_Departure_Ravel_Chapuis_453266.wav</pathurl>
						<rate>
							<timebase>30</timebase>
							<ntsc>TRUE</ntsc>
						</rate>
						<duration>3626</duration>
						<media>
							<audio>
								<samplecharacteristics>
									<samplerate>44100</samplerate>
									<depth>16</depth>
								</samplecharacteristics>
								<channelcount>2</channelcount>
							</audio>
						</media>
					</file>
					<filter>
						<effect>
							<name>Audio Levels</name>
							<effectid>audiolevels</effectid>
							<effectcategory>audiolevels</effectcategory>
							<effecttype>audiolevels</effecttype>
							<mediatype>audio</mediatype>
							<parameter>
								<name>Level</name>
								<parameterid>level</parameterid>
								<valuemin>0</valuemin>
								<valuemax>3.98109</valuemax>
								<keyframe>
									<when>647</when>
									<value>0.199526</value>
								</keyframe>
								<keyframe>
									<when>685</when>
									<value>0.125893</value>
								</keyframe>
								<interpolation>
									<name>FCPCurve</name>
								</interpolation>
								<value>1</value>
							</parameter>
						</effect>
					</filter>
					<filter>
						<effect>
							<name>Audio Pan</name>
							<effectid>audiopan</effectid>
							<effectcategory>audiopan</effectcategory>
							<effecttype>audiopan</effecttype>
							<mediatype>audio</mediatype>
							<parameter>
								<name>Pan</name>
								<parameterid>pan</parameterid>
								<valuemin>-1</valuemin>
								<valuemax>1</valuemax>
								<value>1</value>
							</parameter>
						</effect>
					</filter>
					<sourcetrack>
						<mediatype>audio</mediatype>
						<trackindex>2</trackindex>
					</sourcetrack>
					<itemhistory>
						<uuid>85E9838F-F9AD-4306-9CEE-9731B2235414</uuid>
					</itemhistory>
					<mixedratesoffset>1</mixedratesoffset>
				</clipitem>
				<transitionitem>
					<rate>
						<ntsc>TRUE</ntsc>
						<timebase>30</timebase>
					</rate>
					<start>40813</start>
					<end>40843</end>
					<alignment>start</alignment>
					<effect>
						<name>Cross Fade (+3dB)</name>
						<effectid>KGAudioTransCrossFade3dB</effectid>
						<effecttype>transition</effecttype>
						<mediatype>audio</mediatype>
					</effect>
				</transitionitem>
				<clipitem id="KOK_2319_20_Early_Departure_Ravel_Chapuis_453266.wav1">
					<name>KOK_2319_20_Early_Departure_Ravel_Chapuis_453266.wav</name>
					<duration>3626</duration>
					<rate>
						<ntsc>TRUE</ntsc>
						<timebase>30</timebase>
					</rate>
					<in>1934</in>
					<out>3626</out>
					<start>-1</start>
					<end>42505</end>
					<subframeoffset>0</subframeoffset>
					<logginginfo>
						<scene/>
						<shottake/>
						<lognote/>
						<good>FALSE</good>
					</logginginfo>
					<labels>
						<label2/>
					</labels>
					<comments>
						<mastercomment1/>
						<mastercomment2/>
						<mastercomment3/>
						<mastercomment4/>
					</comments>
					<file id="KOK_2319_20_Early_Departure_Ravel_Chapuis_453266 "/>
					<filter>
						<effect>
							<name>Audio Levels</name>
							<effectid>audiolevels</effectid>
							<effectcategory>audiolevels</effectcategory>
							<effecttype>audiolevels</effecttype>
							<mediatype>audio</mediatype>
							<parameter>
								<name>Level</name>
								<parameterid>level</parameterid>
								<valuemin>0</valuemin>
								<valuemax>3.98109</valuemax>
								<keyframe>
									<when>647</when>
									<value>0.199526</value>
								</keyframe>
								<keyframe>
									<when>685</when>
									<value>0.125893</value>
								</keyframe>
								<interpolation>
									<name>FCPCurve</name>
								</interpolation>
								<value>1</value>
							</parameter>
						</effect>
					</filter>
					<filter>
						<effect>
							<name>Audio Pan</name>
							<effectid>audiopan</effectid>
							<effectcategory>audiopan</effectcategory>
							<effecttype>audiopan</effecttype>
							<mediatype>audio</mediatype>
							<parameter>
								<name>Pan</name>
								<parameterid>pan</parameterid>
								<valuemin>-1</valuemin>
								<valuemax>1</valuemax>
								<value>1</value>
							</parameter>
						</effect>
					</filter>
					<sourcetrack>
						<mediatype>audio</mediatype>
						<trackindex>2</trackindex>
					</sourcetrack>
					<itemhistory>
						<uuid>D67E1B03-9DD5-465B-83FF-2BAB5DE561B0</uuid>
					</itemhistory>
					<mixedratesoffset>1</mixedratesoffset>
				</clipitem>
				<clipitem id="04-Getting-Work-Friendship-C.wav">
					<name>04-Getting-Work-Friendship-C.wav</name>
					<duration>12493</duration>
					<rate>
						<ntsc>TRUE</ntsc>
						<timebase>30</timebase>
					</rate>
					<in>0</in>
					<out>12493</out>
					<start>42947</start>
					<end>55440</end>
					<logginginfo>
						<scene/>
						<shottake/>
						<lognote/>
						<good>FALSE</good>
					</logginginfo>
					<labels>
						<label2/>
					</labels>
					<comments>
						<mastercomment1/>
						<mastercomment2/>
						<mastercomment3/>
						<mastercomment4/>
					</comments>
					<file id="04-Getting-Work-Friendship-C">
						<name>04-Getting-Work-Friendship-C.wav</name>
						<pathurl>file://localhost/REMEMBERING_GENEVA_STEEL_COLOR/01_MEDIA/AUDIO/04-Getting-Work-Friendship-C.wav</pathurl>
						<rate>
							<timebase>30</timebase>
							<ntsc>TRUE</ntsc>
						</rate>
						<duration>12493</duration>
						<media>
							<audio>
								<samplecharacteristics>
									<samplerate>44100</samplerate>
									<depth>24</depth>
								</samplecharacteristics>
								<channelcount>2</channelcount>
							</audio>
						</media>
					</file>
					<filter>
						<effect>
							<name>Audio Levels</name>
							<effectid>audiolevels</effectid>
							<effectcategory>audiolevels</effectcategory>
							<effecttype>audiolevels</effecttype>
							<mediatype>audio</mediatype>
							<parameter>
								<name>Level</name>
								<parameterid>level</parameterid>
								<valuemin>0</valuemin>
								<valuemax>3.98109</valuemax>
								<value>0.125893</value>
							</parameter>
						</effect>
					</filter>
					<filter>
						<effect>
							<name>Audio Pan</name>
							<effectid>audiopan</effectid>
							<effectcategory>audiopan</effectcategory>
							<effecttype>audiopan</effecttype>
							<mediatype>audio</mediatype>
							<parameter>
								<name>Pan</name>
								<parameterid>pan</parameterid>
								<valuemin>-1</valuemin>
								<valuemax>1</valuemax>
								<value>1</value>
							</parameter>
						</effect>
					</filter>
					<sourcetrack>
						<mediatype>audio</mediatype>
						<trackindex>2</trackindex>
					</sourcetrack>
					<itemhistory>
						<uuid>5F076338-16CC-45A6-8213-0F78A674C90E</uuid>
					</itemhistory>
					<mixedratesoffset>1</mixedratesoffset>
				</clipitem>
				<transitionitem>
					<rate>
						<ntsc>TRUE</ntsc>
						<timebase>30</timebase>
					</rate>
					<start>67129</start>
					<end>67175</end>
					<alignment>start-black</alignment>
					<effect>
						<name>Cross Fade (+3dB)</name>
						<effectid>KGAudioTransCrossFade3dB</effectid>
						<effecttype>transition</effecttype>
						<mediatype>audio</mediatype>
					</effect>
				</transitionitem>
				<clipitem id="fp02711_A.wav3">
					<name>fp02711_A.wav</name>
					<duration>4950</duration>
					<rate>
						<ntsc>TRUE</ntsc>
						<timebase>30</timebase>
					</rate>
					<in>261</in>
					<out>1688</out>
					<start>-1</start>
					<end>-1</end>
					<logginginfo>
						<scene/>
						<shottake/>
						<lognote/>
						<good>FALSE</good>
					</logginginfo>
					<labels>
						<label2/>
					</labels>
					<comments>
						<mastercomment1/>
						<mastercomment2/>
						<mastercomment3/>
						<mastercomment4/>
					</comments>
					<file id="fp02711_A"/>
					<filter>
						<effect>
							<name>Audio Levels</name>
							<effectid>audiolevels</effectid>
							<effectcategory>audiolevels</effectcategory>
							<effecttype>audiolevels</effecttype>
							<mediatype>audio</mediatype>
							<parameter>
								<name>Level</name>
								<parameterid>level</parameterid>
								<valuemin>0</valuemin>
								<valuemax>3.98109</valuemax>
								<value>0.354813</value>
							</parameter>
						</effect>
					</filter>
					<filter>
						<effect>
							<name>Audio Pan</name>
							<effectid>audiopan</effectid>
							<effectcategory>audiopan</effectcategory>
							<effecttype>audiopan</effecttype>
							<mediatype>audio</mediatype>
							<parameter>
								<name>Pan</name>
								<parameterid>pan</parameterid>
								<valuemin>-1</valuemin>
								<valuemax>1</valuemax>
								<value>1</value>
							</parameter>
						</effect>
					</filter>
					<sourcetrack>
						<mediatype>audio</mediatype>
						<trackindex>2</trackindex>
					</sourcetrack>
					<itemhistory>
						<uuid>2DEF2C3A-C1E1-4E76-8B32-4441EC7402F8</uuid>
					</itemhistory>
					<mixedratesoffset>1</mixedratesoffset>
				</clipitem>
				<transitionitem>
					<rate>
						<ntsc>TRUE</ntsc>
						<timebase>30</timebase>
					</rate>
					<start>68371</start>
					<end>68556</end>
					<alignment>end-black</alignment>
					<effect>
						<name>Cross Fade ( 0dB)</name>
						<effectid>KGAudioTransCrossFade0dB</effectid>
						<effecttype>transition</effecttype>
						<mediatype>audio</mediatype>
					</effect>
				</transitionitem>
				<transitionitem>
					<rate>
						<ntsc>TRUE</ntsc>
						<timebase>30</timebase>
					</rate>
					<start>70250</start>
					<end>70471</end>
					<alignment>start-black</alignment>
					<effect>
						<name>Cross Fade ( 0dB)</name>
						<effectid>KGAudioTransCrossFade0dB</effectid>
						<effecttype>transition</effecttype>
						<mediatype>audio</mediatype>
					</effect>
				</transitionitem>
				<clipitem id="fp02711_A.wav4">
					<name>fp02711_A.wav</name>
					<duration>4950</duration>
					<rate>
						<ntsc>TRUE</ntsc>
						<timebase>30</timebase>
					</rate>
					<in>691</in>
					<out>2009</out>
					<start>-1</start>
					<end>-1</end>
					<logginginfo>
						<scene/>
						<shottake/>
						<lognote/>
						<good>FALSE</good>
					</logginginfo>
					<labels>
						<label2/>
					</labels>
					<comments>
						<mastercomment1/>
						<mastercomment2/>
						<mastercomment3/>
						<mastercomment4/>
					</comments>
					<file id="fp02711_A"/>
					<filter>
						<effect>
							<name>Audio Levels</name>
							<effectid>audiolevels</effectid>
							<effectcategory>audiolevels</effectcategory>
							<effecttype>audiolevels</effecttype>
							<mediatype>audio</mediatype>
							<parameter>
								<name>Level</name>
								<parameterid>level</parameterid>
								<valuemin>0</valuemin>
								<valuemax>3.98109</valuemax>
								<value>0.199526</value>
							</parameter>
						</effect>
					</filter>
					<filter>
						<effect>
							<name>Audio Pan</name>
							<effectid>audiopan</effectid>
							<effectcategory>audiopan</effectcategory>
							<effecttype>audiopan</effecttype>
							<mediatype>audio</mediatype>
							<parameter>
								<name>Pan</name>
								<parameterid>pan</parameterid>
								<valuemin>-1</valuemin>
								<valuemax>1</valuemax>
								<value>1</value>
							</parameter>
						</effect>
					</filter>
					<sourcetrack>
						<mediatype>audio</mediatype>
						<trackindex>2</trackindex>
					</sourcetrack>
					<itemhistory>
						<uuid>7074E73C-B84F-41DC-A201-5994A2FE4159</uuid>
					</itemhistory>
					<mixedratesoffset>1</mixedratesoffset>
				</clipitem>
				<transitionitem>
					<rate>
						<ntsc>TRUE</ntsc>
						<timebase>30</timebase>
					</rate>
					<start>71316</start>
					<end>71568</end>
					<alignment>end-black</alignment>
					<effect>
						<name>Cross Fade (+3dB)</name>
						<effectid>KGAudioTransCrossFade3dB</effectid>
						<effecttype>transition</effecttype>
						<mediatype>audio</mediatype>
					</effect>
				</transitionitem>
				<clipitem id="fp02711_A.wav5">
					<name>fp02711_A.wav</name>
					<duration>4950</duration>
					<rate>
						<ntsc>TRUE</ntsc>
						<timebase>30</timebase>
					</rate>
					<in>0</in>
					<out>1803</out>
					<start>72971</start>
					<end>-1</end>
					<logginginfo>
						<scene/>
						<shottake/>
						<lognote/>
						<good>FALSE</good>
					</logginginfo>
					<labels>
						<label2/>
					</labels>
					<comments>
						<mastercomment1/>
						<mastercomment2/>
						<mastercomment3/>
						<mastercomment4/>
					</comments>
					<file id="fp02711_A"/>
					<filter>
						<effect>
							<name>Audio Levels</name>
							<effectid>audiolevels</effectid>
							<effectcategory>audiolevels</effectcategory>
							<effecttype>audiolevels</effecttype>
							<mediatype>audio</mediatype>
							<parameter>
								<name>Level</name>
								<parameterid>level</parameterid>
								<valuemin>0</valuemin>
								<valuemax>3.98109</valuemax>
								<value>0.199526</value>
							</parameter>
						</effect>
					</filter>
					<filter>
						<effect>
							<name>Audio Pan</name>
							<effectid>audiopan</effectid>
							<effectcategory>audiopan</effectcategory>
							<effecttype>audiopan</effecttype>
							<mediatype>audio</mediatype>
							<parameter>
								<name>Pan</name>
								<parameterid>pan</parameterid>
								<valuemin>-1</valuemin>
								<valuemax>1</valuemax>
								<value>1</value>
							</parameter>
						</effect>
					</filter>
					<sourcetrack>
						<mediatype>audio</mediatype>
						<trackindex>2</trackindex>
					</sourcetrack>
					<itemhistory>
						<uuid>4048ED45-2401-4212-B149-1E3CFC7913B5</uuid>
					</itemhistory>
					<mixedratesoffset>1</mixedratesoffset>
				</clipitem>
				<transitionitem>
					<rate>
						<ntsc>TRUE</ntsc>
						<timebase>30</timebase>
					</rate>
					<start>74607</start>
					<end>74774</end>
					<alignment>end-black</alignment>
					<effect>
						<name>Cross Fade (+3dB)</name>
						<effectid>KGAudioTransCrossFade3dB</effectid>
						<effecttype>transition</effecttype>
						<mediatype>audio</mediatype>
					</effect>
				</transitionitem>
				<transitionitem>
					<rate>
						<ntsc>TRUE</ntsc>
						<timebase>30</timebase>
					</rate>
					<start>79666</start>
					<end>80189</end>
					<alignment>start-black</alignment>
					<effect>
						<name>Cross Fade (+3dB)</name>
						<effectid>KGAudioTransCrossFade3dB</effectid>
						<effecttype>transition</effecttype>
						<mediatype>audio</mediatype>
					</effect>
				</transitionitem>
				<clipitem id="omn19310_A.wav">
					<name>omn19310_A.wav</name>
					<duration>2891</duration>
					<rate>
						<ntsc>TRUE</ntsc>
						<timebase>30</timebase>
					</rate>
					<in>0</in>
					<out>2549</out>
					<start>-1</start>
					<end>-1</end>
					<logginginfo>
						<scene/>
						<shottake/>
						<lognote/>
						<good>FALSE</good>
					</logginginfo>
					<labels>
						<label2/>
					</labels>
					<comments>
						<mastercomment1/>
						<mastercomment2/>
						<mastercomment3/>
						<mastercomment4/>
					</comments>
					<file id="omn19310_A">
						<name>omn19310_A.wav</name>
						<pathurl>file://localhost/REMEMBERING_GENEVA_STEEL_COLOR/01_MEDIA/AUDIO/omn19310_A.wav</pathurl>
						<rate>
							<timebase>30</timebase>
							<ntsc>TRUE</ntsc>
						</rate>
						<duration>2891</duration>
						<media>
							<audio>
								<samplecharacteristics>
									<samplerate>48000</samplerate>
									<depth>16</depth>
								</samplecharacteristics>
								<channelcount>2</channelcount>
							</audio>
						</media>
					</file>
					<filter>
						<effect>
							<name>Audio Levels</name>
							<effectid>audiolevels</effectid>
							<effectcategory>audiolevels</effectcategory>
							<effecttype>audiolevels</effecttype>
							<mediatype>audio</mediatype>
							<parameter>
								<name>Level</name>
								<parameterid>level</parameterid>
								<valuemin>0</valuemin>
								<valuemax>3.98109</valuemax>
								<value>0.281838</value>
							</parameter>
						</effect>
					</filter>
					<filter>
						<effect>
							<name>Audio Pan</name>
							<effectid>audiopan</effectid>
							<effectcategory>audiopan</effectcategory>
							<effecttype>audiopan</effecttype>
							<mediatype>audio</mediatype>
							<parameter>
								<name>Pan</name>
								<parameterid>pan</parameterid>
								<valuemin>-1</valuemin>
								<valuemax>1</valuemax>
								<value>1</value>
							</parameter>
						</effect>
					</filter>
					<sourcetrack>
						<mediatype>audio</mediatype>
						<trackindex>2</trackindex>
					</sourcetrack>
					<itemhistory>
						<uuid>1C241A47-6727-4680-B67D-F85050FFC95F</uuid>
					</itemhistory>
					<mixedratesoffset>1</mixedratesoffset>
				</clipitem>
				<transitionitem>
					<rate>
						<ntsc>TRUE</ntsc>
						<timebase>30</timebase>
					</rate>
					<start>81785</start>
					<end>82215</end>
					<alignment>end-black</alignment>
					<effect>
						<name>Cross Fade (+3dB)</name>
						<effectid>KGAudioTransCrossFade3dB</effectid>
						<effecttype>transition</effecttype>
						<mediatype>audio</mediatype>
					</effect>
				</transitionitem>
				<clipitem id="05a-Central-Maint-Firemen-C.wav">
					<name>05a-Central-Maint-Firemen-C.wav</name>
					<duration>6201</duration>
					<rate>
						<ntsc>TRUE</ntsc>
						<timebase>30</timebase>
					</rate>
					<in>0</in>
					<out>6201</out>
					<start>83895</start>
					<end>90096</end>
					<logginginfo>
						<scene/>
						<shottake/>
						<lognote/>
						<good>FALSE</good>
					</logginginfo>
					<labels>
						<label2/>
					</labels>
					<comments>
						<mastercomment1/>
						<mastercomment2/>
						<mastercomment3/>
						<mastercomment4/>
					</comments>
					<file id="05a-Central-Maint-Firemen-C">
						<name>05a-Central-Maint-Firemen-C.wav</name>
						<pathurl>file://localhost/REMEMBERING_GENEVA_STEEL_COLOR/01_MEDIA/AUDIO/05a-Central-Maint-Firemen-C.wav</pathurl>
						<rate>
							<timebase>30</timebase>
							<ntsc>TRUE</ntsc>
						</rate>
						<duration>6201</duration>
						<media>
							<audio>
								<samplecharacteristics>
									<samplerate>44100</samplerate>
									<depth>24</depth>
								</samplecharacteristics>
								<channelcount>2</channelcount>
							</audio>
						</media>
					</file>
					<filter>
						<effect>
							<name>Audio Levels</name>
							<effectid>audiolevels</effectid>
							<effectcategory>audiolevels</effectcategory>
							<effecttype>audiolevels</effecttype>
							<mediatype>audio</mediatype>
							<parameter>
								<name>Level</name>
								<parameterid>level</parameterid>
								<valuemin>0</valuemin>
								<valuemax>3.98109</valuemax>
								<keyframe>
									<when>1695.18</when>
									<value>0.251189</value>
								</keyframe>
								<keyframe>
									<when>1901.7</when>
									<value>0.125893</value>
								</keyframe>
								<interpolation>
									<name>FCPCurve</name>
								</interpolation>
								<value>1</value>
							</parameter>
						</effect>
					</filter>
					<filter>
						<effect>
							<name>Audio Pan</name>
							<effectid>audiopan</effectid>
							<effectcategory>audiopan</effectcategory>
							<effecttype>audiopan</effecttype>
							<mediatype>audio</mediatype>
							<parameter>
								<name>Pan</name>
								<parameterid>pan</parameterid>
								<valuemin>-1</valuemin>
								<valuemax>1</valuemax>
								<value>1</value>
							</parameter>
						</effect>
					</filter>
					<sourcetrack>
						<mediatype>audio</mediatype>
						<trackindex>2</trackindex>
					</sourcetrack>
					<itemhistory>
						<uuid>EF8F1C02-AF07-4F77-BBE6-1632C00E4501</uuid>
					</itemhistory>
					<mixedratesoffset>1</mixedratesoffset>
				</clipitem>
				<clipitem id="06-Retirement-Stories-B.wav">
					<name>06-Retirement-Stories-B.wav</name>
					<duration>5445</duration>
					<rate>
						<ntsc>TRUE</ntsc>
						<timebase>30</timebase>
					</rate>
					<in>0</in>
					<out>5445</out>
					<start>90770</start>
					<end>96215</end>
					<logginginfo>
						<scene/>
						<shottake/>
						<lognote/>
						<good>FALSE</good>
					</logginginfo>
					<labels>
						<label2/>
					</labels>
					<comments>
						<mastercomment1/>
						<mastercomment2/>
						<mastercomment3/>
						<mastercomment4/>
					</comments>
					<file id="06-Retirement-Stories-B">
						<name>06-Retirement-Stories-B.wav</name>
						<pathurl>file://localhost/REMEMBERING_GENEVA_STEEL_COLOR/01_MEDIA/AUDIO/06-Retirement-Stories-B.wav</pathurl>
						<rate>
							<timebase>30</timebase>
							<ntsc>TRUE</ntsc>
						</rate>
						<duration>5445</duration>
						<media>
							<audio>
								<samplecharacteristics>
									<samplerate>44100</samplerate>
									<depth>24</depth>
								</samplecharacteristics>
								<channelcount>2</channelcount>
							</audio>
						</media>
					</file>
					<filter>
						<effect>
							<name>Audio Levels</name>
							<effectid>audiolevels</effectid>
							<effectcategory>audiolevels</effectcategory>
							<effecttype>audiolevels</effecttype>
							<mediatype>audio</mediatype>
							<parameter>
								<name>Level</name>
								<parameterid>level</parameterid>
								<valuemin>0</valuemin>
								<valuemax>3.98109</valuemax>
								<value>0.0446684</value>
							</parameter>
						</effect>
					</filter>
					<filter>
						<effect>
							<name>Audio Pan</name>
							<effectid>audiopan</effectid>
							<effectcategory>audiopan</effectcategory>
							<effecttype>audiopan</effecttype>
							<mediatype>audio</mediatype>
							<parameter>
								<name>Pan</name>
								<parameterid>pan</parameterid>
								<valuemin>-1</valuemin>
								<valuemax>1</valuemax>
								<value>1</value>
							</parameter>
						</effect>
					</filter>
					<sourcetrack>
						<mediatype>audio</mediatype>
						<trackindex>2</trackindex>
					</sourcetrack>
					<itemhistory>
						<uuid>B3CC2B75-50E2-4989-9587-58430BAC4EE1</uuid>
					</itemhistory>
					<mixedratesoffset>1</mixedratesoffset>
				</clipitem>
				<transitionitem>
					<rate>
						<ntsc>TRUE</ntsc>
						<timebase>30</timebase>
					</rate>
					<start>98108</start>
					<end>98264</end>
					<alignment>start-black</alignment>
					<effect>
						<name>Cross Fade (+3dB)</name>
						<effectid>KGAudioTransCrossFade3dB</effectid>
						<effecttype>transition</effecttype>
						<mediatype>audio</mediatype>
					</effect>
				</transitionitem>
				<clipitem id="KT_227_6_Open_Decisions_Wilkerson_441438_A.wav4">
					<name>KT_227_6_Open_Decisions_Wilkerson_441438_A.wav</name>
					<duration>3483</duration>
					<rate>
						<ntsc>TRUE</ntsc>
						<timebase>30</timebase>
					</rate>
					<in>1002</in>
					<out>3042</out>
					<start>-1</start>
					<end>-1</end>
					<logginginfo>
						<scene/>
						<shottake/>
						<lognote/>
						<good>FALSE</good>
					</logginginfo>
					<labels>
						<label2/>
					</labels>
					<comments>
						<mastercomment1/>
						<mastercomment2/>
						<mastercomment3/>
						<mastercomment4/>
					</comments>
					<file id="KT_227_6_Open_Decisions_Wilkerson_441438_A"/>
					<filter>
						<effect>
							<name>Audio Levels</name>
							<effectid>audiolevels</effectid>
							<effectcategory>audiolevels</effectcategory>
							<effecttype>audiolevels</effecttype>
							<mediatype>audio</mediatype>
							<parameter>
								<name>Level</name>
								<parameterid>level</parameterid>
								<valuemin>0</valuemin>
								<valuemax>3.98109</valuemax>
								<keyframe>
									<when>1598.54</when>
									<value>0.177828</value>
								</keyframe>
								<keyframe>
									<when>1889.64</when>
									<value>0.251189</value>
								</keyframe>
								<keyframe>
									<when>2245</when>
									<value>0.251189</value>
								</keyframe>
								<keyframe>
									<when>2539</when>
									<value>0.251189</value>
								</keyframe>
								<interpolation>
									<name>FCPCurve</name>
								</interpolation>
								<value>1</value>
							</parameter>
						</effect>
					</filter>
					<filter>
						<effect>
							<name>Audio Pan</name>
							<effectid>audiopan</effectid>
							<effectcategory>audiopan</effectcategory>
							<effecttype>audiopan</effecttype>
							<mediatype>audio</mediatype>
							<parameter>
								<name>Pan</name>
								<parameterid>pan</parameterid>
								<valuemin>-1</valuemin>
								<valuemax>1</valuemax>
								<value>1</value>
							</parameter>
						</effect>
					</filter>
					<sourcetrack>
						<mediatype>audio</mediatype>
						<trackindex>2</trackindex>
					</sourcetrack>
					<itemhistory>
						<uuid>6951748C-F240-481F-97CE-0C2299F42570</uuid>
					</itemhistory>
					<mixedratesoffset>1</mixedratesoffset>
				</clipitem>
				<transitionitem>
					<rate>
						<ntsc>TRUE</ntsc>
						<timebase>30</timebase>
					</rate>
					<start>99815</start>
					<end>100148</end>
					<alignment>end-black</alignment>
					<effect>
						<name>Cross Fade ( 0dB)</name>
						<effectid>KGAudioTransCrossFade0dB</effectid>
						<effecttype>transition</effecttype>
						<mediatype>audio</mediatype>
					</effect>
				</transitionitem>
				<clipitem id="KT_227_10_Whole_New_Beginnings_Wilkerson_441452_A.wav6">
					<name>KT_227_10_Whole_New_Beginnings_Wilkerson_441452_A.wav</name>
					<duration>2980</duration>
					<rate>
						<ntsc>TRUE</ntsc>
						<timebase>30</timebase>
					</rate>
					<in>2136</in>
					<out>2848</out>
					<start>102410</start>
					<end>103122</end>
					<logginginfo>
						<scene/>
						<shottake/>
						<lognote/>
						<good>FALSE</good>
					</logginginfo>
					<labels>
						<label2/>
					</labels>
					<comments>
						<mastercomment1/>
						<mastercomment2/>
						<mastercomment3/>
						<mastercomment4/>
					</comments>
					<file id="KT_227_10_Whole_New_Beginnings_Wilkerson_441452_A"/>
					<filter>
						<effect>
							<name>Audio Levels</name>
							<effectid>audiolevels</effectid>
							<effectcategory>audiolevels</effectcategory>
							<effecttype>audiolevels</effecttype>
							<mediatype>audio</mediatype>
							<parameter>
								<name>Level</name>
								<parameterid>level</parameterid>
								<valuemin>0</valuemin>
								<valuemax>3.98109</valuemax>
								<keyframe>
									<when>768.714</when>
									<value>0.251189</value>
								</keyframe>
								<keyframe>
									<when>885.286</when>
									<value>0.125893</value>
								</keyframe>
								<interpolation>
									<name>FCPCurve</name>
								</interpolation>
								<value>1</value>
							</parameter>
						</effect>
					</filter>
					<filter>
						<effect>
							<name>Audio Pan</name>
							<effectid>audiopan</effectid>
							<effectcategory>audiopan</effectcategory>
							<effecttype>audiopan</effecttype>
							<mediatype>audio</mediatype>
							<parameter>
								<name>Pan</name>
								<parameterid>pan</parameterid>
								<valuemin>-1</valuemin>
								<valuemax>1</valuemax>
								<value>1</value>
							</parameter>
						</effect>
					</filter>
					<sourcetrack>
						<mediatype>audio</mediatype>
						<trackindex>2</trackindex>
					</sourcetrack>
					<itemhistory>
						<uuid>8222A131-F104-4DDB-8275-292EBB6C908C</uuid>
					</itemhistory>
					<mixedratesoffset>1</mixedratesoffset>
				</clipitem>
				<clipitem id="08-Transition-Theme-A.wav">
					<name>08-Transition-Theme-A.wav</name>
					<duration>598</duration>
					<rate>
						<ntsc>TRUE</ntsc>
						<timebase>30</timebase>
					</rate>
					<in>0</in>
					<out>598</out>
					<start>106958</start>
					<end>107556</end>
					<logginginfo>
						<scene/>
						<shottake/>
						<lognote/>
						<good>FALSE</good>
					</logginginfo>
					<labels>
						<label2/>
					</labels>
					<comments>
						<mastercomment1/>
						<mastercomment2/>
						<mastercomment3/>
						<mastercomment4/>
					</comments>
					<file id="08-Transition-Theme">
						<name>08-Transition-Theme.wav</name>
						<pathurl>file://localhost/REMEMBERING_GENEVA_STEEL_COLOR/01_MEDIA/AUDIO/08-Transition-Theme.wav</pathurl>
						<rate>
							<timebase>30</timebase>
							<ntsc>TRUE</ntsc>
						</rate>
						<duration>598</duration>
						<media>
							<audio>
								<samplecharacteristics>
									<samplerate>44100</samplerate>
									<depth>24</depth>
								</samplecharacteristics>
								<channelcount>2</channelcount>
							</audio>
						</media>
					</file>
					<filter>
						<effect>
							<name>Audio Levels</name>
							<effectid>audiolevels</effectid>
							<effectcategory>audiolevels</effectcategory>
							<effecttype>audiolevels</effecttype>
							<mediatype>audio</mediatype>
							<parameter>
								<name>Level</name>
								<parameterid>level</parameterid>
								<valuemin>0</valuemin>
								<valuemax>3.98109</valuemax>
								<value>1</value>
							</parameter>
						</effect>
					</filter>
					<filter>
						<effect>
							<name>Audio Pan</name>
							<effectid>audiopan</effectid>
							<effectcategory>audiopan</effectcategory>
							<effecttype>audiopan</effecttype>
							<mediatype>audio</mediatype>
							<parameter>
								<name>Pan</name>
								<parameterid>pan</parameterid>
								<valuemin>-1</valuemin>
								<valuemax>1</valuemax>
								<value>1</value>
							</parameter>
						</effect>
					</filter>
					<sourcetrack>
						<mediatype>audio</mediatype>
						<trackindex>2</trackindex>
					</sourcetrack>
					<itemhistory>
						<uuid>C4903FB5-0814-4249-A9E2-29B5B729F8A3</uuid>
					</itemhistory>
					<mixedratesoffset>1</mixedratesoffset>
				</clipitem>
				<clipitem id="KT_219A_44_Racing_In_Talladega_(c)_Lifschey_424060.wav">
					<name>KT_219A_44_Racing_In_Talladega_(c)_Lifschey_424060.wav</name>
					<duration>987</duration>
					<rate>
						<ntsc>TRUE</ntsc>
						<timebase>30</timebase>
					</rate>
					<in>0</in>
					<out>617</out>
					<start>116598</start>
					<end>-1</end>
					<logginginfo>
						<scene/>
						<shottake/>
						<lognote/>
						<good>FALSE</good>
					</logginginfo>
					<labels>
						<label2/>
					</labels>
					<comments>
						<mastercomment1/>
						<mastercomment2/>
						<mastercomment3/>
						<mastercomment4/>
					</comments>
					<file id="KT_219A_44_Racing_In_Talladega_(c)_Lifschey_424060 ">
						<name>KT_219A_44_Racing_In_Talladega_(c)_Lifschey_424060.wav</name>
						<pathurl>file://localhost/REMEMBERING_GENEVA_STEEL_COLOR/01_MEDIA/AUDIO/KT_219A_44_Racing_In_Talladega_(c)_Lifschey_424060.wav</pathurl>
						<rate>
							<timebase>30</timebase>
							<ntsc>TRUE</ntsc>
						</rate>
						<duration>987</duration>
						<media>
							<audio>
								<samplecharacteristics>
									<samplerate>44100</samplerate>
									<depth>16</depth>
								</samplecharacteristics>
								<channelcount>2</channelcount>
							</audio>
						</media>
					</file>
					<filter>
						<effect>
							<name>Audio Levels</name>
							<effectid>audiolevels</effectid>
							<effectcategory>audiolevels</effectcategory>
							<effecttype>audiolevels</effecttype>
							<mediatype>audio</mediatype>
							<parameter>
								<name>Level</name>
								<parameterid>level</parameterid>
								<valuemin>0</valuemin>
								<valuemax>3.98109</valuemax>
								<keyframe>
									<when>26</when>
									<value>0.354813</value>
								</keyframe>
								<keyframe>
									<when>91.8571</when>
									<value>0.0707946</value>
								</keyframe>
								<interpolation>
									<name>FCPCurve</name>
								</interpolation>
								<value>1</value>
							</parameter>
						</effect>
					</filter>
					<filter>
						<effect>
							<name>Audio Pan</name>
							<effectid>audiopan</effectid>
							<effectcategory>audiopan</effectcategory>
							<effecttype>audiopan</effecttype>
							<mediatype>audio</mediatype>
							<parameter>
								<name>Pan</name>
								<parameterid>pan</parameterid>
								<valuemin>-1</valuemin>
								<valuemax>1</valuemax>
								<value>1</value>
							</parameter>
						</effect>
					</filter>
					<sourcetrack>
						<mediatype>audio</mediatype>
						<trackindex>2</trackindex>
					</sourcetrack>
					<itemhistory>
						<uuid>9E7E281A-6A0A-4635-9322-14A9E104D741</uuid>
					</itemhistory>
					<mixedratesoffset>1</mixedratesoffset>
				</clipitem>
				<transitionitem>
					<rate>
						<ntsc>TRUE</ntsc>
						<timebase>30</timebase>
					</rate>
					<start>117205</start>
					<end>117215</end>
					<alignment>start</alignment>
					<effect>
						<name>Cross Fade (+3dB)</name>
						<effectid>KGAudioTransCrossFade3dB</effectid>
						<effecttype>transition</effecttype>
						<mediatype>audio</mediatype>
					</effect>
				</transitionitem>
				<clipitem id="KT_219B_21_Racing_In_Talladega_(b)_Music_Stem_Lifschey_424007.wav">
					<name>KT_219B_21_Racing_In_Talladega_(b)_Music_Stem_Lifschey_424007.wav</name>
					<duration>2677</duration>
					<rate>
						<ntsc>TRUE</ntsc>
						<timebase>30</timebase>
					</rate>
					<in>1256</in>
					<out>2488</out>
					<start>-1</start>
					<end>-1</end>
					<subframeoffset>0</subframeoffset>
					<logginginfo>
						<scene/>
						<shottake/>
						<lognote/>
						<good>FALSE</good>
					</logginginfo>
					<labels>
						<label2/>
					</labels>
					<comments>
						<mastercomment1/>
						<mastercomment2/>
						<mastercomment3/>
						<mastercomment4/>
					</comments>
					<file id="KT_219B_21_Racing_In_Talladega_(b)_Music_Stem_Lifschey_424007 ">
						<name>KT_219B_21_Racing_In_Talladega_(b)_Music_Stem_Lifschey_424007.wav</name>
						<pathurl>file://localhost/REMEMBERING_GENEVA_STEEL_COLOR/01_MEDIA/AUDIO/KT_219B_21_Racing_In_Talladega_(b)_Music_Stem_Lifschey_424007.wav</pathurl>
						<rate>
							<timebase>30</timebase>
							<ntsc>TRUE</ntsc>
						</rate>
						<duration>2677</duration>
						<media>
							<audio>
								<samplecharacteristics>
									<samplerate>44100</samplerate>
									<depth>16</depth>
								</samplecharacteristics>
								<channelcount>2</channelcount>
							</audio>
						</media>
					</file>
					<filter>
						<effect>
							<name>Audio Levels</name>
							<effectid>audiolevels</effectid>
							<effectcategory>audiolevels</effectcategory>
							<effecttype>audiolevels</effecttype>
							<mediatype>audio</mediatype>
							<parameter>
								<name>Level</name>
								<parameterid>level</parameterid>
								<valuemin>0</valuemin>
								<valuemax>3.98109</valuemax>
								<value>0.0707946</value>
							</parameter>
						</effect>
					</filter>
					<filter>
						<effect>
							<name>Audio Pan</name>
							<effectid>audiopan</effectid>
							<effectcategory>audiopan</effectcategory>
							<effecttype>audiopan</effecttype>
							<mediatype>audio</mediatype>
							<parameter>
								<name>Pan</name>
								<parameterid>pan</parameterid>
								<valuemin>-1</valuemin>
								<valuemax>1</valuemax>
								<value>1</value>
							</parameter>
						</effect>
					</filter>
					<sourcetrack>
						<mediatype>audio</mediatype>
						<trackindex>2</trackindex>
					</sourcetrack>
					<itemhistory>
						<uuid>973B0D5C-0430-45CD-843D-FAB7274A242D</uuid>
					</itemhistory>
					<mixedratesoffset>1</mixedratesoffset>
				</clipitem>
				<transitionitem>
					<rate>
						<ntsc>TRUE</ntsc>
						<timebase>30</timebase>
					</rate>
					<start>118407</start>
					<end>118437</end>
					<alignment>end-black</alignment>
					<effect>
						<name>Cross Fade (+3dB)</name>
						<effectid>KGAudioTransCrossFade3dB</effectid>
						<effecttype>transition</effecttype>
						<mediatype>audio</mediatype>
					</effect>
				</transitionitem>
				<transitionitem>
					<rate>
						<ntsc>TRUE</ntsc>
						<timebase>30</timebase>
					</rate>
					<start>120886</start>
					<end>121026</end>
					<alignment>start-black</alignment>
					<effect>
						<name>Cross Fade (+3dB)</name>
						<effectid>KGAudioTransCrossFade3dB</effectid>
						<effecttype>transition</effecttype>
						<mediatype>audio</mediatype>
					</effect>
				</transitionitem>
				<clipitem id="KT_227_10_Whole_New_Beginnings_Wilkerson_441452_A.wav7">
					<name>KT_227_10_Whole_New_Beginnings_Wilkerson_441452_A.wav</name>
					<duration>2980</duration>
					<rate>
						<ntsc>TRUE</ntsc>
						<timebase>30</timebase>
					</rate>
					<in>2325</in>
					<out>2979</out>
					<start>-1</start>
					<end>121540</end>
					<logginginfo>
						<scene/>
						<shottake/>
						<lognote/>
						<good>FALSE</good>
					</logginginfo>
					<labels>
						<label2/>
					</labels>
					<comments>
						<mastercomment1/>
						<mastercomment2/>
						<mastercomment3/>
						<mastercomment4/>
					</comments>
					<file id="KT_227_10_Whole_New_Beginnings_Wilkerson_441452_A"/>
					<filter>
						<effect>
							<name>Audio Levels</name>
							<effectid>audiolevels</effectid>
							<effectcategory>audiolevels</effectcategory>
							<effecttype>audiolevels</effecttype>
							<mediatype>audio</mediatype>
							<parameter>
								<name>Level</name>
								<parameterid>level</parameterid>
								<valuemin>0</valuemin>
								<valuemax>3.98109</valuemax>
								<value>0.125893</value>
							</parameter>
						</effect>
					</filter>
					<filter>
						<effect>
							<name>Audio Pan</name>
							<effectid>audiopan</effectid>
							<effectcategory>audiopan</effectcategory>
							<effecttype>audiopan</effecttype>
							<mediatype>audio</mediatype>
							<parameter>
								<name>Pan</name>
								<parameterid>pan</parameterid>
								<valuemin>-1</valuemin>
								<valuemax>1</valuemax>
								<value>1</value>
							</parameter>
						</effect>
					</filter>
					<sourcetrack>
						<mediatype>audio</mediatype>
						<trackindex>2</trackindex>
					</sourcetrack>
					<itemhistory>
						<uuid>5E52C424-49B1-4EE4-B4E0-74DDA6B0BF46</uuid>
					</itemhistory>
					<mixedratesoffset>1</mixedratesoffset>
				</clipitem>
				<clipitem id="07-Dunker-History-A.wav">
					<name>07-Dunker-History-A.wav</name>
					<duration>1363</duration>
					<rate>
						<ntsc>TRUE</ntsc>
						<timebase>30</timebase>
					</rate>
					<in>0</in>
					<out>558</out>
					<start>123952</start>
					<end>-1</end>
					<subframeoffset>0</subframeoffset>
					<logginginfo>
						<scene/>
						<shottake/>
						<lognote/>
						<good>FALSE</good>
					</logginginfo>
					<labels>
						<label2/>
					</labels>
					<comments>
						<mastercomment1/>
						<mastercomment2/>
						<mastercomment3/>
						<mastercomment4/>
					</comments>
					<file id="07-Dunker-History">
						<name>07-Dunker-History.wav</name>
						<pathurl>file://localhost/REMEMBERING_GENEVA_STEEL_COLOR/01_MEDIA/AUDIO/07-Dunker-History.wav</pathurl>
						<rate>
							<timebase>30</timebase>
							<ntsc>TRUE</ntsc>
						</rate>
						<duration>1363</duration>
						<media>
							<audio>
								<samplecharacteristics>
									<samplerate>44100</samplerate>
									<depth>24</depth>
								</samplecharacteristics>
								<channelcount>2</channelcount>
							</audio>
						</media>
					</file>
					<filter>
						<effect>
							<name>Audio Levels</name>
							<effectid>audiolevels</effectid>
							<effectcategory>audiolevels</effectcategory>
							<effecttype>audiolevels</effecttype>
							<mediatype>audio</mediatype>
							<parameter>
								<name>Level</name>
								<parameterid>level</parameterid>
								<valuemin>0</valuemin>
								<valuemax>3.98109</valuemax>
								<value>0.0446684</value>
							</parameter>
						</effect>
					</filter>
					<filter>
						<effect>
							<name>Audio Pan</name>
							<effectid>audiopan</effectid>
							<effectcategory>audiopan</effectcategory>
							<effecttype>audiopan</effecttype>
							<mediatype>audio</mediatype>
							<parameter>
								<name>Pan</name>
								<parameterid>pan</parameterid>
								<valuemin>-1</valuemin>
								<valuemax>1</valuemax>
								<value>1</value>
							</parameter>
						</effect>
					</filter>
					<sourcetrack>
						<mediatype>audio</mediatype>
						<trackindex>2</trackindex>
					</sourcetrack>
					<itemhistory>
						<uuid>88D726EB-58EC-4AB0-850E-5A2C485A5BBA</uuid>
					</itemhistory>
					<mixedratesoffset>1</mixedratesoffset>
				</clipitem>
				<transitionitem>
					<rate>
						<ntsc>TRUE</ntsc>
						<timebase>30</timebase>
					</rate>
					<start>124480</start>
					<end>124510</end>
					<alignment>center</alignment>
					<effect>
						<name>Cross Fade (+3dB)</name>
						<effectid>KGAudioTransCrossFade3dB</effectid>
						<effecttype>transition</effecttype>
						<mediatype>audio</mediatype>
					</effect>
				</transitionitem>
				<clipitem id="07-Dunker-History-A.wav1">
					<name>07-Dunker-History-A.wav</name>
					<duration>1363</duration>
					<rate>
						<ntsc>TRUE</ntsc>
						<timebase>30</timebase>
					</rate>
					<in>480</in>
					<out>1363</out>
					<start>-1</start>
					<end>-1</end>
					<subframeoffset>0</subframeoffset>
					<logginginfo>
						<scene/>
						<shottake/>
						<lognote/>
						<good>FALSE</good>
					</logginginfo>
					<labels>
						<label2/>
					</labels>
					<comments>
						<mastercomment1/>
						<mastercomment2/>
						<mastercomment3/>
						<mastercomment4/>
					</comments>
					<file id="07-Dunker-History"/>
					<filter>
						<effect>
							<name>Audio Levels</name>
							<effectid>audiolevels</effectid>
							<effectcategory>audiolevels</effectcategory>
							<effecttype>audiolevels</effecttype>
							<mediatype>audio</mediatype>
							<parameter>
								<name>Level</name>
								<parameterid>level</parameterid>
								<valuemin>0</valuemin>
								<valuemax>3.98109</valuemax>
								<value>0.0446684</value>
							</parameter>
						</effect>
					</filter>
					<filter>
						<effect>
							<name>Audio Pan</name>
							<effectid>audiopan</effectid>
							<effectcategory>audiopan</effectcategory>
							<effecttype>audiopan</effecttype>
							<mediatype>audio</mediatype>
							<parameter>
								<name>Pan</name>
								<parameterid>pan</parameterid>
								<valuemin>-1</valuemin>
								<valuemax>1</valuemax>
								<value>1</value>
							</parameter>
						</effect>
					</filter>
					<sourcetrack>
						<mediatype>audio</mediatype>
						<trackindex>2</trackindex>
					</sourcetrack>
					<itemhistory>
						<uuid>59779B6C-EF03-433F-84F2-2BFF0178AEE6</uuid>
					</itemhistory>
					<mixedratesoffset>1</mixedratesoffset>
				</clipitem>
				<transitionitem>
					<rate>
						<ntsc>TRUE</ntsc>
						<timebase>30</timebase>
					</rate>
					<start>125333</start>
					<end>125363</end>
					<alignment>end-black</alignment>
					<effect>
						<name>Cross Fade (+3dB)</name>
						<effectid>KGAudioTransCrossFade3dB</effectid>
						<effecttype>transition</effecttype>
						<mediatype>audio</mediatype>
					</effect>
				</transitionitem>
				<clipitem id="KT_227_11_Mesmerized_Housewives_Wilkerson_441456_A.wav4">
					<name>KT_227_11_Mesmerized_Housewives_Wilkerson_441456_A.wav</name>
					<duration>3563</duration>
					<rate>
						<ntsc>TRUE</ntsc>
						<timebase>30</timebase>
					</rate>
					<in>0</in>
					<out>1468</out>
					<start>127731</start>
					<end>-1</end>
					<logginginfo>
						<scene/>
						<shottake/>
						<lognote/>
						<good>FALSE</good>
					</logginginfo>
					<labels>
						<label2/>
					</labels>
					<comments>
						<mastercomment1/>
						<mastercomment2/>
						<mastercomment3/>
						<mastercomment4/>
					</comments>
					<file id="KT_227_11_Mesmerized_Housewives_Wilkerson_441456_A"/>
					<filter>
						<effect>
							<name>Audio Levels</name>
							<effectid>audiolevels</effectid>
							<effectcategory>audiolevels</effectcategory>
							<effecttype>audiolevels</effecttype>
							<mediatype>audio</mediatype>
							<parameter>
								<name>Level</name>
								<parameterid>level</parameterid>
								<valuemin>0</valuemin>
								<valuemax>3.98109</valuemax>
								<keyframe>
									<when>524</when>
									<value>0.0223872</value>
								</keyframe>
								<keyframe>
									<when>1012</when>
									<value>0.0707946</value>
								</keyframe>
								<interpolation>
									<name>FCPCurve</name>
								</interpolation>
								<value>1</value>
							</parameter>
						</effect>
					</filter>
					<filter>
						<effect>
							<name>Audio Pan</name>
							<effectid>audiopan</effectid>
							<effectcategory>audiopan</effectcategory>
							<effecttype>audiopan</effecttype>
							<mediatype>audio</mediatype>
							<parameter>
								<name>Pan</name>
								<parameterid>pan</parameterid>
								<valuemin>-1</valuemin>
								<valuemax>1</valuemax>
								<value>1</value>
							</parameter>
						</effect>
					</filter>
					<sourcetrack>
						<mediatype>audio</mediatype>
						<trackindex>2</trackindex>
					</sourcetrack>
					<itemhistory>
						<uuid>7CDCAD9E-B9AD-4903-BEEF-0B8106CCDEB7</uuid>
					</itemhistory>
					<mixedratesoffset>1</mixedratesoffset>
				</clipitem>
				<transitionitem>
					<rate>
						<ntsc>TRUE</ntsc>
						<timebase>30</timebase>
					</rate>
					<start>128962</start>
					<end>129199</end>
					<alignment>end-black</alignment>
					<effect>
						<name>Cross Fade (+3dB)</name>
						<effectid>KGAudioTransCrossFade3dB</effectid>
						<effecttype>transition</effecttype>
						<mediatype>audio</mediatype>
					</effect>
				</transitionitem>
				<clipitem id="KT_227_6_Open_Decisions_Wilkerson_441438_A.wav5">
					<name>KT_227_6_Open_Decisions_Wilkerson_441438_A.wav</name>
					<duration>3483</duration>
					<rate>
						<ntsc>TRUE</ntsc>
						<timebase>30</timebase>
					</rate>
					<in>0</in>
					<out>1827</out>
					<start>135828</start>
					<end>-1</end>
					<logginginfo>
						<scene/>
						<shottake/>
						<lognote/>
						<good>FALSE</good>
					</logginginfo>
					<labels>
						<label2/>
					</labels>
					<comments>
						<mastercomment1/>
						<mastercomment2/>
						<mastercomment3/>
						<mastercomment4/>
					</comments>
					<file id="KT_227_6_Open_Decisions_Wilkerson_441438_A"/>
					<filter>
						<effect>
							<name>Audio Levels</name>
							<effectid>audiolevels</effectid>
							<effectcategory>audiolevels</effectcategory>
							<effecttype>audiolevels</effecttype>
							<mediatype>audio</mediatype>
							<parameter>
								<name>Level</name>
								<parameterid>level</parameterid>
								<valuemin>0</valuemin>
								<valuemax>3.98109</valuemax>
								<value>0.125893</value>
							</parameter>
						</effect>
					</filter>
					<filter>
						<effect>
							<name>Audio Pan</name>
							<effectid>audiopan</effectid>
							<effectcategory>audiopan</effectcategory>
							<effecttype>audiopan</effecttype>
							<mediatype>audio</mediatype>
							<parameter>
								<name>Pan</name>
								<parameterid>pan</parameterid>
								<valuemin>-1</valuemin>
								<valuemax>1</valuemax>
								<value>1</value>
							</parameter>
						</effect>
					</filter>
					<sourcetrack>
						<mediatype>audio</mediatype>
						<trackindex>2</trackindex>
					</sourcetrack>
					<itemhistory>
						<uuid>7F5AA69E-22CC-47F6-9510-255B5C3EDBBC</uuid>
					</itemhistory>
					<mixedratesoffset>1</mixedratesoffset>
				</clipitem>
				<transitionitem>
					<rate>
						<ntsc>TRUE</ntsc>
						<timebase>30</timebase>
					</rate>
					<start>137531</start>
					<end>137655</end>
					<alignment>end-black</alignment>
					<effect>
						<name>Cross Fade (+3dB)</name>
						<effectid>KGAudioTransCrossFade3dB</effectid>
						<effecttype>transition</effecttype>
						<mediatype>audio</mediatype>
					</effect>
				</transitionitem>
				<clipitem id="KT_227_1_Buoys_Wilkerson_441420_A.wav2">
					<name>KT_227_1_Buoys_Wilkerson_441420_A.wav</name>
					<duration>3577</duration>
					<rate>
						<ntsc>TRUE</ntsc>
						<timebase>30</timebase>
					</rate>
					<in>0</in>
					<out>744</out>
					<start>138509</start>
					<end>-1</end>
					<subframeoffset>0</subframeoffset>
					<logginginfo>
						<scene/>
						<shottake/>
						<lognote/>
						<good>FALSE</good>
					</logginginfo>
					<labels>
						<label2/>
					</labels>
					<comments>
						<mastercomment1/>
						<mastercomment2/>
						<mastercomment3/>
						<mastercomment4/>
					</comments>
					<file id="KT_227_1_Buoys_Wilkerson_441420_A"/>
					<filter>
						<effect>
							<name>Audio Levels</name>
							<effectid>audiolevels</effectid>
							<effectcategory>audiolevels</effectcategory>
							<effecttype>audiolevels</effecttype>
							<mediatype>audio</mediatype>
							<parameter>
								<name>Level</name>
								<parameterid>level</parameterid>
								<valuemin>0</valuemin>
								<valuemax>3.98109</valuemax>
								<keyframe>
									<when>219.089</when>
									<value>1</value>
								</keyframe>
								<keyframe>
									<when>319.161</when>
									<value>0.446684</value>
								</keyframe>
								<keyframe>
									<when>1566.01</when>
									<value>0.446684</value>
								</keyframe>
								<keyframe>
									<when>1740.79</when>
									<value>0.630957</value>
								</keyframe>
								<keyframe>
									<when>1945.32</when>
									<value>0.707946</value>
								</keyframe>
								<keyframe>
									<when>1999.53</when>
									<value>0.446684</value>
								</keyframe>
								<keyframe>
									<when>2132.96</when>
									<value>0.446684</value>
								</keyframe>
								<keyframe>
									<when>2200</when>
									<value>0.630957</value>
								</keyframe>
								<keyframe>
									<when>2342.79</when>
									<value>0.630957</value>
								</keyframe>
								<keyframe>
									<when>2560.29</when>
									<value>0.630957</value>
								</keyframe>
								<keyframe>
									<when>2727.3</when>
									<value>0.354813</value>
								</keyframe>
								<interpolation>
									<name>FCPCurve</name>
								</interpolation>
								<value>1</value>
							</parameter>
						</effect>
					</filter>
					<filter>
						<effect>
							<name>Audio Pan</name>
							<effectid>audiopan</effectid>
							<effectcategory>audiopan</effectcategory>
							<effecttype>audiopan</effecttype>
							<mediatype>audio</mediatype>
							<parameter>
								<name>Pan</name>
								<parameterid>pan</parameterid>
								<valuemin>-1</valuemin>
								<valuemax>1</valuemax>
								<value>1</value>
							</parameter>
						</effect>
					</filter>
					<sourcetrack>
						<mediatype>audio</mediatype>
						<trackindex>1</trackindex>
					</sourcetrack>
					<itemhistory>
						<uuid>94B674FA-5EB5-46E4-964C-179176C83010</uuid>
					</itemhistory>
					<mixedratesoffset>1</mixedratesoffset>
				</clipitem>
				<transitionitem>
					<rate>
						<ntsc>TRUE</ntsc>
						<timebase>30</timebase>
					</rate>
					<start>138996</start>
					<end>139253</end>
					<alignment>end-black</alignment>
					<effect>
						<name>Cross Fade (+3dB)</name>
						<effectid>KGAudioTransCrossFade3dB</effectid>
						<effecttype>transition</effecttype>
						<mediatype>audio</mediatype>
					</effect>
				</transitionitem>
				<transitionitem>
					<rate>
						<ntsc>TRUE</ntsc>
						<timebase>30</timebase>
					</rate>
					<start>142010</start>
					<end>142390</end>
					<alignment>start-black</alignment>
					<effect>
						<name>Cross Fade (+3dB)</name>
						<effectid>KGAudioTransCrossFade3dB</effectid>
						<effecttype>transition</effecttype>
						<mediatype>audio</mediatype>
					</effect>
				</transitionitem>
				<clipitem id="KT_227_1_Buoys_Wilkerson_441420_A.wav3">
					<name>KT_227_1_Buoys_Wilkerson_441420_A.wav</name>
					<duration>3577</duration>
					<rate>
						<ntsc>TRUE</ntsc>
						<timebase>30</timebase>
					</rate>
					<in>1157</in>
					<out>3389</out>
					<start>-1</start>
					<end>-1</end>
					<logginginfo>
						<scene/>
						<shottake/>
						<lognote/>
						<good>FALSE</good>
					</logginginfo>
					<labels>
						<label2/>
					</labels>
					<comments>
						<mastercomment1/>
						<mastercomment2/>
						<mastercomment3/>
						<mastercomment4/>
					</comments>
					<file id="KT_227_1_Buoys_Wilkerson_441420_A"/>
					<filter>
						<effect>
							<name>Audio Levels</name>
							<effectid>audiolevels</effectid>
							<effectcategory>audiolevels</effectcategory>
							<effecttype>audiolevels</effecttype>
							<mediatype>audio</mediatype>
							<parameter>
								<name>Level</name>
								<parameterid>level</parameterid>
								<valuemin>0</valuemin>
								<valuemax>3.98109</valuemax>
								<keyframe>
									<when>1565.79</when>
									<value>0.251189</value>
								</keyframe>
								<keyframe>
									<when>1741.57</when>
									<value>0.354813</value>
								</keyframe>
								<interpolation>
									<name>FCPCurve</name>
								</interpolation>
								<value>1</value>
							</parameter>
						</effect>
					</filter>
					<filter>
						<effect>
							<name>Audio Pan</name>
							<effectid>audiopan</effectid>
							<effectcategory>audiopan</effectcategory>
							<effecttype>audiopan</effecttype>
							<mediatype>audio</mediatype>
							<parameter>
								<name>Pan</name>
								<parameterid>pan</parameterid>
								<valuemin>-1</valuemin>
								<valuemax>1</valuemax>
								<value>1</value>
							</parameter>
						</effect>
					</filter>
					<sourcetrack>
						<mediatype>audio</mediatype>
						<trackindex>2</trackindex>
					</sourcetrack>
					<itemhistory>
						<uuid>4525C2EA-AFAC-4D57-A32F-F2AE5781C398</uuid>
					</itemhistory>
					<mixedratesoffset>1</mixedratesoffset>
				</clipitem>
				<transitionitem>
					<rate>
						<ntsc>TRUE</ntsc>
						<timebase>30</timebase>
					</rate>
					<start>144052</start>
					<end>144242</end>
					<alignment>end-black</alignment>
					<effect>
						<name>Cross Fade ( 0dB)</name>
						<effectid>KGAudioTransCrossFade0dB</effectid>
						<effecttype>transition</effecttype>
						<mediatype>audio</mediatype>
					</effect>
				</transitionitem>
				<clipitem id="KT_218_12_Anonymous_Call_Oldman_416872.wav">
					<name>KT_218_12_Anonymous_Call_Oldman_416872.wav</name>
					<duration>1499</duration>
					<rate>
						<ntsc>TRUE</ntsc>
						<timebase>30</timebase>
					</rate>
					<in>0</in>
					<out>1390</out>
					<start>146621</start>
					<end>-1</end>
					<subframeoffset>0</subframeoffset>
					<logginginfo>
						<scene/>
						<shottake/>
						<lognote/>
						<good>FALSE</good>
					</logginginfo>
					<labels>
						<label2/>
					</labels>
					<comments>
						<mastercomment1/>
						<mastercomment2/>
						<mastercomment3/>
						<mastercomment4/>
					</comments>
					<file id="KT_218_12_Anonymous_Call_Oldman_416872 ">
						<name>KT_218_12_Anonymous_Call_Oldman_416872.wav</name>
						<pathurl>file://localhost/REMEMBERING_GENEVA_STEEL_COLOR/01_MEDIA/AUDIO/KT_218_12_Anonymous_Call_Oldman_416872.wav</pathurl>
						<rate>
							<timebase>30</timebase>
							<ntsc>TRUE</ntsc>
						</rate>
						<duration>1499</duration>
						<media>
							<audio>
								<samplecharacteristics>
									<samplerate>44100</samplerate>
									<depth>16</depth>
								</samplecharacteristics>
								<channelcount>2</channelcount>
							</audio>
						</media>
					</file>
					<filter>
						<effect>
							<name>Audio Levels</name>
							<effectid>audiolevels</effectid>
							<effectcategory>audiolevels</effectcategory>
							<effecttype>audiolevels</effecttype>
							<mediatype>audio</mediatype>
							<parameter>
								<name>Level</name>
								<parameterid>level</parameterid>
								<valuemin>0</valuemin>
								<valuemax>3.98109</valuemax>
								<value>0.316228</value>
							</parameter>
						</effect>
					</filter>
					<filter>
						<effect>
							<name>Audio Pan</name>
							<effectid>audiopan</effectid>
							<effectcategory>audiopan</effectcategory>
							<effecttype>audiopan</effecttype>
							<mediatype>audio</mediatype>
							<parameter>
								<name>Pan</name>
								<parameterid>pan</parameterid>
								<valuemin>-1</valuemin>
								<valuemax>1</valuemax>
								<value>1</value>
							</parameter>
						</effect>
					</filter>
					<sourcetrack>
						<mediatype>audio</mediatype>
						<trackindex>2</trackindex>
					</sourcetrack>
					<itemhistory>
						<uuid>AF121475-EE01-40A4-80B9-B5B3B848E298</uuid>
					</itemhistory>
					<mixedratesoffset>1</mixedratesoffset>
				</clipitem>
				<transitionitem>
					<rate>
						<ntsc>TRUE</ntsc>
						<timebase>30</timebase>
					</rate>
					<start>147717</start>
					<end>148011</end>
					<alignment>end-black</alignment>
					<effect>
						<name>Cross Fade (+3dB)</name>
						<effectid>KGAudioTransCrossFade3dB</effectid>
						<effecttype>transition</effecttype>
						<mediatype>audio</mediatype>
					</effect>
				</transitionitem>
				<clipitem id="09-Closing-B.wav">
					<name>09-Closing-B.wav</name>
					<duration>3761</duration>
					<rate>
						<ntsc>TRUE</ntsc>
						<timebase>30</timebase>
					</rate>
					<in>0</in>
					<out>3761</out>
					<start>150266</start>
					<end>154027</end>
					<logginginfo>
						<scene/>
						<shottake/>
						<lognote/>
						<good>FALSE</good>
					</logginginfo>
					<labels>
						<label2/>
					</labels>
					<comments>
						<mastercomment1/>
						<mastercomment2/>
						<mastercomment3/>
						<mastercomment4/>
					</comments>
					<file id="09-Closing-B">
						<name>09-Closing-B.wav</name>
						<pathurl>file://localhost/REMEMBERING_GENEVA_STEEL_COLOR/01_MEDIA/AUDIO/09-Closing-B.wav</pathurl>
						<rate>
							<timebase>30</timebase>
							<ntsc>TRUE</ntsc>
						</rate>
						<duration>3761</duration>
						<media>
							<audio>
								<samplecharacteristics>
									<samplerate>44100</samplerate>
									<depth>24</depth>
								</samplecharacteristics>
								<channelcount>2</channelcount>
							</audio>
						</media>
					</file>
					<filter>
						<effect>
							<name>Audio Levels</name>
							<effectid>audiolevels</effectid>
							<effectcategory>audiolevels</effectcategory>
							<effecttype>audiolevels</effecttype>
							<mediatype>audio</mediatype>
							<parameter>
								<name>Level</name>
								<parameterid>level</parameterid>
								<valuemin>0</valuemin>
								<valuemax>3.98109</valuemax>
								<keyframe>
									<when>1702.38</when>
									<value>0.251189</value>
								</keyframe>
								<keyframe>
									<when>1882.75</when>
									<value>0.0707946</value>
								</keyframe>
								<interpolation>
									<name>FCPCurve</name>
								</interpolation>
								<value>1</value>
							</parameter>
						</effect>
					</filter>
					<filter>
						<effect>
							<name>Audio Pan</name>
							<effectid>audiopan</effectid>
							<effectcategory>audiopan</effectcategory>
							<effecttype>audiopan</effecttype>
							<mediatype>audio</mediatype>
							<parameter>
								<name>Pan</name>
								<parameterid>pan</parameterid>
								<valuemin>-1</valuemin>
								<valuemax>1</valuemax>
								<value>1</value>
							</parameter>
						</effect>
					</filter>
					<sourcetrack>
						<mediatype>audio</mediatype>
						<trackindex>2</trackindex>
					</sourcetrack>
					<itemhistory>
						<uuid>C2C7A098-70A8-4D39-A19B-EE06A22FE4F4</uuid>
					</itemhistory>
					<mixedratesoffset>1</mixedratesoffset>
				</clipitem>
				<enabled>TRUE</enabled>
				<locked>FALSE</locked>
				<outputchannelindex>2</outputchannelindex>
			</track>
			<track>
				<clipitem id="Slug3">
					<name>Slug</name>
					<duration>7201</duration>
					<rate>
						<ntsc>TRUE</ntsc>
						<timebase>30</timebase>
					</rate>
					<in>1800</in>
					<out>2040</out>
					<start>0</start>
					<end>240</end>
					<logginginfo>
						<scene/>
						<shottake/>
						<lognote/>
						<good>FALSE</good>
					</logginginfo>
					<labels>
						<label2/>
					</labels>
					<comments>
						<mastercomment1/>
						<mastercomment2/>
						<mastercomment3/>
						<mastercomment4/>
					</comments>
					<file id="Slug1"/>
					<filter>
						<effect>
							<name>Audio Levels</name>
							<effectid>audiolevels</effectid>
							<effectcategory>audiolevels</effectcategory>
							<effecttype>audiolevels</effecttype>
							<mediatype>audio</mediatype>
							<parameter>
								<name>Level</name>
								<parameterid>level</parameterid>
								<valuemin>0</valuemin>
								<valuemax>3.98109</valuemax>
								<value>1</value>
							</parameter>
						</effect>
					</filter>
					<filter>
						<effect>
							<name>Audio Pan</name>
							<effectid>audiopan</effectid>
							<effectcategory>audiopan</effectcategory>
							<effecttype>audiopan</effecttype>
							<mediatype>audio</mediatype>
							<parameter>
								<name>Pan</name>
								<parameterid>pan</parameterid>
								<valuemin>-1</valuemin>
								<valuemax>1</valuemax>
								<value>1</value>
							</parameter>
						</effect>
					</filter>
					<sourcetrack>
						<mediatype>audio</mediatype>
						<trackindex>2</trackindex>
					</sourcetrack>
					<itemhistory>
						<uuid>97ABF516-84F8-4D16-8290-7E4BAD02C384</uuid>
						<uuid>4470F866-49D6-4DA5-AE19-8833A03D1968</uuid>
					</itemhistory>
					<mixedratesoffset>1</mixedratesoffset>
				</clipitem>
				<clipitem id="Bars and Tone (NTSC)3">
					<name>Bars and Tone (NTSC)</name>
					<duration>7201</duration>
					<rate>
						<ntsc>FALSE</ntsc>
						<timebase>30</timebase>
					</rate>
					<in>1800</in>
					<out>1801</out>
					<start>240</start>
					<end>241</end>
					<logginginfo>
						<scene/>
						<shottake/>
						<lognote/>
						<good>FALSE</good>
					</logginginfo>
					<labels>
						<label2/>
					</labels>
					<comments>
						<mastercomment1/>
						<mastercomment2/>
						<mastercomment3/>
						<mastercomment4/>
					</comments>
					<file id="Bars and Tone (NTSC)1"/>
					<filter>
						<effect>
							<name>Audio Levels</name>
							<effectid>audiolevels</effectid>
							<effectcategory>audiolevels</effectcategory>
							<effecttype>audiolevels</effecttype>
							<mediatype>audio</mediatype>
							<parameter>
								<name>Level</name>
								<parameterid>level</parameterid>
								<valuemin>0</valuemin>
								<valuemax>3.98109</valuemax>
								<value>0.2513</value>
							</parameter>
						</effect>
					</filter>
					<filter>
						<effect>
							<name>Audio Pan</name>
							<effectid>audiopan</effectid>
							<effectcategory>audiopan</effectcategory>
							<effecttype>audiopan</effecttype>
							<mediatype>audio</mediatype>
							<parameter>
								<name>Pan</name>
								<parameterid>pan</parameterid>
								<valuemin>-1</valuemin>
								<valuemax>1</valuemax>
								<value>1</value>
							</parameter>
						</effect>
					</filter>
					<sourcetrack>
						<mediatype>audio</mediatype>
						<trackindex>2</trackindex>
					</sourcetrack>
					<itemhistory>
						<uuid>E1781761-E05C-4115-AB9D-471568774EAE</uuid>
						<uuid>605B9E44-365A-47F9-8A13-68BD5AD4851C</uuid>
					</itemhistory>
					<mixedratesoffset>1</mixedratesoffset>
				</clipitem>
				<clipitem id="KT_227_10_Whole_New_Beginnings_Wilkerson_441452_A.wav8">
					<name>KT_227_10_Whole_New_Beginnings_Wilkerson_441452_A.wav</name>
					<duration>2980</duration>
					<rate>
						<ntsc>TRUE</ntsc>
						<timebase>30</timebase>
					</rate>
					<in>0</in>
					<out>1472</out>
					<start>5794</start>
					<end>7266</end>
					<logginginfo>
						<scene/>
						<shottake/>
						<lognote/>
						<good>FALSE</good>
					</logginginfo>
					<labels>
						<label2/>
					</labels>
					<comments>
						<mastercomment1/>
						<mastercomment2/>
						<mastercomment3/>
						<mastercomment4/>
					</comments>
					<file id="KT_227_10_Whole_New_Beginnings_Wilkerson_441452_A"/>
					<filter>
						<effect>
							<name>Audio Levels</name>
							<effectid>audiolevels</effectid>
							<effectcategory>audiolevels</effectcategory>
							<effecttype>audiolevels</effecttype>
							<mediatype>audio</mediatype>
							<parameter>
								<name>Level</name>
								<parameterid>level</parameterid>
								<valuemin>0</valuemin>
								<valuemax>3.98109</valuemax>
								<keyframe>
									<when>277.625</when>
									<value>0.794328</value>
								</keyframe>
								<keyframe>
									<when>960.304</when>
									<value>0.251189</value>
								</keyframe>
								<interpolation>
									<name>FCPCurve</name>
								</interpolation>
								<value>1</value>
							</parameter>
						</effect>
					</filter>
					<filter>
						<effect>
							<name>Audio Pan</name>
							<effectid>audiopan</effectid>
							<effectcategory>audiopan</effectcategory>
							<effecttype>audiopan</effecttype>
							<mediatype>audio</mediatype>
							<parameter>
								<name>Pan</name>
								<parameterid>pan</parameterid>
								<valuemin>-1</valuemin>
								<valuemax>1</valuemax>
								<value>1</value>
							</parameter>
						</effect>
					</filter>
					<sourcetrack>
						<mediatype>audio</mediatype>
						<trackindex>2</trackindex>
					</sourcetrack>
					<itemhistory>
						<uuid>DD5DD567-8FD5-462D-A198-B1E4DD1C5A76</uuid>
					</itemhistory>
					<mixedratesoffset>1</mixedratesoffset>
				</clipitem>
				<clipitem id="KT_227_10_Whole_New_Beginnings_Wilkerson_441452_A.wav9">
					<name>KT_227_10_Whole_New_Beginnings_Wilkerson_441452_A.wav</name>
					<duration>2980</duration>
					<rate>
						<ntsc>TRUE</ntsc>
						<timebase>30</timebase>
					</rate>
					<in>1472</in>
					<out>2850</out>
					<start>7266</start>
					<end>8644</end>
					<logginginfo>
						<scene/>
						<shottake/>
						<lognote/>
						<good>FALSE</good>
					</logginginfo>
					<labels>
						<label2/>
					</labels>
					<comments>
						<mastercomment1/>
						<mastercomment2/>
						<mastercomment3/>
						<mastercomment4/>
					</comments>
					<file id="KT_227_10_Whole_New_Beginnings_Wilkerson_441452_A"/>
					<filter>
						<effect>
							<name>Audio Levels</name>
							<effectid>audiolevels</effectid>
							<effectcategory>audiolevels</effectcategory>
							<effecttype>audiolevels</effecttype>
							<mediatype>audio</mediatype>
							<parameter>
								<name>Level</name>
								<parameterid>level</parameterid>
								<valuemin>0</valuemin>
								<valuemax>3.98109</valuemax>
								<keyframe>
									<when>277.625</when>
									<value>0.794328</value>
								</keyframe>
								<keyframe>
									<when>960.304</when>
									<value>0.251189</value>
								</keyframe>
								<interpolation>
									<name>FCPCurve</name>
								</interpolation>
								<value>1</value>
							</parameter>
						</effect>
					</filter>
					<filter>
						<effect>
							<name>Audio Pan</name>
							<effectid>audiopan</effectid>
							<effectcategory>audiopan</effectcategory>
							<effecttype>audiopan</effecttype>
							<mediatype>audio</mediatype>
							<parameter>
								<name>Pan</name>
								<parameterid>pan</parameterid>
								<valuemin>-1</valuemin>
								<valuemax>1</valuemax>
								<value>1</value>
							</parameter>
						</effect>
					</filter>
					<sourcetrack>
						<mediatype>audio</mediatype>
						<trackindex>2</trackindex>
					</sourcetrack>
					<itemhistory>
						<uuid>DD333DD2-6B0C-49F6-BE9E-3DC03377998D</uuid>
					</itemhistory>
					<mixedratesoffset>1</mixedratesoffset>
				</clipitem>
				<transitionitem>
					<rate>
						<ntsc>TRUE</ntsc>
						<timebase>30</timebase>
					</rate>
					<start>8737</start>
					<end>9074</end>
					<alignment>start-black</alignment>
					<effect>
						<name>Cross Fade (+3dB)</name>
						<effectid>KGAudioTransCrossFade3dB</effectid>
						<effecttype>transition</effecttype>
						<mediatype>audio</mediatype>
					</effect>
				</transitionitem>
				<clipitem id="KT_227_10_Whole_New_Beginnings_Wilkerson_441452_A.wav10">
					<name>KT_227_10_Whole_New_Beginnings_Wilkerson_441452_A.wav</name>
					<duration>2980</duration>
					<rate>
						<ntsc>TRUE</ntsc>
						<timebase>30</timebase>
					</rate>
					<in>1472</in>
					<out>2471</out>
					<start>-1</start>
					<end>-1</end>
					<logginginfo>
						<scene/>
						<shottake/>
						<lognote/>
						<good>FALSE</good>
					</logginginfo>
					<labels>
						<label2/>
					</labels>
					<comments>
						<mastercomment1/>
						<mastercomment2/>
						<mastercomment3/>
						<mastercomment4/>
					</comments>
					<file id="KT_227_10_Whole_New_Beginnings_Wilkerson_441452_A"/>
					<filter>
						<effect>
							<name>Audio Levels</name>
							<effectid>audiolevels</effectid>
							<effectcategory>audiolevels</effectcategory>
							<effecttype>audiolevels</effecttype>
							<mediatype>audio</mediatype>
							<parameter>
								<name>Level</name>
								<parameterid>level</parameterid>
								<valuemin>0</valuemin>
								<valuemax>3.98109</valuemax>
								<keyframe>
									<when>277.625</when>
									<value>0.794328</value>
								</keyframe>
								<keyframe>
									<when>960.304</when>
									<value>0.251189</value>
								</keyframe>
								<interpolation>
									<name>FCPCurve</name>
								</interpolation>
								<value>1</value>
							</parameter>
						</effect>
					</filter>
					<filter>
						<effect>
							<name>Audio Pan</name>
							<effectid>audiopan</effectid>
							<effectcategory>audiopan</effectcategory>
							<effecttype>audiopan</effecttype>
							<mediatype>audio</mediatype>
							<parameter>
								<name>Pan</name>
								<parameterid>pan</parameterid>
								<valuemin>-1</valuemin>
								<valuemax>1</valuemax>
								<value>1</value>
							</parameter>
						</effect>
					</filter>
					<sourcetrack>
						<mediatype>audio</mediatype>
						<trackindex>2</trackindex>
					</sourcetrack>
					<itemhistory>
						<uuid>C57E4422-F6F2-4FFA-AF3D-FC61A47812F3</uuid>
					</itemhistory>
					<mixedratesoffset>1</mixedratesoffset>
				</clipitem>
				<transitionitem>
					<rate>
						<ntsc>TRUE</ntsc>
						<timebase>30</timebase>
					</rate>
					<start>9283</start>
					<end>9736</end>
					<alignment>end-black</alignment>
					<effect>
						<name>Cross Fade (+3dB)</name>
						<effectid>KGAudioTransCrossFade3dB</effectid>
						<effecttype>transition</effecttype>
						<mediatype>audio</mediatype>
					</effect>
				</transitionitem>
				<clipitem id="omn17202.wav1">
					<name>omn17202.wav</name>
					<duration>3889</duration>
					<rate>
						<ntsc>TRUE</ntsc>
						<timebase>30</timebase>
					</rate>
					<in>0</in>
					<out>3889</out>
					<start>21191</start>
					<end>25080</end>
					<logginginfo>
						<scene/>
						<shottake/>
						<lognote/>
						<good>FALSE</good>
					</logginginfo>
					<labels>
						<label2/>
					</labels>
					<comments>
						<mastercomment1/>
						<mastercomment2/>
						<mastercomment3/>
						<mastercomment4/>
					</comments>
					<file id="omn17202 "/>
					<filter>
						<effect>
							<name>Audio Levels</name>
							<effectid>audiolevels</effectid>
							<effectcategory>audiolevels</effectcategory>
							<effecttype>audiolevels</effecttype>
							<mediatype>audio</mediatype>
							<parameter>
								<name>Level</name>
								<parameterid>level</parameterid>
								<valuemin>0</valuemin>
								<valuemax>3.98109</valuemax>
								<value>0.0281838</value>
							</parameter>
						</effect>
					</filter>
					<filter>
						<effect>
							<name>Audio Pan</name>
							<effectid>audiopan</effectid>
							<effectcategory>audiopan</effectcategory>
							<effecttype>audiopan</effecttype>
							<mediatype>audio</mediatype>
							<parameter>
								<name>Pan</name>
								<parameterid>pan</parameterid>
								<valuemin>-1</valuemin>
								<valuemax>1</valuemax>
								<value>1</value>
							</parameter>
						</effect>
					</filter>
					<sourcetrack>
						<mediatype>audio</mediatype>
						<trackindex>2</trackindex>
					</sourcetrack>
					<itemhistory>
						<uuid>6B0C0C1D-5056-493A-BACA-671BD9EE5F65</uuid>
					</itemhistory>
					<mixedratesoffset>1</mixedratesoffset>
				</clipitem>
				<clipitem id="NYB_NYB98_10_The_Front_Lines_Telford_444121.wav">
					<name>NYB_NYB98_10_The_Front_Lines_Telford_444121.wav</name>
					<duration>3557</duration>
					<rate>
						<ntsc>TRUE</ntsc>
						<timebase>30</timebase>
					</rate>
					<in>0</in>
					<out>409</out>
					<start>28914</start>
					<end>-1</end>
					<subframeoffset>0</subframeoffset>
					<logginginfo>
						<scene/>
						<shottake/>
						<lognote/>
						<good>FALSE</good>
					</logginginfo>
					<labels>
						<label2/>
					</labels>
					<comments>
						<mastercomment1/>
						<mastercomment2/>
						<mastercomment3/>
						<mastercomment4/>
					</comments>
					<file id="NYB_NYB98_10_The_Front_Lines_Telford_444121 ">
						<name>NYB_NYB98_10_The_Front_Lines_Telford_444121.wav</name>
						<pathurl>file://localhost/REMEMBERING_GENEVA_STEEL_COLOR/01_MEDIA/AUDIO/NYB_NYB98_10_The_Front_Lines_Telford_444121.wav</pathurl>
						<rate>
							<timebase>30</timebase>
							<ntsc>TRUE</ntsc>
						</rate>
						<duration>3557</duration>
						<media>
							<audio>
								<samplecharacteristics>
									<samplerate>44100</samplerate>
									<depth>16</depth>
								</samplecharacteristics>
								<channelcount>2</channelcount>
							</audio>
						</media>
					</file>
					<filter>
						<effect>
							<name>Audio Levels</name>
							<effectid>audiolevels</effectid>
							<effectcategory>audiolevels</effectcategory>
							<effecttype>audiolevels</effecttype>
							<mediatype>audio</mediatype>
							<parameter>
								<name>Level</name>
								<parameterid>level</parameterid>
								<valuemin>0</valuemin>
								<valuemax>3.98109</valuemax>
								<value>0.1</value>
							</parameter>
						</effect>
					</filter>
					<filter>
						<effect>
							<name>Audio Pan</name>
							<effectid>audiopan</effectid>
							<effectcategory>audiopan</effectcategory>
							<effecttype>audiopan</effecttype>
							<mediatype>audio</mediatype>
							<parameter>
								<name>Pan</name>
								<parameterid>pan</parameterid>
								<valuemin>-1</valuemin>
								<valuemax>1</valuemax>
								<value>1</value>
							</parameter>
						</effect>
					</filter>
					<sourcetrack>
						<mediatype>audio</mediatype>
						<trackindex>2</trackindex>
					</sourcetrack>
					<itemhistory>
						<uuid>B756EFCA-3295-42F1-8300-108C6313FDE3</uuid>
					</itemhistory>
					<mixedratesoffset>1</mixedratesoffset>
				</clipitem>
				<transitionitem>
					<rate>
						<ntsc>TRUE</ntsc>
						<timebase>30</timebase>
					</rate>
					<start>29293</start>
					<end>29323</end>
					<alignment>end</alignment>
					<effect>
						<name>Cross Fade (+3dB)</name>
						<effectid>KGAudioTransCrossFade3dB</effectid>
						<effecttype>transition</effecttype>
						<mediatype>audio</mediatype>
					</effect>
				</transitionitem>
				<clipitem id="NYB_NYB98_10_The_Front_Lines_Telford_444121.wav1">
					<name>NYB_NYB98_10_The_Front_Lines_Telford_444121.wav</name>
					<duration>3557</duration>
					<rate>
						<ntsc>TRUE</ntsc>
						<timebase>30</timebase>
					</rate>
					<in>750</in>
					<out>2634</out>
					<start>-1</start>
					<end>-1</end>
					<subframeoffset>0</subframeoffset>
					<logginginfo>
						<scene/>
						<shottake/>
						<lognote/>
						<good>FALSE</good>
					</logginginfo>
					<labels>
						<label2/>
					</labels>
					<comments>
						<mastercomment1/>
						<mastercomment2/>
						<mastercomment3/>
						<mastercomment4/>
					</comments>
					<file id="NYB_NYB98_10_The_Front_Lines_Telford_444121 "/>
					<filter>
						<effect>
							<name>Audio Levels</name>
							<effectid>audiolevels</effectid>
							<effectcategory>audiolevels</effectcategory>
							<effecttype>audiolevels</effecttype>
							<mediatype>audio</mediatype>
							<parameter>
								<name>Level</name>
								<parameterid>level</parameterid>
								<valuemin>0</valuemin>
								<valuemax>3.98109</valuemax>
								<value>0.1</value>
							</parameter>
						</effect>
					</filter>
					<filter>
						<effect>
							<name>Audio Pan</name>
							<effectid>audiopan</effectid>
							<effectcategory>audiopan</effectcategory>
							<effecttype>audiopan</effecttype>
							<mediatype>audio</mediatype>
							<parameter>
								<name>Pan</name>
								<parameterid>pan</parameterid>
								<valuemin>-1</valuemin>
								<valuemax>1</valuemax>
								<value>1</value>
							</parameter>
						</effect>
					</filter>
					<sourcetrack>
						<mediatype>audio</mediatype>
						<trackindex>2</trackindex>
					</sourcetrack>
					<itemhistory>
						<uuid>7AA651AA-B735-4D88-946D-5272ABE70BAF</uuid>
					</itemhistory>
					<mixedratesoffset>1</mixedratesoffset>
				</clipitem>
				<transitionitem>
					<rate>
						<ntsc>TRUE</ntsc>
						<timebase>30</timebase>
					</rate>
					<start>31147</start>
					<end>31177</end>
					<alignment>end</alignment>
					<effect>
						<name>Cross Fade (+3dB)</name>
						<effectid>KGAudioTransCrossFade3dB</effectid>
						<effecttype>transition</effecttype>
						<mediatype>audio</mediatype>
					</effect>
				</transitionitem>
				<clipitem id="NYB_NYB98_10_The_Front_Lines_Telford_444121.wav2">
					<name>NYB_NYB98_10_The_Front_Lines_Telford_444121.wav</name>
					<duration>3557</duration>
					<rate>
						<ntsc>TRUE</ntsc>
						<timebase>30</timebase>
					</rate>
					<in>2941</in>
					<out>3557</out>
					<start>-1</start>
					<end>31763</end>
					<subframeoffset>0</subframeoffset>
					<logginginfo>
						<scene/>
						<shottake/>
						<lognote/>
						<good>FALSE</good>
					</logginginfo>
					<labels>
						<label2/>
					</labels>
					<comments>
						<mastercomment1/>
						<mastercomment2/>
						<mastercomment3/>
						<mastercomment4/>
					</comments>
					<file id="NYB_NYB98_10_The_Front_Lines_Telford_444121 "/>
					<filter>
						<effect>
							<name>Audio Levels</name>
							<effectid>audiolevels</effectid>
							<effectcategory>audiolevels</effectcategory>
							<effecttype>audiolevels</effecttype>
							<mediatype>audio</mediatype>
							<parameter>
								<name>Level</name>
								<parameterid>level</parameterid>
								<valuemin>0</valuemin>
								<valuemax>3.98109</valuemax>
								<value>0.1</value>
							</parameter>
						</effect>
					</filter>
					<filter>
						<effect>
							<name>Audio Pan</name>
							<effectid>audiopan</effectid>
							<effectcategory>audiopan</effectcategory>
							<effecttype>audiopan</effecttype>
							<mediatype>audio</mediatype>
							<parameter>
								<name>Pan</name>
								<parameterid>pan</parameterid>
								<valuemin>-1</valuemin>
								<valuemax>1</valuemax>
								<value>1</value>
							</parameter>
						</effect>
					</filter>
					<sourcetrack>
						<mediatype>audio</mediatype>
						<trackindex>2</trackindex>
					</sourcetrack>
					<itemhistory>
						<uuid>529610FE-6836-4DA6-99A9-4667DEA7A658</uuid>
					</itemhistory>
					<mixedratesoffset>1</mixedratesoffset>
				</clipitem>
				<clipitem id="KOK_2324_13_Love_Stream_Davoli_452370.wav">
					<name>KOK_2324_13_Love_Stream_Davoli_452370.wav</name>
					<duration>3337</duration>
					<rate>
						<ntsc>TRUE</ntsc>
						<timebase>30</timebase>
					</rate>
					<in>0</in>
					<out>1863</out>
					<start>32693</start>
					<end>-1</end>
					<subframeoffset>0</subframeoffset>
					<logginginfo>
						<scene/>
						<shottake/>
						<lognote/>
						<good>FALSE</good>
					</logginginfo>
					<labels>
						<label2/>
					</labels>
					<comments>
						<mastercomment1/>
						<mastercomment2/>
						<mastercomment3/>
						<mastercomment4/>
					</comments>
					<file id="KOK_2324_13_Love_Stream_Davoli_452370 ">
						<name>KOK_2324_13_Love_Stream_Davoli_452370.wav</name>
						<pathurl>file://localhost/REMEMBERING_GENEVA_STEEL_COLOR/01_MEDIA/AUDIO/KOK_2324_13_Love_Stream_Davoli_452370.wav</pathurl>
						<rate>
							<timebase>30</timebase>
							<ntsc>TRUE</ntsc>
						</rate>
						<duration>3337</duration>
						<media>
							<audio>
								<samplecharacteristics>
									<samplerate>44100</samplerate>
									<depth>16</depth>
								</samplecharacteristics>
								<channelcount>2</channelcount>
							</audio>
						</media>
					</file>
					<filter>
						<effect>
							<name>Audio Levels</name>
							<effectid>audiolevels</effectid>
							<effectcategory>audiolevels</effectcategory>
							<effecttype>audiolevels</effecttype>
							<mediatype>audio</mediatype>
							<parameter>
								<name>Level</name>
								<parameterid>level</parameterid>
								<valuemin>0</valuemin>
								<valuemax>3.98109</valuemax>
								<value>0.0707946</value>
							</parameter>
						</effect>
					</filter>
					<filter>
						<effect>
							<name>Audio Pan</name>
							<effectid>audiopan</effectid>
							<effectcategory>audiopan</effectcategory>
							<effecttype>audiopan</effecttype>
							<mediatype>audio</mediatype>
							<parameter>
								<name>Pan</name>
								<parameterid>pan</parameterid>
								<valuemin>-1</valuemin>
								<valuemax>1</valuemax>
								<value>1</value>
							</parameter>
						</effect>
					</filter>
					<sourcetrack>
						<mediatype>audio</mediatype>
						<trackindex>2</trackindex>
					</sourcetrack>
					<itemhistory>
						<uuid>EA52C5BE-47D9-4974-A319-546EAFD0BF32</uuid>
					</itemhistory>
					<mixedratesoffset>1</mixedratesoffset>
				</clipitem>
				<transitionitem>
					<rate>
						<ntsc>TRUE</ntsc>
						<timebase>30</timebase>
					</rate>
					<start>34526</start>
					<end>34556</end>
					<alignment>center</alignment>
					<effect>
						<name>Cross Fade (+3dB)</name>
						<effectid>KGAudioTransCrossFade3dB</effectid>
						<effecttype>transition</effecttype>
						<mediatype>audio</mediatype>
					</effect>
				</transitionitem>
				<clipitem id="KOK_2324_13_Love_Stream_Davoli_452370.wav1">
					<name>KOK_2324_13_Love_Stream_Davoli_452370.wav</name>
					<duration>3337</duration>
					<rate>
						<ntsc>TRUE</ntsc>
						<timebase>30</timebase>
					</rate>
					<in>88</in>
					<out>2215</out>
					<start>-1</start>
					<end>-1</end>
					<subframeoffset>0</subframeoffset>
					<logginginfo>
						<scene/>
						<shottake/>
						<lognote/>
						<good>FALSE</good>
					</logginginfo>
					<labels>
						<label2/>
					</labels>
					<comments>
						<mastercomment1/>
						<mastercomment2/>
						<mastercomment3/>
						<mastercomment4/>
					</comments>
					<file id="KOK_2324_13_Love_Stream_Davoli_452370 "/>
					<filter>
						<effect>
							<name>Audio Levels</name>
							<effectid>audiolevels</effectid>
							<effectcategory>audiolevels</effectcategory>
							<effecttype>audiolevels</effecttype>
							<mediatype>audio</mediatype>
							<parameter>
								<name>Level</name>
								<parameterid>level</parameterid>
								<valuemin>0</valuemin>
								<valuemax>3.98109</valuemax>
								<keyframe>
									<when>1880</when>
									<value>0.125893</value>
								</keyframe>
								<keyframe>
									<when>1950</when>
									<value>0.501187</value>
								</keyframe>
								<interpolation>
									<name>FCPCurve</name>
								</interpolation>
								<value>1</value>
							</parameter>
						</effect>
					</filter>
					<filter>
						<effect>
							<name>Audio Pan</name>
							<effectid>audiopan</effectid>
							<effectcategory>audiopan</effectcategory>
							<effecttype>audiopan</effecttype>
							<mediatype>audio</mediatype>
							<parameter>
								<name>Pan</name>
								<parameterid>pan</parameterid>
								<valuemin>-1</valuemin>
								<valuemax>1</valuemax>
								<value>1</value>
							</parameter>
						</effect>
					</filter>
					<sourcetrack>
						<mediatype>audio</mediatype>
						<trackindex>2</trackindex>
					</sourcetrack>
					<itemhistory>
						<uuid>3B14A20F-F426-4EB6-90BD-D8BB505555B7</uuid>
					</itemhistory>
					<mixedratesoffset>1</mixedratesoffset>
				</clipitem>
				<transitionitem>
					<rate>
						<ntsc>TRUE</ntsc>
						<timebase>30</timebase>
					</rate>
					<start>36623</start>
					<end>36653</end>
					<alignment>start</alignment>
					<effect>
						<name>Cross Fade (+3dB)</name>
						<effectid>KGAudioTransCrossFade3dB</effectid>
						<effecttype>transition</effecttype>
						<mediatype>audio</mediatype>
					</effect>
				</transitionitem>
				<clipitem id="KOK_2324_13_Love_Stream_Davoli_452370.wav2">
					<name>KOK_2324_13_Love_Stream_Davoli_452370.wav</name>
					<duration>3337</duration>
					<rate>
						<ntsc>TRUE</ntsc>
						<timebase>30</timebase>
					</rate>
					<in>1948</in>
					<out>2937</out>
					<start>-1</start>
					<end>-1</end>
					<subframeoffset>0</subframeoffset>
					<logginginfo>
						<scene/>
						<shottake/>
						<lognote/>
						<good>FALSE</good>
					</logginginfo>
					<labels>
						<label2/>
					</labels>
					<comments>
						<mastercomment1/>
						<mastercomment2/>
						<mastercomment3/>
						<mastercomment4/>
					</comments>
					<file id="KOK_2324_13_Love_Stream_Davoli_452370 "/>
					<filter>
						<effect>
							<name>Audio Levels</name>
							<effectid>audiolevels</effectid>
							<effectcategory>audiolevels</effectcategory>
							<effecttype>audiolevels</effecttype>
							<mediatype>audio</mediatype>
							<parameter>
								<name>Level</name>
								<parameterid>level</parameterid>
								<valuemin>0</valuemin>
								<valuemax>3.98109</valuemax>
								<value>0.501187</value>
							</parameter>
						</effect>
					</filter>
					<filter>
						<effect>
							<name>Audio Pan</name>
							<effectid>audiopan</effectid>
							<effectcategory>audiopan</effectcategory>
							<effecttype>audiopan</effecttype>
							<mediatype>audio</mediatype>
							<parameter>
								<name>Pan</name>
								<parameterid>pan</parameterid>
								<valuemin>-1</valuemin>
								<valuemax>1</valuemax>
								<value>1</value>
							</parameter>
						</effect>
					</filter>
					<sourcetrack>
						<mediatype>audio</mediatype>
						<trackindex>2</trackindex>
					</sourcetrack>
					<itemhistory>
						<uuid>5AA5070A-D643-4CC7-90DA-F67A20CCF18A</uuid>
					</itemhistory>
					<mixedratesoffset>1</mixedratesoffset>
				</clipitem>
				<transitionitem>
					<rate>
						<ntsc>TRUE</ntsc>
						<timebase>30</timebase>
					</rate>
					<start>37582</start>
					<end>37612</end>
					<alignment>start</alignment>
					<effect>
						<name>Cross Fade (+3dB)</name>
						<effectid>KGAudioTransCrossFade3dB</effectid>
						<effecttype>transition</effecttype>
						<mediatype>audio</mediatype>
					</effect>
				</transitionitem>
				<clipitem id="KOK_2324_13_Love_Stream_Davoli_452370.wav3">
					<name>KOK_2324_13_Love_Stream_Davoli_452370.wav</name>
					<duration>3337</duration>
					<rate>
						<ntsc>TRUE</ntsc>
						<timebase>30</timebase>
					</rate>
					<in>2666</in>
					<out>3337</out>
					<start>-1</start>
					<end>-1</end>
					<subframeoffset>0</subframeoffset>
					<logginginfo>
						<scene/>
						<shottake/>
						<lognote/>
						<good>FALSE</good>
					</logginginfo>
					<labels>
						<label2/>
					</labels>
					<comments>
						<mastercomment1/>
						<mastercomment2/>
						<mastercomment3/>
						<mastercomment4/>
					</comments>
					<file id="KOK_2324_13_Love_Stream_Davoli_452370 "/>
					<filter>
						<effect>
							<name>Audio Levels</name>
							<effectid>audiolevels</effectid>
							<effectcategory>audiolevels</effectcategory>
							<effecttype>audiolevels</effecttype>
							<mediatype>audio</mediatype>
							<parameter>
								<name>Level</name>
								<parameterid>level</parameterid>
								<valuemin>0</valuemin>
								<valuemax>3.98109</valuemax>
								<value>0.501187</value>
							</parameter>
						</effect>
					</filter>
					<filter>
						<effect>
							<name>Audio Pan</name>
							<effectid>audiopan</effectid>
							<effectcategory>audiopan</effectcategory>
							<effecttype>audiopan</effecttype>
							<mediatype>audio</mediatype>
							<parameter>
								<name>Pan</name>
								<parameterid>pan</parameterid>
								<valuemin>-1</valuemin>
								<valuemax>1</valuemax>
								<value>1</value>
							</parameter>
						</effect>
					</filter>
					<sourcetrack>
						<mediatype>audio</mediatype>
						<trackindex>2</trackindex>
					</sourcetrack>
					<itemhistory>
						<uuid>DB3EA19F-7CFE-4D98-8F35-515EDCDA6999</uuid>
					</itemhistory>
					<mixedratesoffset>1</mixedratesoffset>
				</clipitem>
				<transitionitem>
					<rate>
						<ntsc>TRUE</ntsc>
						<timebase>30</timebase>
					</rate>
					<start>38223</start>
					<end>38253</end>
					<alignment>end-black</alignment>
					<effect>
						<name>Cross Fade (+3dB)</name>
						<effectid>KGAudioTransCrossFade3dB</effectid>
						<effecttype>transition</effecttype>
						<mediatype>audio</mediatype>
					</effect>
				</transitionitem>
				<clipitem id="08-Transition-Theme-A.wav1">
					<name>08-Transition-Theme-A.wav</name>
					<duration>598</duration>
					<rate>
						<ntsc>TRUE</ntsc>
						<timebase>30</timebase>
					</rate>
					<in>0</in>
					<out>598</out>
					<start>42352</start>
					<end>42950</end>
					<logginginfo>
						<scene/>
						<shottake/>
						<lognote/>
						<good>FALSE</good>
					</logginginfo>
					<labels>
						<label2/>
					</labels>
					<comments>
						<mastercomment1/>
						<mastercomment2/>
						<mastercomment3/>
						<mastercomment4/>
					</comments>
					<file id="08-Transition-Theme"/>
					<filter>
						<effect>
							<name>Audio Levels</name>
							<effectid>audiolevels</effectid>
							<effectcategory>audiolevels</effectcategory>
							<effecttype>audiolevels</effecttype>
							<mediatype>audio</mediatype>
							<parameter>
								<name>Level</name>
								<parameterid>level</parameterid>
								<valuemin>0</valuemin>
								<valuemax>3.98109</valuemax>
								<value>0.354813</value>
							</parameter>
						</effect>
					</filter>
					<filter>
						<effect>
							<name>Audio Pan</name>
							<effectid>audiopan</effectid>
							<effectcategory>audiopan</effectcategory>
							<effecttype>audiopan</effecttype>
							<mediatype>audio</mediatype>
							<parameter>
								<name>Pan</name>
								<parameterid>pan</parameterid>
								<valuemin>-1</valuemin>
								<valuemax>1</valuemax>
								<value>1</value>
							</parameter>
						</effect>
					</filter>
					<sourcetrack>
						<mediatype>audio</mediatype>
						<trackindex>2</trackindex>
					</sourcetrack>
					<itemhistory>
						<uuid>C4F457A0-87C4-47C4-9355-DA2649D02C2C</uuid>
					</itemhistory>
					<mixedratesoffset>1</mixedratesoffset>
				</clipitem>
				<clipitem id="05-Women-At-Geneva-C-AIFF 48/16.aiff">
					<name>05-Women-At-Geneva-C-AIFF 48/16.aiff</name>
					<duration>9232</duration>
					<rate>
						<ntsc>TRUE</ntsc>
						<timebase>30</timebase>
					</rate>
					<in>0</in>
					<out>9232</out>
					<start>55352</start>
					<end>64584</end>
					<logginginfo>
						<scene/>
						<shottake/>
						<lognote/>
						<good>FALSE</good>
					</logginginfo>
					<labels>
						<label2/>
					</labels>
					<comments>
						<mastercomment1/>
						<mastercomment2/>
						<mastercomment3/>
						<mastercomment4/>
					</comments>
					<file id="05-Women-At-Geneva-C-AIFF 48/16 ">
						<name>05-Women-At-Geneva-C-AIFF 48/16.aiff</name>
						<pathurl>file://localhost/REMEMBERING_GENEVA_STEEL_COLOR/01_MEDIA/AUDIO/05-Women-At-Geneva-C-AIFF%2048:16.aiff</pathurl>
						<rate>
							<timebase>30</timebase>
							<ntsc>TRUE</ntsc>
						</rate>
						<duration>9232</duration>
						<media>
							<audio>
								<samplecharacteristics>
									<samplerate>48000</samplerate>
									<depth>16</depth>
								</samplecharacteristics>
								<channelcount>2</channelcount>
							</audio>
						</media>
					</file>
					<filter>
						<effect>
							<name>Audio Levels</name>
							<effectid>audiolevels</effectid>
							<effectcategory>audiolevels</effectcategory>
							<effecttype>audiolevels</effecttype>
							<mediatype>audio</mediatype>
							<parameter>
								<name>Level</name>
								<parameterid>level</parameterid>
								<valuemin>0</valuemin>
								<valuemax>3.98109</valuemax>
								<keyframe>
									<when>2267.68</when>
									<value>0.177828</value>
								</keyframe>
								<keyframe>
									<when>2333.25</when>
									<value>0.446684</value>
								</keyframe>
								<keyframe>
									<when>2398.82</when>
									<value>0.177828</value>
								</keyframe>
								<keyframe>
									<when>8662.77</when>
									<value>0.177828</value>
								</keyframe>
								<keyframe>
									<when>8820.54</when>
									<value>0.0707946</value>
								</keyframe>
								<interpolation>
									<name>FCPCurve</name>
								</interpolation>
								<value>1</value>
							</parameter>
						</effect>
					</filter>
					<filter>
						<effect>
							<name>Audio Pan</name>
							<effectid>audiopan</effectid>
							<effectcategory>audiopan</effectcategory>
							<effecttype>audiopan</effecttype>
							<mediatype>audio</mediatype>
							<parameter>
								<name>Pan</name>
								<parameterid>pan</parameterid>
								<valuemin>-1</valuemin>
								<valuemax>1</valuemax>
								<value>1</value>
							</parameter>
						</effect>
					</filter>
					<sourcetrack>
						<mediatype>audio</mediatype>
						<trackindex>2</trackindex>
					</sourcetrack>
					<itemhistory>
						<uuid>016EF62F-B196-4B59-9523-08F895542DF4</uuid>
					</itemhistory>
					<mixedratesoffset>1</mixedratesoffset>
				</clipitem>
				<transitionitem>
					<rate>
						<ntsc>TRUE</ntsc>
						<timebase>30</timebase>
					</rate>
					<start>66879</start>
					<end>66972</end>
					<alignment>start-black</alignment>
					<effect>
						<name>Cross Fade (+3dB)</name>
						<effectid>KGAudioTransCrossFade3dB</effectid>
						<effecttype>transition</effecttype>
						<mediatype>audio</mediatype>
					</effect>
				</transitionitem>
				<clipitem id="KT_227_11_Mesmerized_Housewives_Wilkerson_441456_A.wav5">
					<name>KT_227_11_Mesmerized_Housewives_Wilkerson_441456_A.wav</name>
					<duration>3563</duration>
					<rate>
						<ntsc>TRUE</ntsc>
						<timebase>30</timebase>
					</rate>
					<in>2933</in>
					<out>3287</out>
					<start>-1</start>
					<end>-1</end>
					<logginginfo>
						<scene/>
						<shottake/>
						<lognote/>
						<good>FALSE</good>
					</logginginfo>
					<labels>
						<label2/>
					</labels>
					<comments>
						<mastercomment1/>
						<mastercomment2/>
						<mastercomment3/>
						<mastercomment4/>
					</comments>
					<file id="KT_227_11_Mesmerized_Housewives_Wilkerson_441456_A"/>
					<filter>
						<effect>
							<name>Audio Levels</name>
							<effectid>audiolevels</effectid>
							<effectcategory>audiolevels</effectcategory>
							<effecttype>audiolevels</effecttype>
							<mediatype>audio</mediatype>
							<parameter>
								<name>Level</name>
								<parameterid>level</parameterid>
								<valuemin>0</valuemin>
								<valuemax>3.98109</valuemax>
								<keyframe>
									<when>1569.57</when>
									<value>0.223872</value>
								</keyframe>
								<keyframe>
									<when>1617</when>
									<value>0.398107</value>
								</keyframe>
								<interpolation>
									<name>FCPCurve</name>
								</interpolation>
								<value>1</value>
							</parameter>
						</effect>
					</filter>
					<filter>
						<effect>
							<name>Audio Pan</name>
							<effectid>audiopan</effectid>
							<effectcategory>audiopan</effectcategory>
							<effecttype>audiopan</effecttype>
							<mediatype>audio</mediatype>
							<parameter>
								<name>Pan</name>
								<parameterid>pan</parameterid>
								<valuemin>-1</valuemin>
								<valuemax>1</valuemax>
								<value>1</value>
							</parameter>
						</effect>
					</filter>
					<sourcetrack>
						<mediatype>audio</mediatype>
						<trackindex>2</trackindex>
					</sourcetrack>
					<itemhistory>
						<uuid>45DFB5B0-38AB-4BAF-9FF8-DF66A5200902</uuid>
					</itemhistory>
					<mixedratesoffset>1</mixedratesoffset>
				</clipitem>
				<transitionitem>
					<rate>
						<ntsc>TRUE</ntsc>
						<timebase>30</timebase>
					</rate>
					<start>67060</start>
					<end>67233</end>
					<alignment>end-black</alignment>
					<effect>
						<name>Cross Fade ( 0dB)</name>
						<effectid>KGAudioTransCrossFade0dB</effectid>
						<effecttype>transition</effecttype>
						<mediatype>audio</mediatype>
					</effect>
				</transitionitem>
				<clipitem id="NM_302_12_Looming_Ahead_Baker_457567.wav">
					<name>NM_302_12_Looming_Ahead_Baker_457567.wav</name>
					<duration>3870</duration>
					<rate>
						<ntsc>TRUE</ntsc>
						<timebase>30</timebase>
					</rate>
					<in>0</in>
					<out>2744</out>
					<start>77258</start>
					<end>-1</end>
					<subframeoffset>0</subframeoffset>
					<logginginfo>
						<scene/>
						<shottake/>
						<lognote/>
						<good>FALSE</good>
					</logginginfo>
					<labels>
						<label2/>
					</labels>
					<comments>
						<mastercomment1/>
						<mastercomment2/>
						<mastercomment3/>
						<mastercomment4/>
					</comments>
					<file id="NM_302_12_Looming_Ahead_Baker_457567 ">
						<name>NM_302_12_Looming_Ahead_Baker_457567.wav</name>
						<pathurl>file://localhost/REMEMBERING_GENEVA_STEEL_COLOR/01_MEDIA/AUDIO/NM_302_12_Looming_Ahead_Baker_457567.wav</pathurl>
						<rate>
							<timebase>30</timebase>
							<ntsc>TRUE</ntsc>
						</rate>
						<duration>3870</duration>
						<media>
							<audio>
								<samplecharacteristics>
									<samplerate>44100</samplerate>
									<depth>16</depth>
								</samplecharacteristics>
								<channelcount>2</channelcount>
							</audio>
						</media>
					</file>
					<filter>
						<effect>
							<name>Audio Levels</name>
							<effectid>audiolevels</effectid>
							<effectcategory>audiolevels</effectcategory>
							<effecttype>audiolevels</effecttype>
							<mediatype>audio</mediatype>
							<parameter>
								<name>Level</name>
								<parameterid>level</parameterid>
								<valuemin>0</valuemin>
								<valuemax>3.98109</valuemax>
								<value>0.125893</value>
							</parameter>
						</effect>
					</filter>
					<filter>
						<effect>
							<name>Audio Pan</name>
							<effectid>audiopan</effectid>
							<effectcategory>audiopan</effectcategory>
							<effecttype>audiopan</effecttype>
							<mediatype>audio</mediatype>
							<parameter>
								<name>Pan</name>
								<parameterid>pan</parameterid>
								<valuemin>-1</valuemin>
								<valuemax>1</valuemax>
								<value>1</value>
							</parameter>
						</effect>
					</filter>
					<sourcetrack>
						<mediatype>audio</mediatype>
						<trackindex>2</trackindex>
					</sourcetrack>
					<itemhistory>
						<uuid>2BC73976-D3CE-4C6E-80A1-4D6AA44840AD</uuid>
					</itemhistory>
					<mixedratesoffset>1</mixedratesoffset>
				</clipitem>
				<transitionitem>
					<rate>
						<ntsc>TRUE</ntsc>
						<timebase>30</timebase>
					</rate>
					<start>79666</start>
					<end>80002</end>
					<alignment>end-black</alignment>
					<effect>
						<name>Cross Fade (+3dB)</name>
						<effectid>KGAudioTransCrossFade3dB</effectid>
						<effecttype>transition</effecttype>
						<mediatype>audio</mediatype>
					</effect>
				</transitionitem>
				<clipitem id="KT_206_16_Bayview_Bagley_375907 2">
					<name>KT_206_16_Bayview_Bagley_375907</name>
					<duration>4735</duration>
					<rate>
						<ntsc>TRUE</ntsc>
						<timebase>30</timebase>
					</rate>
					<in>0</in>
					<out>4735</out>
					<start>107526</start>
					<end>112261</end>
					<logginginfo>
						<scene/>
						<shottake/>
						<lognote/>
						<good>FALSE</good>
					</logginginfo>
					<labels>
						<label2/>
					</labels>
					<comments>
						<mastercomment1/>
						<mastercomment2/>
						<mastercomment3/>
						<mastercomment4/>
					</comments>
					<file id="KT_206_16_Bayview_Bagley_375907 1"/>
					<filter>
						<effect>
							<name>Audio Levels</name>
							<effectid>audiolevels</effectid>
							<effectcategory>audiolevels</effectcategory>
							<effecttype>audiolevels</effecttype>
							<mediatype>audio</mediatype>
							<parameter>
								<name>Level</name>
								<parameterid>level</parameterid>
								<valuemin>0</valuemin>
								<valuemax>3.98109</valuemax>
								<value>0.0446684</value>
							</parameter>
						</effect>
					</filter>
					<filter>
						<effect>
							<name>Audio Pan</name>
							<effectid>audiopan</effectid>
							<effectcategory>audiopan</effectcategory>
							<effecttype>audiopan</effecttype>
							<mediatype>audio</mediatype>
							<parameter>
								<name>Pan</name>
								<parameterid>pan</parameterid>
								<valuemin>-1</valuemin>
								<valuemax>1</valuemax>
								<value>1</value>
							</parameter>
						</effect>
					</filter>
					<sourcetrack>
						<mediatype>audio</mediatype>
						<trackindex>2</trackindex>
					</sourcetrack>
					<itemhistory>
						<uuid>0467F916-1DF0-45BE-BA1D-7668BF283E1B</uuid>
					</itemhistory>
					<mixedratesoffset>1</mixedratesoffset>
				</clipitem>
				<clipitem id="KT_227_10_Whole_New_Beginnings_Wilkerson_441452.wav">
					<name>KT_227_10_Whole_New_Beginnings_Wilkerson_441452.wav</name>
					<duration>2865</duration>
					<rate>
						<ntsc>TRUE</ntsc>
						<timebase>30</timebase>
					</rate>
					<in>0</in>
					<out>2865</out>
					<start>118327</start>
					<end>121192</end>
					<logginginfo>
						<scene/>
						<shottake/>
						<lognote/>
						<good>FALSE</good>
					</logginginfo>
					<labels>
						<label2/>
					</labels>
					<comments>
						<mastercomment1/>
						<mastercomment2/>
						<mastercomment3/>
						<mastercomment4/>
					</comments>
					<file id="KT_227_10_Whole_New_Beginnings_Wilkerson_441452 ">
						<name>KT_227_10_Whole_New_Beginnings_Wilkerson_441452.wav</name>
						<pathurl>file://localhost/REMEMBERING_GENEVA_STEEL_COLOR/01_MEDIA/AUDIO/KT_227_10_Whole_New_Beginnings_Wilkerson_441452.wav</pathurl>
						<rate>
							<timebase>30</timebase>
							<ntsc>TRUE</ntsc>
						</rate>
						<duration>2865</duration>
						<media>
							<audio>
								<samplecharacteristics>
									<samplerate>44100</samplerate>
									<depth>16</depth>
								</samplecharacteristics>
								<channelcount>2</channelcount>
							</audio>
						</media>
					</file>
					<filter>
						<effect>
							<name>Audio Levels</name>
							<effectid>audiolevels</effectid>
							<effectcategory>audiolevels</effectcategory>
							<effecttype>audiolevels</effecttype>
							<mediatype>audio</mediatype>
							<parameter>
								<name>Level</name>
								<parameterid>level</parameterid>
								<valuemin>0</valuemin>
								<valuemax>3.98109</valuemax>
								<value>0.251189</value>
							</parameter>
						</effect>
					</filter>
					<filter>
						<effect>
							<name>Audio Pan</name>
							<effectid>audiopan</effectid>
							<effectcategory>audiopan</effectcategory>
							<effecttype>audiopan</effecttype>
							<mediatype>audio</mediatype>
							<parameter>
								<name>Pan</name>
								<parameterid>pan</parameterid>
								<valuemin>-1</valuemin>
								<valuemax>1</valuemax>
								<value>1</value>
							</parameter>
						</effect>
					</filter>
					<sourcetrack>
						<mediatype>audio</mediatype>
						<trackindex>2</trackindex>
					</sourcetrack>
					<itemhistory>
						<uuid>F822322D-D955-45B9-ACF5-2A0F14A3935D</uuid>
					</itemhistory>
					<mixedratesoffset>1</mixedratesoffset>
				</clipitem>
				<transitionitem>
					<rate>
						<ntsc>TRUE</ntsc>
						<timebase>30</timebase>
					</rate>
					<start>127792</start>
					<end>127822</end>
					<alignment>start-black</alignment>
					<effect>
						<name>Cross Fade (+3dB)</name>
						<effectid>KGAudioTransCrossFade3dB</effectid>
						<effecttype>transition</effecttype>
						<mediatype>audio</mediatype>
					</effect>
				</transitionitem>
				<clipitem id="KT_227_12_Insistent_Rhythm_Wilkerson_441460_A.wav2">
					<name>KT_227_12_Insistent_Rhythm_Wilkerson_441460_A.wav</name>
					<duration>2878</duration>
					<rate>
						<ntsc>TRUE</ntsc>
						<timebase>30</timebase>
					</rate>
					<in>2629</in>
					<out>2878</out>
					<start>-1</start>
					<end>128041</end>
					<logginginfo>
						<scene/>
						<shottake/>
						<lognote/>
						<good>FALSE</good>
					</logginginfo>
					<labels>
						<label2/>
					</labels>
					<comments>
						<mastercomment1/>
						<mastercomment2/>
						<mastercomment3/>
						<mastercomment4/>
					</comments>
					<file id="KT_227_12_Insistent_Rhythm_Wilkerson_441460_A"/>
					<filter>
						<effect>
							<name>Audio Levels</name>
							<effectid>audiolevels</effectid>
							<effectcategory>audiolevels</effectcategory>
							<effecttype>audiolevels</effecttype>
							<mediatype>audio</mediatype>
							<parameter>
								<name>Level</name>
								<parameterid>level</parameterid>
								<valuemin>0</valuemin>
								<valuemax>3.98109</valuemax>
								<keyframe>
									<when>271.821</when>
									<value>0.0707946</value>
								</keyframe>
								<keyframe>
									<when>505</when>
									<value>0.125893</value>
								</keyframe>
								<keyframe>
									<when>1060.79</when>
									<value>0.125893</value>
								</keyframe>
								<keyframe>
									<when>1108.61</when>
									<value>0.354813</value>
								</keyframe>
								<keyframe>
									<when>1291.66</when>
									<value>0.354813</value>
								</keyframe>
								<keyframe>
									<when>1361.36</when>
									<value>0.177828</value>
								</keyframe>
								<interpolation>
									<name>FCPCurve</name>
								</interpolation>
								<value>1</value>
							</parameter>
						</effect>
					</filter>
					<filter>
						<effect>
							<name>Audio Pan</name>
							<effectid>audiopan</effectid>
							<effectcategory>audiopan</effectcategory>
							<effecttype>audiopan</effecttype>
							<mediatype>audio</mediatype>
							<parameter>
								<name>Pan</name>
								<parameterid>pan</parameterid>
								<valuemin>-1</valuemin>
								<valuemax>1</valuemax>
								<value>1</value>
							</parameter>
						</effect>
					</filter>
					<sourcetrack>
						<mediatype>audio</mediatype>
						<trackindex>2</trackindex>
					</sourcetrack>
					<itemhistory>
						<uuid>0E5E55DB-DA04-45DE-81F1-09E0A8816F40</uuid>
					</itemhistory>
					<mixedratesoffset>1</mixedratesoffset>
				</clipitem>
				<transitionitem>
					<rate>
						<ntsc>TRUE</ntsc>
						<timebase>30</timebase>
					</rate>
					<start>131673</start>
					<end>132179</end>
					<alignment>start-black</alignment>
					<effect>
						<name>Cross Fade ( 0dB)</name>
						<effectid>KGAudioTransCrossFade0dB</effectid>
						<effecttype>transition</effecttype>
						<mediatype>audio</mediatype>
					</effect>
				</transitionitem>
				<clipitem id="fp02711_A.wav6">
					<name>fp02711_A.wav</name>
					<duration>4950</duration>
					<rate>
						<ntsc>TRUE</ntsc>
						<timebase>30</timebase>
					</rate>
					<in>1986</in>
					<out>3798</out>
					<start>-1</start>
					<end>133485</end>
					<subframeoffset>0</subframeoffset>
					<logginginfo>
						<scene/>
						<shottake/>
						<lognote/>
						<good>FALSE</good>
					</logginginfo>
					<labels>
						<label2/>
					</labels>
					<comments>
						<mastercomment1/>
						<mastercomment2/>
						<mastercomment3/>
						<mastercomment4/>
					</comments>
					<file id="fp02711_A"/>
					<filter>
						<effect>
							<name>Audio Levels</name>
							<effectid>audiolevels</effectid>
							<effectcategory>audiolevels</effectcategory>
							<effecttype>audiolevels</effecttype>
							<mediatype>audio</mediatype>
							<parameter>
								<name>Level</name>
								<parameterid>level</parameterid>
								<valuemin>0</valuemin>
								<valuemax>3.98109</valuemax>
								<value>0.177828</value>
							</parameter>
						</effect>
					</filter>
					<filter>
						<effect>
							<name>Audio Pan</name>
							<effectid>audiopan</effectid>
							<effectcategory>audiopan</effectcategory>
							<effecttype>audiopan</effecttype>
							<mediatype>audio</mediatype>
							<parameter>
								<name>Pan</name>
								<parameterid>pan</parameterid>
								<valuemin>-1</valuemin>
								<valuemax>1</valuemax>
								<value>1</value>
							</parameter>
						</effect>
					</filter>
					<sourcetrack>
						<mediatype>audio</mediatype>
						<trackindex>2</trackindex>
					</sourcetrack>
					<itemhistory>
						<uuid>8C0E5218-08F5-4A1E-927E-133836AEB386</uuid>
					</itemhistory>
					<mixedratesoffset>1</mixedratesoffset>
				</clipitem>
				<enabled>TRUE</enabled>
				<locked>FALSE</locked>
				<outputchannelindex>1</outputchannelindex>
			</track>
			<track>
				<clipitem id="Slug4">
					<name>Slug</name>
					<duration>7201</duration>
					<rate>
						<ntsc>TRUE</ntsc>
						<timebase>30</timebase>
					</rate>
					<in>1800</in>
					<out>2040</out>
					<start>0</start>
					<end>240</end>
					<logginginfo>
						<scene/>
						<shottake/>
						<lognote/>
						<good>FALSE</good>
					</logginginfo>
					<labels>
						<label2/>
					</labels>
					<comments>
						<mastercomment1/>
						<mastercomment2/>
						<mastercomment3/>
						<mastercomment4/>
					</comments>
					<file id="Slug1"/>
					<filter>
						<effect>
							<name>Audio Levels</name>
							<effectid>audiolevels</effectid>
							<effectcategory>audiolevels</effectcategory>
							<effecttype>audiolevels</effecttype>
							<mediatype>audio</mediatype>
							<parameter>
								<name>Level</name>
								<parameterid>level</parameterid>
								<valuemin>0</valuemin>
								<valuemax>3.98109</valuemax>
								<value>1</value>
							</parameter>
						</effect>
					</filter>
					<filter>
						<effect>
							<name>Audio Pan</name>
							<effectid>audiopan</effectid>
							<effectcategory>audiopan</effectcategory>
							<effecttype>audiopan</effecttype>
							<mediatype>audio</mediatype>
							<parameter>
								<name>Pan</name>
								<parameterid>pan</parameterid>
								<valuemin>-1</valuemin>
								<valuemax>1</valuemax>
								<value>-1</value>
							</parameter>
						</effect>
					</filter>
					<sourcetrack>
						<mediatype>audio</mediatype>
						<trackindex>1</trackindex>
					</sourcetrack>
					<itemhistory>
						<uuid>77588EEB-6A47-443E-AC46-D2D5F7058D3B</uuid>
						<uuid>2EAD7D69-A7EA-42CA-AA32-2B2963C24F26</uuid>
					</itemhistory>
					<mixedratesoffset>1</mixedratesoffset>
				</clipitem>
				<clipitem id="Bars and Tone (NTSC)4">
					<name>Bars and Tone (NTSC)</name>
					<duration>7201</duration>
					<rate>
						<ntsc>FALSE</ntsc>
						<timebase>30</timebase>
					</rate>
					<in>1800</in>
					<out>1801</out>
					<start>240</start>
					<end>241</end>
					<logginginfo>
						<scene/>
						<shottake/>
						<lognote/>
						<good>FALSE</good>
					</logginginfo>
					<labels>
						<label2/>
					</labels>
					<comments>
						<mastercomment1/>
						<mastercomment2/>
						<mastercomment3/>
						<mastercomment4/>
					</comments>
					<file id="Bars and Tone (NTSC)1"/>
					<filter>
						<effect>
							<name>Audio Levels</name>
							<effectid>audiolevels</effectid>
							<effectcategory>audiolevels</effectcategory>
							<effecttype>audiolevels</effecttype>
							<mediatype>audio</mediatype>
							<parameter>
								<name>Level</name>
								<parameterid>level</parameterid>
								<valuemin>0</valuemin>
								<valuemax>3.98109</valuemax>
								<value>0.2513</value>
							</parameter>
						</effect>
					</filter>
					<filter>
						<effect>
							<name>Audio Pan</name>
							<effectid>audiopan</effectid>
							<effectcategory>audiopan</effectcategory>
							<effecttype>audiopan</effecttype>
							<mediatype>audio</mediatype>
							<parameter>
								<name>Pan</name>
								<parameterid>pan</parameterid>
								<valuemin>-1</valuemin>
								<valuemax>1</valuemax>
								<value>-1</value>
							</parameter>
						</effect>
					</filter>
					<sourcetrack>
						<mediatype>audio</mediatype>
						<trackindex>1</trackindex>
					</sourcetrack>
					<itemhistory>
						<uuid>D5C624BB-6E10-4F8C-95E4-F9393818A817</uuid>
						<uuid>331CFC09-5210-429B-A33A-34379119EC19</uuid>
					</itemhistory>
					<mixedratesoffset>1</mixedratesoffset>
				</clipitem>
				<transitionitem>
					<rate>
						<ntsc>TRUE</ntsc>
						<timebase>30</timebase>
					</rate>
					<start>66712</start>
					<end>66909</end>
					<alignment>start-black</alignment>
					<effect>
						<name>Cross Fade ( 0dB)</name>
						<effectid>KGAudioTransCrossFade0dB</effectid>
						<effecttype>transition</effecttype>
						<mediatype>audio</mediatype>
					</effect>
				</transitionitem>
				<clipitem id="KT_227_11_Mesmerized_Housewives_Wilkerson_441456_A.wav6">
					<name>KT_227_11_Mesmerized_Housewives_Wilkerson_441456_A.wav</name>
					<duration>3563</duration>
					<rate>
						<ntsc>TRUE</ntsc>
						<timebase>30</timebase>
					</rate>
					<in>2853</in>
					<out>3287</out>
					<start>-1</start>
					<end>-1</end>
					<logginginfo>
						<scene/>
						<shottake/>
						<lognote/>
						<good>FALSE</good>
					</logginginfo>
					<labels>
						<label2/>
					</labels>
					<comments>
						<mastercomment1/>
						<mastercomment2/>
						<mastercomment3/>
						<mastercomment4/>
					</comments>
					<file id="KT_227_11_Mesmerized_Housewives_Wilkerson_441456_A"/>
					<filter>
						<effect>
							<name>Audio Levels</name>
							<effectid>audiolevels</effectid>
							<effectcategory>audiolevels</effectcategory>
							<effecttype>audiolevels</effecttype>
							<mediatype>audio</mediatype>
							<parameter>
								<name>Level</name>
								<parameterid>level</parameterid>
								<valuemin>0</valuemin>
								<valuemax>3.98109</valuemax>
								<keyframe>
									<when>1569.57</when>
									<value>0.223872</value>
								</keyframe>
								<keyframe>
									<when>1617</when>
									<value>0.251189</value>
								</keyframe>
								<interpolation>
									<name>FCPCurve</name>
								</interpolation>
								<value>1</value>
							</parameter>
						</effect>
					</filter>
					<filter>
						<effect>
							<name>Audio Pan</name>
							<effectid>audiopan</effectid>
							<effectcategory>audiopan</effectcategory>
							<effecttype>audiopan</effecttype>
							<mediatype>audio</mediatype>
							<parameter>
								<name>Pan</name>
								<parameterid>pan</parameterid>
								<valuemin>-1</valuemin>
								<valuemax>1</valuemax>
								<value>-1</value>
							</parameter>
						</effect>
					</filter>
					<sourcetrack>
						<mediatype>audio</mediatype>
						<trackindex>1</trackindex>
					</sourcetrack>
					<itemhistory>
						<uuid>C2CF0DCD-C01A-4C6E-A145-6693A2EF6B81</uuid>
					</itemhistory>
					<mixedratesoffset>1</mixedratesoffset>
				</clipitem>
				<transitionitem>
					<rate>
						<ntsc>TRUE</ntsc>
						<timebase>30</timebase>
					</rate>
					<start>66973</start>
					<end>67146</end>
					<alignment>end-black</alignment>
					<effect>
						<name>Cross Fade ( 0dB)</name>
						<effectid>KGAudioTransCrossFade0dB</effectid>
						<effecttype>transition</effecttype>
						<mediatype>audio</mediatype>
					</effect>
				</transitionitem>
				<enabled>TRUE</enabled>
				<locked>FALSE</locked>
				<outputchannelindex>2</outputchannelindex>
			</track>
			<track>
				<clipitem id="Slug5">
					<name>Slug</name>
					<duration>7201</duration>
					<rate>
						<ntsc>TRUE</ntsc>
						<timebase>30</timebase>
					</rate>
					<in>1800</in>
					<out>2040</out>
					<start>0</start>
					<end>240</end>
					<logginginfo>
						<scene/>
						<shottake/>
						<lognote/>
						<good>FALSE</good>
					</logginginfo>
					<labels>
						<label2/>
					</labels>
					<comments>
						<mastercomment1/>
						<mastercomment2/>
						<mastercomment3/>
						<mastercomment4/>
					</comments>
					<file id="Slug1"/>
					<filter>
						<effect>
							<name>Audio Levels</name>
							<effectid>audiolevels</effectid>
							<effectcategory>audiolevels</effectcategory>
							<effecttype>audiolevels</effecttype>
							<mediatype>audio</mediatype>
							<parameter>
								<name>Level</name>
								<parameterid>level</parameterid>
								<valuemin>0</valuemin>
								<valuemax>3.98109</valuemax>
								<value>1</value>
							</parameter>
						</effect>
					</filter>
					<filter>
						<effect>
							<name>Audio Pan</name>
							<effectid>audiopan</effectid>
							<effectcategory>audiopan</effectcategory>
							<effecttype>audiopan</effecttype>
							<mediatype>audio</mediatype>
							<parameter>
								<name>Pan</name>
								<parameterid>pan</parameterid>
								<valuemin>-1</valuemin>
								<valuemax>1</valuemax>
								<value>1</value>
							</parameter>
						</effect>
					</filter>
					<sourcetrack>
						<mediatype>audio</mediatype>
						<trackindex>2</trackindex>
					</sourcetrack>
					<itemhistory>
						<uuid>CF135E38-3609-4F9D-A2B9-C1176A8AF2FC</uuid>
						<uuid>4470F866-49D6-4DA5-AE19-8833A03D1968</uuid>
					</itemhistory>
					<mixedratesoffset>1</mixedratesoffset>
				</clipitem>
				<clipitem id="Bars and Tone (NTSC)5">
					<name>Bars and Tone (NTSC)</name>
					<duration>7201</duration>
					<rate>
						<ntsc>FALSE</ntsc>
						<timebase>30</timebase>
					</rate>
					<in>1800</in>
					<out>1801</out>
					<start>240</start>
					<end>241</end>
					<logginginfo>
						<scene/>
						<shottake/>
						<lognote/>
						<good>FALSE</good>
					</logginginfo>
					<labels>
						<label2/>
					</labels>
					<comments>
						<mastercomment1/>
						<mastercomment2/>
						<mastercomment3/>
						<mastercomment4/>
					</comments>
					<file id="Bars and Tone (NTSC)1"/>
					<filter>
						<effect>
							<name>Audio Levels</name>
							<effectid>audiolevels</effectid>
							<effectcategory>audiolevels</effectcategory>
							<effecttype>audiolevels</effecttype>
							<mediatype>audio</mediatype>
							<parameter>
								<name>Level</name>
								<parameterid>level</parameterid>
								<valuemin>0</valuemin>
								<valuemax>3.98109</valuemax>
								<value>0.2513</value>
							</parameter>
						</effect>
					</filter>
					<filter>
						<effect>
							<name>Audio Pan</name>
							<effectid>audiopan</effectid>
							<effectcategory>audiopan</effectcategory>
							<effecttype>audiopan</effecttype>
							<mediatype>audio</mediatype>
							<parameter>
								<name>Pan</name>
								<parameterid>pan</parameterid>
								<valuemin>-1</valuemin>
								<valuemax>1</valuemax>
								<value>1</value>
							</parameter>
						</effect>
					</filter>
					<sourcetrack>
						<mediatype>audio</mediatype>
						<trackindex>2</trackindex>
					</sourcetrack>
					<itemhistory>
						<uuid>1A8702F1-1351-4CE6-AC0D-67EE497A3661</uuid>
						<uuid>605B9E44-365A-47F9-8A13-68BD5AD4851C</uuid>
					</itemhistory>
					<mixedratesoffset>1</mixedratesoffset>
				</clipitem>
				<transitionitem>
					<rate>
						<ntsc>TRUE</ntsc>
						<timebase>30</timebase>
					</rate>
					<start>66712</start>
					<end>66909</end>
					<alignment>start-black</alignment>
					<effect>
						<name>Cross Fade (+3dB)</name>
						<effectid>KGAudioTransCrossFade3dB</effectid>
						<effecttype>transition</effecttype>
						<mediatype>audio</mediatype>
					</effect>
				</transitionitem>
				<clipitem id="KT_227_11_Mesmerized_Housewives_Wilkerson_441456_A.wav7">
					<name>KT_227_11_Mesmerized_Housewives_Wilkerson_441456_A.wav</name>
					<duration>3563</duration>
					<rate>
						<ntsc>TRUE</ntsc>
						<timebase>30</timebase>
					</rate>
					<in>2853</in>
					<out>3287</out>
					<start>-1</start>
					<end>-1</end>
					<logginginfo>
						<scene/>
						<shottake/>
						<lognote/>
						<good>FALSE</good>
					</logginginfo>
					<labels>
						<label2/>
					</labels>
					<comments>
						<mastercomment1/>
						<mastercomment2/>
						<mastercomment3/>
						<mastercomment4/>
					</comments>
					<file id="KT_227_11_Mesmerized_Housewives_Wilkerson_441456_A"/>
					<filter>
						<effect>
							<name>Audio Levels</name>
							<effectid>audiolevels</effectid>
							<effectcategory>audiolevels</effectcategory>
							<effecttype>audiolevels</effecttype>
							<mediatype>audio</mediatype>
							<parameter>
								<name>Level</name>
								<parameterid>level</parameterid>
								<valuemin>0</valuemin>
								<valuemax>3.98109</valuemax>
								<keyframe>
									<when>1569.57</when>
									<value>0.223872</value>
								</keyframe>
								<keyframe>
									<when>1617</when>
									<value>0.251189</value>
								</keyframe>
								<interpolation>
									<name>FCPCurve</name>
								</interpolation>
								<value>1</value>
							</parameter>
						</effect>
					</filter>
					<filter>
						<effect>
							<name>Audio Pan</name>
							<effectid>audiopan</effectid>
							<effectcategory>audiopan</effectcategory>
							<effecttype>audiopan</effecttype>
							<mediatype>audio</mediatype>
							<parameter>
								<name>Pan</name>
								<parameterid>pan</parameterid>
								<valuemin>-1</valuemin>
								<valuemax>1</valuemax>
								<value>1</value>
							</parameter>
						</effect>
					</filter>
					<sourcetrack>
						<mediatype>audio</mediatype>
						<trackindex>2</trackindex>
					</sourcetrack>
					<itemhistory>
						<uuid>6786ED75-069A-4A50-B9C4-1029325F2F5B</uuid>
					</itemhistory>
					<mixedratesoffset>1</mixedratesoffset>
				</clipitem>
				<transitionitem>
					<rate>
						<ntsc>TRUE</ntsc>
						<timebase>30</timebase>
					</rate>
					<start>66973</start>
					<end>67146</end>
					<alignment>end-black</alignment>
					<effect>
						<name>Cross Fade ( 0dB)</name>
						<effectid>KGAudioTransCrossFade0dB</effectid>
						<effecttype>transition</effecttype>
						<mediatype>audio</mediatype>
					</effect>
				</transitionitem>
				<enabled>TRUE</enabled>
				<locked>FALSE</locked>
				<outputchannelindex>1</outputchannelindex>
			</track>
			<track>
				<clipitem id="Slug6">
					<name>Slug</name>
					<duration>7201</duration>
					<rate>
						<ntsc>TRUE</ntsc>
						<timebase>30</timebase>
					</rate>
					<in>1800</in>
					<out>2040</out>
					<start>0</start>
					<end>240</end>
					<logginginfo>
						<scene/>
						<shottake/>
						<lognote/>
						<good>FALSE</good>
					</logginginfo>
					<labels>
						<label2/>
					</labels>
					<comments>
						<mastercomment1/>
						<mastercomment2/>
						<mastercomment3/>
						<mastercomment4/>
					</comments>
					<file id="Slug1"/>
					<filter>
						<effect>
							<name>Audio Levels</name>
							<effectid>audiolevels</effectid>
							<effectcategory>audiolevels</effectcategory>
							<effecttype>audiolevels</effecttype>
							<mediatype>audio</mediatype>
							<parameter>
								<name>Level</name>
								<parameterid>level</parameterid>
								<valuemin>0</valuemin>
								<valuemax>3.98109</valuemax>
								<value>1</value>
							</parameter>
						</effect>
					</filter>
					<filter>
						<effect>
							<name>Audio Pan</name>
							<effectid>audiopan</effectid>
							<effectcategory>audiopan</effectcategory>
							<effecttype>audiopan</effecttype>
							<mediatype>audio</mediatype>
							<parameter>
								<name>Pan</name>
								<parameterid>pan</parameterid>
								<valuemin>-1</valuemin>
								<valuemax>1</valuemax>
								<value>-1</value>
							</parameter>
						</effect>
					</filter>
					<sourcetrack>
						<mediatype>audio</mediatype>
						<trackindex>1</trackindex>
					</sourcetrack>
					<itemhistory>
						<uuid>94C596BF-74A0-4902-88D8-4B1DE60F3933</uuid>
						<uuid>2EAD7D69-A7EA-42CA-AA32-2B2963C24F26</uuid>
					</itemhistory>
					<mixedratesoffset>1</mixedratesoffset>
				</clipitem>
				<clipitem id="Bars and Tone (NTSC)6">
					<name>Bars and Tone (NTSC)</name>
					<duration>7201</duration>
					<rate>
						<ntsc>FALSE</ntsc>
						<timebase>30</timebase>
					</rate>
					<in>1800</in>
					<out>1801</out>
					<start>240</start>
					<end>241</end>
					<logginginfo>
						<scene/>
						<shottake/>
						<lognote/>
						<good>FALSE</good>
					</logginginfo>
					<labels>
						<label2/>
					</labels>
					<comments>
						<mastercomment1/>
						<mastercomment2/>
						<mastercomment3/>
						<mastercomment4/>
					</comments>
					<file id="Bars and Tone (NTSC)1"/>
					<filter>
						<effect>
							<name>Audio Levels</name>
							<effectid>audiolevels</effectid>
							<effectcategory>audiolevels</effectcategory>
							<effecttype>audiolevels</effecttype>
							<mediatype>audio</mediatype>
							<parameter>
								<name>Level</name>
								<parameterid>level</parameterid>
								<valuemin>0</valuemin>
								<valuemax>3.98109</valuemax>
								<value>0.2513</value>
							</parameter>
						</effect>
					</filter>
					<filter>
						<effect>
							<name>Audio Pan</name>
							<effectid>audiopan</effectid>
							<effectcategory>audiopan</effectcategory>
							<effecttype>audiopan</effecttype>
							<mediatype>audio</mediatype>
							<parameter>
								<name>Pan</name>
								<parameterid>pan</parameterid>
								<valuemin>-1</valuemin>
								<valuemax>1</valuemax>
								<value>-1</value>
							</parameter>
						</effect>
					</filter>
					<sourcetrack>
						<mediatype>audio</mediatype>
						<trackindex>1</trackindex>
					</sourcetrack>
					<itemhistory>
						<uuid>D0D7E893-DBFF-4F28-8EDB-620CB96D6962</uuid>
						<uuid>331CFC09-5210-429B-A33A-34379119EC19</uuid>
					</itemhistory>
					<mixedratesoffset>1</mixedratesoffset>
				</clipitem>
				<enabled>TRUE</enabled>
				<locked>FALSE</locked>
				<outputchannelindex>2</outputchannelindex>
			</track>
			<track>
				<clipitem id="Slug7">
					<name>Slug</name>
					<duration>7201</duration>
					<rate>
						<ntsc>TRUE</ntsc>
						<timebase>30</timebase>
					</rate>
					<in>1800</in>
					<out>2040</out>
					<start>0</start>
					<end>240</end>
					<logginginfo>
						<scene/>
						<shottake/>
						<lognote/>
						<good>FALSE</good>
					</logginginfo>
					<labels>
						<label2/>
					</labels>
					<comments>
						<mastercomment1/>
						<mastercomment2/>
						<mastercomment3/>
						<mastercomment4/>
					</comments>
					<file id="Slug1"/>
					<filter>
						<effect>
							<name>Audio Levels</name>
							<effectid>audiolevels</effectid>
							<effectcategory>audiolevels</effectcategory>
							<effecttype>audiolevels</effecttype>
							<mediatype>audio</mediatype>
							<parameter>
								<name>Level</name>
								<parameterid>level</parameterid>
								<valuemin>0</valuemin>
								<valuemax>3.98109</valuemax>
								<value>1</value>
							</parameter>
						</effect>
					</filter>
					<filter>
						<effect>
							<name>Audio Pan</name>
							<effectid>audiopan</effectid>
							<effectcategory>audiopan</effectcategory>
							<effecttype>audiopan</effecttype>
							<mediatype>audio</mediatype>
							<parameter>
								<name>Pan</name>
								<parameterid>pan</parameterid>
								<valuemin>-1</valuemin>
								<valuemax>1</valuemax>
								<value>1</value>
							</parameter>
						</effect>
					</filter>
					<sourcetrack>
						<mediatype>audio</mediatype>
						<trackindex>2</trackindex>
					</sourcetrack>
					<itemhistory>
						<uuid>7AF0B7A0-BD48-43DF-850E-9059D1EE9F40</uuid>
						<uuid>4470F866-49D6-4DA5-AE19-8833A03D1968</uuid>
					</itemhistory>
					<mixedratesoffset>1</mixedratesoffset>
				</clipitem>
				<clipitem id="Bars and Tone (NTSC)7">
					<name>Bars and Tone (NTSC)</name>
					<duration>7201</duration>
					<rate>
						<ntsc>FALSE</ntsc>
						<timebase>30</timebase>
					</rate>
					<in>1800</in>
					<out>1801</out>
					<start>240</start>
					<end>241</end>
					<logginginfo>
						<scene/>
						<shottake/>
						<lognote/>
						<good>FALSE</good>
					</logginginfo>
					<labels>
						<label2/>
					</labels>
					<comments>
						<mastercomment1/>
						<mastercomment2/>
						<mastercomment3/>
						<mastercomment4/>
					</comments>
					<file id="Bars and Tone (NTSC)1"/>
					<filter>
						<effect>
							<name>Audio Levels</name>
							<effectid>audiolevels</effectid>
							<effectcategory>audiolevels</effectcategory>
							<effecttype>audiolevels</effecttype>
							<mediatype>audio</mediatype>
							<parameter>
								<name>Level</name>
								<parameterid>level</parameterid>
								<valuemin>0</valuemin>
								<valuemax>3.98109</valuemax>
								<value>0.2513</value>
							</parameter>
						</effect>
					</filter>
					<filter>
						<effect>
							<name>Audio Pan</name>
							<effectid>audiopan</effectid>
							<effectcategory>audiopan</effectcategory>
							<effecttype>audiopan</effecttype>
							<mediatype>audio</mediatype>
							<parameter>
								<name>Pan</name>
								<parameterid>pan</parameterid>
								<valuemin>-1</valuemin>
								<valuemax>1</valuemax>
								<value>1</value>
							</parameter>
						</effect>
					</filter>
					<sourcetrack>
						<mediatype>audio</mediatype>
						<trackindex>2</trackindex>
					</sourcetrack>
					<itemhistory>
						<uuid>2BFE8F31-839B-486B-95B0-379EACAAEEC6</uuid>
						<uuid>605B9E44-365A-47F9-8A13-68BD5AD4851C</uuid>
					</itemhistory>
					<mixedratesoffset>1</mixedratesoffset>
				</clipitem>
				<enabled>TRUE</enabled>
				<locked>FALSE</locked>
				<outputchannelindex>1</outputchannelindex>
			</track>
			<track>
				<enabled>TRUE</enabled>
				<locked>FALSE</locked>
				<outputchannelindex>2</outputchannelindex>
			</track>
			<track>
				<enabled>TRUE</enabled>
				<locked>FALSE</locked>
				<outputchannelindex>1</outputchannelindex>
			</track>
			<track>
				<enabled>TRUE</enabled>
				<locked>FALSE</locked>
				<outputchannelindex>2</outputchannelindex>
			</track>
			<track>
				<enabled>TRUE</enabled>
				<locked>FALSE</locked>
				<outputchannelindex>1</outputchannelindex>
			</track>
			<track>
				<enabled>TRUE</enabled>
				<locked>FALSE</locked>
				<outputchannelindex>2</outputchannelindex>
			</track>
			<track>
				<enabled>TRUE</enabled>
				<locked>FALSE</locked>
				<outputchannelindex>1</outputchannelindex>
			</track>
			<track>
				<enabled>TRUE</enabled>
				<locked>FALSE</locked>
				<outputchannelindex>2</outputchannelindex>
			</track>
			<track>
				<enabled>TRUE</enabled>
				<locked>FALSE</locked>
				<outputchannelindex>1</outputchannelindex>
			</track>
			<track>
				<enabled>TRUE</enabled>
				<locked>FALSE</locked>
				<outputchannelindex>2</outputchannelindex>
			</track>
			<track>
				<enabled>TRUE</enabled>
				<locked>FALSE</locked>
				<outputchannelindex>1</outputchannelindex>
			</track>
			<track>
				<enabled>TRUE</enabled>
				<locked>FALSE</locked>
				<outputchannelindex>2</outputchannelindex>
			</track>
			<track>
				<enabled>FALSE</enabled>
				<locked>FALSE</locked>
				<outputchannelindex>1</outputchannelindex>
			</track>
			<track>
				<enabled>TRUE</enabled>
				<locked>FALSE</locked>
				<outputchannelindex>2</outputchannelindex>
			</track>
			<track>
				<enabled>FALSE</enabled>
				<locked>FALSE</locked>
				<outputchannelindex>1</outputchannelindex>
			</track>
			<track>
				<enabled>TRUE</enabled>
				<locked>FALSE</locked>
				<outputchannelindex>2</outputchannelindex>
			</track>
			<track>
				<enabled>TRUE</enabled>
				<locked>FALSE</locked>
				<outputchannelindex>1</outputchannelindex>
			</track>
			<track>
				<enabled>TRUE</enabled>
				<locked>FALSE</locked>
				<outputchannelindex>2</outputchannelindex>
			</track>
			<filter>
				<effect>
					<name>Audio Levels</name>
					<effectid>audiolevels</effectid>
					<effectcategory>audiolevels</effectcategory>
					<effecttype>audiolevels</effecttype>
					<mediatype>audio</mediatype>
					<parameter>
						<name>Level</name>
						<parameterid>level</parameterid>
						<valuemin>0</valuemin>
						<valuemax>3.98109</valuemax>
						<value>1</value>
					</parameter>
				</effect>
			</filter>
		</audio>
	</media>
	<ismasterclip>FALSE</ismasterclip>
	<marker>
		<name>Marker 3</name>
		<color>
			<alpha>0</alpha>
			<red>255</red>
			<green>0</green>
			<blue>0</blue>
		</color>
		<in>4644</in>
		<out>-1</out>
	</marker>
	<marker>
		<name>Marker 2</name>
		<color>
			<alpha>0</alpha>
			<red>255</red>
			<green>0</green>
			<blue>0</blue>
		</color>
		<in>4653</in>
		<out>-1</out>
	</marker>
	<marker>
		<name>STEEL: ASYMPHONY OF INDUSTRY</name>
		<comment/>
		<color>
			<alpha>0</alpha>
			<red>255</red>
			<green>255</green>
			<blue>0</blue>
		</color>
		<in>6967</in>
		<out>-1</out>
	</marker>
	<marker>
		<name>Steel: A symphony of Industry</name>
		<comment/>
		<color>
			<alpha>0</alpha>
			<red>255</red>
			<green>255</green>
			<blue>0</blue>
		</color>
		<in>6999</in>
		<out>-1</out>
	</marker>
	<marker>
		<name>Marker 33</name>
		<comment/>
		<color>
			<alpha>0</alpha>
			<red>48</red>
			<green>191</green>
			<blue>72</blue>
		</color>
		<in>10665</in>
		<out>-1</out>
	</marker>
	<marker>
		<name>Marker 34</name>
		<color>
			<alpha>0</alpha>
			<red>255</red>
			<green>0</green>
			<blue>0</blue>
		</color>
		<in>10668</in>
		<out>-1</out>
	</marker>
	<marker>
		<name>Marker 4</name>
		<color>
			<alpha>0</alpha>
			<red>255</red>
			<green>0</green>
			<blue>0</blue>
		</color>
		<in>21894</in>
		<out>-1</out>
	</marker>
	<marker>
		<name>Marker 1</name>
		<color>
			<alpha>0</alpha>
			<red>255</red>
			<green>0</green>
			<blue>0</blue>
		</color>
		<in>30325</in>
		<out>-1</out>
	</marker>
	<marker>
		<name>Marker 6</name>
		<color>
			<alpha>0</alpha>
			<red>255</red>
			<green>0</green>
			<blue>0</blue>
		</color>
		<in>36624</in>
		<out>-1</out>
	</marker>
	<marker>
		<name>Marker 7</name>
		<color>
			<alpha>0</alpha>
			<red>255</red>
			<green>0</green>
			<blue>0</blue>
		</color>
		<in>36861</in>
		<out>-1</out>
	</marker>
	<marker>
		<name>Marker 8</name>
		<color>
			<alpha>0</alpha>
			<red>255</red>
			<green>0</green>
			<blue>0</blue>
		</color>
		<in>37099</in>
		<out>-1</out>
	</marker>
	<marker>
		<name>Marker 9</name>
		<color>
			<alpha>0</alpha>
			<red>255</red>
			<green>0</green>
			<blue>0</blue>
		</color>
		<in>37340</in>
		<out>-1</out>
	</marker>
	<marker>
		<name>Marker 39</name>
		<comment/>
		<color>
			<alpha>0</alpha>
			<red>48</red>
			<green>191</green>
			<blue>72</blue>
		</color>
		<in>37498</in>
		<out>-1</out>
	</marker>
	<marker>
		<name>Marker 38</name>
		<comment/>
		<color>
			<alpha>0</alpha>
			<red>48</red>
			<green>191</green>
			<blue>72</blue>
		</color>
		<in>37552</in>
		<out>-1</out>
	</marker>
	<marker>
		<name>Marker 37</name>
		<color>
			<alpha>0</alpha>
			<red>255</red>
			<green>0</green>
			<blue>0</blue>
		</color>
		<in>37553</in>
		<out>-1</out>
	</marker>
	<marker>
		<name>Marker 10</name>
		<color>
			<alpha>0</alpha>
			<red>255</red>
			<green>0</green>
			<blue>0</blue>
		</color>
		<in>37580</in>
		<out>-1</out>
	</marker>
	<marker>
		<name>Marker 11</name>
		<color>
			<alpha>0</alpha>
			<red>255</red>
			<green>0</green>
			<blue>0</blue>
		</color>
		<in>37822</in>
		<out>-1</out>
	</marker>
	<marker>
		<name>Marker 12</name>
		<color>
			<alpha>0</alpha>
			<red>255</red>
			<green>0</green>
			<blue>0</blue>
		</color>
		<in>38056</in>
		<out>-1</out>
	</marker>
	<marker>
		<name>Marker 45</name>
		<comment/>
		<color>
			<alpha>0</alpha>
			<red>48</red>
			<green>191</green>
			<blue>72</blue>
		</color>
		<in>38164</in>
		<out>-1</out>
	</marker>
	<marker>
		<name>Marker 40</name>
		<comment/>
		<color>
			<alpha>0</alpha>
			<red>48</red>
			<green>191</green>
			<blue>72</blue>
		</color>
		<in>38591</in>
		<out>-1</out>
	</marker>
	<marker>
		<name>Marker 41</name>
		<comment/>
		<color>
			<alpha>0</alpha>
			<red>48</red>
			<green>191</green>
			<blue>72</blue>
		</color>
		<in>39067</in>
		<out>-1</out>
	</marker>
	<marker>
		<name>Marker 42</name>
		<comment/>
		<color>
			<alpha>0</alpha>
			<red>48</red>
			<green>191</green>
			<blue>72</blue>
		</color>
		<in>39694</in>
		<out>-1</out>
	</marker>
	<marker>
		<name>Marker 43</name>
		<comment/>
		<color>
			<alpha>0</alpha>
			<red>48</red>
			<green>191</green>
			<blue>72</blue>
		</color>
		<in>40556</in>
		<out>-1</out>
	</marker>
	<marker>
		<name>Steel: Symphony of Industry</name>
		<comment/>
		<color>
			<alpha>0</alpha>
			<red>255</red>
			<green>255</green>
			<blue>0</blue>
		</color>
		<in>41452</in>
		<out>-1</out>
	</marker>
	<marker>
		<name>Trim</name>
		<comment>Awkward Gap</comment>
		<color>
			<alpha>0</alpha>
			<red>48</red>
			<green>191</green>
			<blue>191</blue>
		</color>
		<in>42932</in>
		<out>-1</out>
	</marker>
	<marker>
		<name>Trim</name>
		<comment>Awkward Gap</comment>
		<color>
			<alpha>0</alpha>
			<red>48</red>
			<green>191</green>
			<blue>191</blue>
		</color>
		<in>42981</in>
		<out>-1</out>
	</marker>
	<marker>
		<name>Steel: A Symphony of Industry</name>
		<comment/>
		<color>
			<alpha>0</alpha>
			<red>255</red>
			<green>255</green>
			<blue>0</blue>
		</color>
		<in>42994</in>
		<out>-1</out>
	</marker>
	<marker>
		<name>Marker 35</name>
		<color>
			<alpha>0</alpha>
			<red>255</red>
			<green>0</green>
			<blue>0</blue>
		</color>
		<in>48256</in>
		<out>-1</out>
	</marker>
	<marker>
		<name>Marker 36</name>
		<comment/>
		<color>
			<alpha>0</alpha>
			<red>48</red>
			<green>191</green>
			<blue>72</blue>
		</color>
		<in>48260</in>
		<out>-1</out>
	</marker>
	<marker>
		<name>Marker 52</name>
		<comment/>
		<color>
			<alpha>0</alpha>
			<red>48</red>
			<green>191</green>
			<blue>72</blue>
		</color>
		<in>48730</in>
		<out>-1</out>
	</marker>
	<marker>
		<name>Steel: Symphony</name>
		<comment/>
		<color>
			<alpha>0</alpha>
			<red>255</red>
			<green>255</green>
			<blue>0</blue>
		</color>
		<in>52559</in>
		<out>-1</out>
	</marker>
	<marker>
		<name>Steel: Symphony</name>
		<comment/>
		<color>
			<alpha>0</alpha>
			<red>255</red>
			<green>255</green>
			<blue>0</blue>
		</color>
		<in>52817</in>
		<out>-1</out>
	</marker>
	<marker>
		<name>Marker 50</name>
		<comment/>
		<color>
			<alpha>0</alpha>
			<red>48</red>
			<green>191</green>
			<blue>191</blue>
		</color>
		<in>53247</in>
		<out>-1</out>
	</marker>
	<marker>
		<name>Marker 51</name>
		<comment/>
		<color>
			<alpha>0</alpha>
			<red>48</red>
			<green>191</green>
			<blue>191</blue>
		</color>
		<in>54340</in>
		<out>-1</out>
	</marker>
	<marker>
		<name>Marker 44</name>
		<comment/>
		<color>
			<alpha>0</alpha>
			<red>48</red>
			<green>191</green>
			<blue>72</blue>
		</color>
		<in>63134</in>
		<out>-1</out>
	</marker>
	<marker>
		<name>Steel: A Symphony of Industry</name>
		<comment/>
		<color>
			<alpha>0</alpha>
			<red>255</red>
			<green>255</green>
			<blue>0</blue>
		</color>
		<in>64076</in>
		<out>-1</out>
	</marker>
	<marker>
		<name>Steel: A Symphony of Industry</name>
		<comment/>
		<color>
			<alpha>0</alpha>
			<red>255</red>
			<green>255</green>
			<blue>0</blue>
		</color>
		<in>64516</in>
		<out>-1</out>
	</marker>
	<marker>
		<name>Steel: A Symphony of Industry</name>
		<comment/>
		<color>
			<alpha>0</alpha>
			<red>255</red>
			<green>255</green>
			<blue>0</blue>
		</color>
		<in>65411</in>
		<out>-1</out>
	</marker>
	<marker>
		<name>Steel: A Symphony of Industry</name>
		<comment/>
		<color>
			<alpha>0</alpha>
			<red>255</red>
			<green>255</green>
			<blue>0</blue>
		</color>
		<in>65686</in>
		<out>-1</out>
	</marker>
	<marker>
		<name>Marker 5</name>
		<color>
			<alpha>0</alpha>
			<red>255</red>
			<green>0</green>
			<blue>0</blue>
		</color>
		<in>93458</in>
		<out>-1</out>
	</marker>
	<marker>
		<name>Steel: A Symphony of Industry</name>
		<comment/>
		<color>
			<alpha>0</alpha>
			<red>255</red>
			<green>255</green>
			<blue>0</blue>
		</color>
		<in>94668</in>
		<out>-1</out>
	</marker>
	<marker>
		<name>Steel: A Symphony of Industry</name>
		<comment/>
		<color>
			<alpha>0</alpha>
			<red>255</red>
			<green>255</green>
			<blue>0</blue>
		</color>
		<in>94949</in>
		<out>-1</out>
	</marker>
	<marker>
		<name>Steel: A Symphony of Industry</name>
		<comment/>
		<color>
			<alpha>0</alpha>
			<red>255</red>
			<green>255</green>
			<blue>0</blue>
		</color>
		<in>95162</in>
		<out>-1</out>
	</marker>
	<marker>
		<name>Steel: A Symphony of Industry</name>
		<comment/>
		<color>
			<alpha>0</alpha>
			<red>255</red>
			<green>255</green>
			<blue>0</blue>
		</color>
		<in>95454</in>
		<out>-1</out>
	</marker>
	<marker>
		<name>Steel: A Symphony of Industry</name>
		<comment/>
		<color>
			<alpha>0</alpha>
			<red>255</red>
			<green>255</green>
			<blue>0</blue>
		</color>
		<in>96053</in>
		<out>-1</out>
	</marker>
	<marker>
		<name>Steel: A Symphony of Industry</name>
		<comment/>
		<color>
			<alpha>0</alpha>
			<red>255</red>
			<green>255</green>
			<blue>0</blue>
		</color>
		<in>96427</in>
		<out>-1</out>
	</marker>
	<marker>
		<name>Marker 48</name>
		<comment/>
		<color>
			<alpha>0</alpha>
			<red>48</red>
			<green>191</green>
			<blue>191</blue>
		</color>
		<in>146998</in>
		<out>-1</out>
	</marker>
	<marker>
		<name>Marker 47</name>
		<comment/>
		<color>
			<alpha>0</alpha>
			<red>48</red>
			<green>191</green>
			<blue>191</blue>
		</color>
		<in>147946</in>
		<out>-1</out>
	</marker>
	<marker>
		<name>Marker 46</name>
		<comment/>
		<color>
			<alpha>0</alpha>
			<red>48</red>
			<green>191</green>
			<blue>191</blue>
		</color>
		<in>149086</in>
		<out>-1</out>
	</marker>
	<marker>
		<name>Marker 49</name>
		<comment/>
		<color>
			<alpha>0</alpha>
			<red>48</red>
			<green>191</green>
			<blue>191</blue>
		</color>
		<in>150573</in>
		<out>-1</out>
	</marker>
</sequence>
</xmeml>


